<svg width="170" height="170" viewBox="0 0 170 170" fill="none" xmlns="http://www.w3.org/2000/svg">
<path opacity="0.2" d="M58.1566 85.9997L60.8232 96.6663L70.8232 100.666L77.4899 105.333L84.1566 107.333C85.9344 105.555 89.6232 102 90.1566 102C90.6899 102 93.9343 101.111 95.4899 100.666L104.157 99.9997L104.823 91.333C105.49 89.333 106.957 85.1997 107.49 84.6663C108.023 84.133 110.379 79.5552 111.49 77.333L110.157 73.333C109.623 71.733 109.045 69.1108 108.823 67.9997C107.934 65.333 106.023 59.733 105.49 58.6663C104.957 57.5997 102.157 54.6663 100.823 53.333L92.1566 50.6663L81.4899 45.333L76.1566 48.6663L68.8232 50.6663L59.4899 53.333L58.8232 61.333L54.8232 67.9997L52.8232 74.6663V79.9997L58.1566 85.9997Z" fill="white"/>
<g filter="url(#filter0_d)">
<path fill-rule="evenodd" clip-rule="evenodd" d="M70.9128 99.6997H65.4361C61.4928 99.6997 58.2961 96.503 58.2961 92.5597V87.083C58.2961 86.273 57.9728 85.4964 57.4028 84.923L53.5295 81.0497C50.7428 78.263 50.7428 73.743 53.5295 70.953L57.4028 67.0797C57.9761 66.5097 58.2995 65.733 58.2995 64.923V59.4464C58.2995 55.503 61.4961 52.3064 65.4395 52.3064H70.9161C71.7261 52.3064 72.5028 51.983 73.0761 51.413L76.9495 47.5397C79.7361 44.753 84.2561 44.753 87.0461 47.5397L90.9195 51.413C91.4928 51.9864 92.2695 52.3064 93.0795 52.3064H98.5561C102.499 52.3064 105.696 55.503 105.696 59.4464V64.923C105.696 65.733 106.019 66.5097 106.589 67.083L110.463 70.9564C113.249 73.743 113.249 78.263 110.463 81.053L106.589 84.9264C106.016 85.4997 105.696 86.2764 105.696 87.0864V92.563C105.696 96.5064 102.499 99.703 98.5561 99.703H93.0795C92.2695 99.703 91.4928 100.026 90.9195 100.596L87.0461 104.47C84.2595 107.256 79.7395 107.256 76.9495 104.47L73.0761 100.596C72.5028 100.023 71.7261 99.6997 70.9128 99.6997V99.6997Z" stroke="white" stroke-width="5" stroke-linecap="round" stroke-linejoin="round"/>
</g>
<defs>
<filter id="filter0_d" x="0.939453" y="0.949707" width="168.113" height="168.11" filterUnits="userSpaceOnUse" color-interpolation-filters="sRGB">
<feFlood flood-opacity="0" result="BackgroundImageFix"/>
<feColorMatrix in="SourceAlpha" type="matrix" values="0 0 0 0 0 0 0 0 0 0 0 0 0 0 0 0 0 0 127 0"/>
<feMorphology radius="1" operator="dilate" in="SourceAlpha" result="effect1_dropShadow"/>
<feOffset dx="3" dy="9"/>
<feGaussianBlur stdDeviation="25"/>
<feColorMatrix type="matrix" values="0 0 0 0 0 0 0 0 0 0.337255 0 0 0 0 0.623529 0 0 0 0.16 0"/>
<feBlend mode="normal" in2="BackgroundImageFix" result="effect1_dropShadow"/>
<feBlend mode="normal" in="SourceGraphic" in2="effect1_dropShadow" result="shape"/>
</filter>
</defs>
</svg>
