<svg id="flat" height="512" viewBox="0 0 512 512" width="512" xmlns="http://www.w3.org/2000/svg"><rect fill="#548aff" height="464" rx="24" width="272" x="216" y="24"/><path d="m248 384h120v72h-120z" fill="#7dafff"/><path d="m384 292.32a29.73438 29.73438 0 0 1 -7.95 20.24l-80.97 87.2a50.82921 50.82921 0 0 1 -69 5.1l-12.42-9.94-13.66-10.92v72h-120v-144h116.16a32.013 32.013 0 0 1 20.83 7.7l33.72 28.91 13.29 11.39 64-64v-26.34a5.65686 5.65686 0 0 1 9.66-4l14.34 14.34 16-16 7.29 7.29a29.70794 29.70794 0 0 1 8.71 21.03z" fill="#ffceb6"/><path d="m250.71 348.61-37.05 46.31-13.66-10.92v72h-120v-144h116.16a32.013 32.013 0 0 1 20.83 7.7z" fill="#ffb401"/><path d="m152 288v40a24 24 0 0 1 -48 0v-40z" fill="#ffceb6"/><path d="m152 288v40h-16a24.00619 24.00619 0 0 1 -24-24v-16z" fill="#ffbfa1"/><path d="m312 24 8 16h64l8-16z" fill="#4976f2"/><path d="m248 56h32v16h-32z" fill="#4976f2"/><path d="m424 56h32v16h-32z" fill="#4976f2"/><path d="m304 144 24 16-4.452-28.182 20.452-19.818h-24l-16-24-16 24h-24l20.452 19.818-4.452 28.182z" fill="#ffc431"/><path d="m408 144 24 16-4.452-28.182 20.452-19.818h-24l-16-24-16 24h-24l20.452 19.818-4.452 28.182z" fill="#ffc431"/><path d="m352 224 24 16-4.452-28.182 20.452-19.818h-24l-16-24-16 24h-24l20.452 19.818-4.452 28.182z" fill="#ffc431"/><g fill="#4976f2"><path d="m392 440h24v16h-24z"/><path d="m392 408h56v16h-56z"/><path d="m392 376h24v16h-24z"/><path d="m432 376h32v16h-32z"/></g><path d="m256 478.46a9.53849 9.53849 0 0 1 -9.54 9.54h-190.46a32.004 32.004 0 0 1 -32-32v-112a32.004 32.004 0 0 1 32-32h24v128h104l22.45-14.97a6.1446 6.1446 0 0 1 9.55 5.11v25.86l34 13.6a9.53778 9.53778 0 0 1 6 8.86z" fill="#ffceb6"/><path d="m88 312v96h-64v-64a32.004 32.004 0 0 1 32-32z" fill="#ffb401"/><path d="m136 320a32 32 0 0 1 -32-32v-16l24-24h40v40a32 32 0 0 1 -32 32z" fill="#ffceb6"/><path d="m168 248 7.80063-3.90031a14.8328 14.8328 0 0 0 8.19937-13.26687 14.8328 14.8328 0 0 0 -14.8328-14.83282h-33.1672a32 32 0 0 0 -32 32v24l24-24z" fill="#b1712c"/></svg>