<svg id="flat-export" height="512" viewBox="0 0 512 512" width="512" xmlns="http://www.w3.org/2000/svg"><path d="m488 178.91v2.91a188.382 188.382 0 0 1 -12 66.18 188.231 188.231 0 0 0 -12 66.18v5.82h-112v-80a35.12749 35.12749 0 0 1 -24-33.3v-14.7l-64 64h-32v-32l84.28027-84.28a39.99277 39.99277 0 0 1 28.28955-11.72h92.52a50.906 50.906 0 0 1 50.91018 50.91z" fill="#ffa100"/><path d="m120 280h240v32h-240z" fill="#c47220"/><path d="m232 256h104v24h-104z" fill="#3942ed"/><path d="m184 496v-128l64 64h32v-32l-84.28427-84.28427a40 40 0 0 0 -28.28427-11.71573h-92.51982a50.91164 50.91164 0 0 0 -50.91164 50.91164v141.08836z" fill="#ffa100"/><path d="m280 432h-96l-8 24h104z" fill="#3942ed"/><path d="m176 456v-40l14.01541-9.3436a39.63321 39.63321 0 0 1 21.98459-6.6564 39.63321 39.63321 0 0 1 21.98458 6.6564l9.37441 6.2496a10.4222 10.4222 0 0 1 4.64101 8.67179 10.4222 10.4222 0 0 1 -10.42219 10.42221h-21.57781z" fill="#ffceb6"/><path d="m280 344h128v112h-128z" fill="#4f5dff"/><circle cx="344" cy="400" fill="#788dff" r="16"/><path d="m152 456h336v32h-336z" fill="#c47220"/><path d="m336 240-14.01541-9.3436a39.63321 39.63321 0 0 0 -21.98459-6.6564 39.63321 39.63321 0 0 0 -21.98458 6.6564l-9.37442 6.2496a10.4222 10.4222 0 0 0 -4.641 8.67179 10.4222 10.4222 0 0 0 10.42219 10.42221h21.57781l40 24z" fill="#ffceb6"/><path d="m336 240h32v40h-32z" fill="#ffa100"/><path d="m440 183.99988-.00049-.00025a8 8 0 0 0 -11.31347.00025l-.68311.683-12.353-12.353 18.29-4.57a7.99362 7.99362 0 0 0 5.81983-9.7l-7.50976-30.05988h-16.49023l6.54 26.18-23.29 5.82h-14.01954l-23.29-5.82 6.54977-26.18h-16.49023l-7.51954 30.06a7.99362 7.99362 0 0 0 5.81983 9.7l18.29 4.57-14.01026 14.01a8.01728 8.01728 0 0 0 -.5898 10.66l27.52734 34.40918-.59082.59082h-20.68652a8 8 0 0 0 0 16h24a8.00076 8.00076 0 0 0 5.65723-2.34326l7.9414-7.94153q.04614-.045.09082-.09088l42.31055-42.31049a7.99973 7.99973 0 0 0 0-11.31396zm-40-4.68988 13.28027 13.28-13.28027 16.6zm-16 0v29.88l-13.28027-16.6z" fill="#f78e00"/><path d="m104 168h128v112h-128z" fill="#4f5dff"/><path d="m416 128-3.77 8.8-20.23 47.2-20.23-47.2-3.77-8.8z" fill="#ffceb6"/><path d="m128 344 16 72h-16l-25.333-25.333 9.333-46.667z" fill="#ef5e3b"/><path d="m112 344-8-16 16-16 16 16-8 16z" fill="#e04f2b"/><g fill="#f78e00"><path d="m140.686 343.99976-20.686-20.68604-20.686 20.686a8.00017 8.00017 0 0 1 -11.31375.00028 8.00017 8.00017 0 0 1 -.00025-11.3142l26.34277-26.3428a8.0012 8.0012 0 0 1 11.31446 0l26.34277 26.3428a8.00017 8.00017 0 0 1 -.00024 11.3142 8.00017 8.00017 0 0 1 -11.31376-.00024z"/><path d="m176 456a8 8 0 0 1 -8 8h-50.74512a39.74137 39.74137 0 0 1 -28.28418-11.71533l-40.9707-40.97073a8.00015 8.00015 0 0 1 .00024-11.31416 8.00015 8.00015 0 0 1 11.3137.00022l40.97024 40.97066a23.84541 23.84541 0 0 0 16.9707 7.02934h50.74512a8 8 0 0 1 8 8z"/><path d="m176 416a8 8 0 0 1 -8 8h-40a8.00076 8.00076 0 0 1 -5.65723-2.34326l-50.34277-50.34274a8.00016 8.00016 0 0 1 .00025-11.31418 8.00016 8.00016 0 0 1 11.31375.00018l47.99953 48h36.68647a8 8 0 0 1 8 8z"/></g><path d="m416 128-3.77 8.8a32.02025 32.02025 0 0 1 -40.46 0l-3.77-8.8z" fill="#ffbfa1"/><circle cx="424" cy="64" fill="#b66514" r="40"/><path d="m360 96v-24a32 32 0 0 1 32-32 32 32 0 0 1 32 32v24z" fill="#c47220"/><path d="m392 136a32 32 0 0 0 32-32v-8l-24-24a35.09935 35.09935 0 0 1 -33.29817 24h-6.70183v8a32 32 0 0 0 32 32z" fill="#ffceb6"/><circle cx="168" cy="224" fill="#788dff" r="16"/><path d="m120 312a32 32 0 0 1 -32-32v-16l24-24h40v40a32 32 0 0 1 -32 32z" fill="#ffceb6"/><path d="m152 240 7.80063-3.90031a14.8328 14.8328 0 0 0 8.19937-13.26683 14.8328 14.8328 0 0 0 -14.8328-14.83286h-33.1672a32 32 0 0 0 -32 32v24l24-24z" fill="#c47220"/><path d="m394.74512 288h-50.74512a8 8 0 0 1 -8-8 8 8 0 0 1 8-8h50.74513a23.84779 23.84779 0 0 0 16.97168-7.02979l32.96936-32.97021a8 8 0 0 1 11.31352-.00032l.00024.00024a8 8 0 0 1 .00028 11.3139l-32.96994 32.97035a39.74371 39.74371 0 0 1 -28.28515 11.71583z" fill="#f78e00"/></svg>