<svg width="108" height="108" viewBox="0 0 108 108" fill="none" xmlns="http://www.w3.org/2000/svg">
<g filter="url(#filter0_d)">
<path fill-rule="evenodd" clip-rule="evenodd" d="M92 87.4854L16.5146 12H60C67.831 12 75.005 14.8129 80.5667 19.4835L84.5165 23.4333C89.1871 28.995 92 36.169 92 44V87.4854Z" fill="#30357C"/>
</g>
<path d="M55.6835 34.919C54.9116 34.7899 54.1828 34.5603 53.497 34.2303C52.8083 33.9032 52.1742 33.4498 51.5945 32.8702C51.1182 32.3939 50.7423 31.8803 50.4669 31.3293C50.1885 30.7813 50.0278 30.2275 49.9848 29.668C49.9446 29.1113 50.0321 28.5647 50.2473 28.0281C50.4252 27.5747 50.7108 27.1515 51.1039 26.7584C51.1756 26.6866 51.2502 26.6178 51.3277 26.5518C51.6663 26.2476 52.0436 26.0252 52.4597 25.8846C52.8786 25.7469 53.3162 25.6766 53.7724 25.6737C54.2315 25.6737 54.7021 25.7369 55.1842 25.8631C55.6662 25.9894 56.1411 26.1658 56.6088 26.3925C57.0794 26.6221 57.5328 26.8947 57.969 27.2103C58.3649 27.4972 58.7322 27.81 59.0708 28.1486C59.1052 28.183 59.1382 28.216 59.1698 28.2476C58.9919 27.8746 58.8484 27.5216 58.7394 27.1888C58.6304 26.8559 58.5285 26.5475 58.4338 26.2634C58.342 25.9764 58.2444 25.7182 58.1411 25.4886C58.0378 25.2591 57.9044 25.0625 57.7408 24.899C57.6261 24.7842 57.4926 24.6909 57.3405 24.6192C57.1942 24.5475 57.0378 24.4973 56.8714 24.4686C56.705 24.4399 56.5357 24.4313 56.3635 24.4427C56.1913 24.4542 56.0249 24.4858 55.8642 24.5374L55.5371 23.031C55.8441 22.9478 56.1469 22.8976 56.4453 22.8803C56.7437 22.8631 57.0321 22.8846 57.3104 22.9449C57.5916 23.0023 57.8599 23.1013 58.1153 23.2419C58.3735 23.3796 58.6174 23.5633 58.847 23.7928C59.0249 23.9707 59.1798 24.163 59.3118 24.3696C59.4467 24.579 59.5615 24.8 59.6562 25.0324C59.7566 25.2648 59.8412 25.5044 59.9101 25.7512C59.9818 26.0008 60.0435 26.2548 60.0952 26.513C60.1784 26.9176 60.2688 27.2777 60.3663 27.5934C60.4639 27.909 60.5672 28.1959 60.6762 28.4542C60.791 28.7124 60.9115 28.9506 61.0378 29.1687C61.164 29.3868 61.296 29.5991 61.4338 29.8057L59.9532 30.6063L59.0407 29.9004C58.8943 30.0697 58.8212 30.249 58.8212 30.4384C58.824 30.6306 58.8671 30.82 58.9503 31.0065C59.0364 31.1902 59.1483 31.3681 59.286 31.5403C59.4266 31.7095 59.5629 31.8602 59.6949 31.9922L59.8671 32.1643L58.7652 33.2662L58.593 33.094C58.2057 32.7067 57.9116 32.3408 57.7107 31.9965C57.5098 31.6522 57.3707 31.3322 57.2932 31.0367C57.2215 30.7411 57.1971 30.4728 57.22 30.2318C57.2459 29.9879 57.2918 29.7756 57.3578 29.5948C57.4295 29.414 57.5084 29.2662 57.5945 29.1515C57.6662 29.0568 57.7251 28.9865 57.771 28.9406C57.7796 28.9319 57.7882 28.9233 57.7968 28.9147C57.4955 28.6995 57.1784 28.4972 56.8456 28.3079C56.5156 28.1156 56.1813 27.9449 55.8427 27.7957C55.5041 27.6464 55.1684 27.5259 54.8355 27.4341C54.5027 27.3423 54.1828 27.2892 53.8757 27.2749C53.5744 27.2605 53.2918 27.2906 53.0278 27.3652C52.7638 27.4399 52.5343 27.569 52.3392 27.7526C52.3133 27.7784 52.2875 27.8043 52.2617 27.8301C51.9805 28.1113 51.7925 28.4198 51.6978 28.7555C51.6031 29.0969 51.5917 29.4499 51.6634 29.8143C51.738 30.1816 51.8843 30.5431 52.1024 30.8989C52.3205 31.2547 52.5845 31.5876 52.8944 31.8975C53.3047 32.3078 53.7609 32.6321 54.2631 32.8702C54.7681 33.1113 55.3277 33.2777 55.9417 33.3695L55.6835 34.919ZM63.5365 35.8338L62.4347 36.9356L62.3486 36.8496C62.0702 36.5712 61.8794 36.2915 61.7761 36.0103C61.6728 35.7291 61.624 35.4507 61.6298 35.1753C61.4146 35.2011 61.1807 35.1537 60.9282 35.0332C60.6814 34.9127 60.4304 34.7535 60.175 34.5555C59.9167 34.3603 59.6657 34.1437 59.4218 33.9055C59.1779 33.6731 58.9555 33.4565 58.7546 33.2556L58.5954 33.0964L59.6972 31.9945L59.8565 32.1538C60.1922 32.4895 60.4935 32.7535 60.7603 32.9457C61.0301 33.1351 61.2725 33.2628 61.4877 33.3288C61.7058 33.3976 61.9024 33.4077 62.0774 33.3589C62.2553 33.3073 62.4189 33.2068 62.5681 33.0576C62.6656 32.9601 62.7761 32.8123 62.8995 32.6143C63.0258 32.4134 63.1793 32.148 63.36 31.818L64.7158 32.5799C64.6269 32.7434 64.5437 32.884 64.4662 33.0017C64.3945 33.1193 64.3156 33.2327 64.2295 33.3417C64.1491 33.4507 64.0573 33.5655 63.954 33.686C63.8564 33.8065 63.7374 33.9486 63.5968 34.1121C63.5136 34.2126 63.4361 34.3331 63.3643 34.4737C63.2955 34.6114 63.2467 34.7549 63.218 34.9041C63.195 35.0533 63.1979 35.2025 63.2266 35.3517C63.2582 35.4981 63.3328 35.6301 63.4504 35.7477L63.5365 35.8338ZM58.9225 35.9715L57.4591 35.9715L57.4548 34.4952L58.9225 34.4909V35.9715ZM60.5451 37.6028L59.0774 37.6071V36.1265L60.5408 36.1265L60.5451 37.6028ZM63.5075 35.8048C63.6625 35.9598 63.806 36.0774 63.938 36.1578C64.0699 36.2381 64.189 36.2941 64.2952 36.3256C64.4042 36.3543 64.5004 36.3672 64.5836 36.3644C64.6697 36.3644 64.7457 36.3601 64.8117 36.3514C65.0527 36.3055 65.2737 36.2395 65.4745 36.1535C65.6811 36.0674 65.8748 35.9741 66.0556 35.8737C66.2392 35.7704 66.4143 35.6642 66.5807 35.5552C66.7471 35.4461 66.915 35.3414 67.0843 35.241L67.717 36.4677C67.5506 36.571 67.3956 36.6685 67.2521 36.7603C67.1144 36.8522 66.9867 36.9512 66.8691 37.0573C66.8432 37.0831 66.8188 37.1075 66.7959 37.1305C66.7098 37.2166 66.6252 37.3184 66.542 37.4361C66.4616 37.5509 66.3927 37.6972 66.3354 37.8751C66.4817 37.8263 66.6524 37.7761 66.8475 37.7245C67.0484 37.6728 67.2636 37.6269 67.4932 37.5867C67.7285 37.5466 67.9767 37.5136 68.2378 37.4877C68.5018 37.4648 68.7701 37.4547 69.0426 37.4576C69.3554 37.472 69.6624 37.5093 69.9637 37.5695C70.2679 37.6269 70.5606 37.7072 70.8418 37.8105C71.1258 37.9167 71.3941 38.0473 71.6466 38.2022C71.902 38.36 72.1359 38.5451 72.3482 38.7574C72.6151 39.0243 72.8217 39.3313 72.968 39.6785C73.1144 40.0257 73.1918 40.3787 73.2004 40.7373C73.2148 41.096 73.1588 41.4418 73.0326 41.7746C72.9264 42.0472 72.7686 42.2883 72.5591 42.4977C72.5132 42.5436 72.4644 42.5896 72.4128 42.6355C72.0799 42.9167 71.7342 43.1104 71.3755 43.2165C71.0225 43.3227 70.6667 43.3629 70.3081 43.337C69.9551 43.3112 69.6022 43.228 69.2492 43.0874C68.8992 42.9497 68.5606 42.7775 68.2335 42.5709C67.9035 42.3672 67.5893 42.1391 67.2909 41.8866C66.9896 41.6369 66.7127 41.3858 66.4602 41.1333C66.1761 40.8493 65.9308 40.5838 65.7242 40.3371C65.5147 40.0932 65.3411 39.8478 65.2034 39.6011C65.0628 39.3572 64.9552 39.1003 64.8806 38.8306C64.8088 38.5638 64.7643 38.2639 64.7471 37.9311C64.3253 37.9569 63.9265 37.8909 63.5506 37.7331C63.1804 37.5752 62.8017 37.3027 62.4143 36.9153L62.2593 36.7603L63.3612 35.6585L63.5075 35.8048ZM69.034 38.9468C68.8217 38.9239 68.6094 38.9124 68.397 38.9124C68.1847 38.9124 67.981 38.921 67.7858 38.9382C67.5907 38.9554 67.4085 38.9798 67.2392 39.0114C67.0728 39.0401 66.9293 39.0717 66.8088 39.1061C66.9924 39.3069 67.2019 39.5308 67.4372 39.7775C67.5376 39.8837 67.6409 39.9899 67.7471 40.096C67.8877 40.2366 68.0613 40.4016 68.2679 40.591C68.4745 40.7804 68.7198 40.9769 69.0039 41.1807C69.2909 41.3873 69.5778 41.5508 69.8647 41.6713C70.1574 41.7919 70.4472 41.855 70.7342 41.8607C71.0211 41.8665 71.2966 41.789 71.5606 41.6283C71.6926 41.4676 71.7643 41.2926 71.7758 41.1032C71.7901 40.9167 71.76 40.7316 71.6854 40.548C71.6165 40.3643 71.5147 40.1907 71.3798 40.0272C71.3281 39.964 71.2736 39.9038 71.2162 39.8464C71.1244 39.7546 71.0283 39.6728 70.9279 39.6011C70.8016 39.5092 70.6596 39.4275 70.5017 39.3557C70.3497 39.284 70.189 39.2209 70.0197 39.1663C69.8533 39.109 69.6854 39.0616 69.5161 39.0243C69.3497 38.9899 69.189 38.964 69.034 38.9468ZM74.793 38.2151L73.1402 38.2151L73.1445 36.5666L74.7887 36.5666L74.793 38.2151ZM68.9207 47.2954C69.4257 47.634 69.9178 47.9023 70.397 48.1003C70.8762 48.304 71.3267 48.4446 71.7485 48.5221C72.1703 48.5996 72.5563 48.6182 72.9063 48.5781C73.2593 48.5408 73.5591 48.4504 73.8059 48.3069C73.5735 48.0745 73.354 47.8406 73.1474 47.6053C72.9408 47.37 72.76 47.1319 72.6051 46.8908C72.4501 46.6555 72.3267 46.4174 72.2349 46.1764C72.1488 45.9353 72.1072 45.6929 72.1101 45.449C72.1187 45.2051 72.1789 44.9612 72.2909 44.7173C72.4028 44.4734 72.5821 44.228 72.8289 43.9812C72.9867 43.8234 73.1689 43.6757 73.3755 43.5379C73.5821 43.4002 73.7987 43.2811 74.0254 43.1807C74.2578 43.0803 74.4946 43.0042 74.7356 42.9526C74.9795 42.898 75.2191 42.8765 75.4544 42.888C75.6925 42.8966 75.9192 42.9425 76.1344 43.0257C76.3496 43.1089 76.5433 43.2366 76.7155 43.4088C77.1603 43.8536 77.3683 44.4576 77.3396 45.2208C77.3252 45.4762 77.2836 45.7359 77.2148 45.9999C77.1459 46.2639 77.0527 46.5264 76.935 46.7875C76.8174 47.0487 76.6768 47.304 76.5132 47.5537C76.3554 47.8033 76.1746 48.0415 75.9709 48.2682L76.2593 48.5565L75.1574 49.6584L74.7786 49.2796C74.2564 49.6067 73.7098 49.8234 73.1388 49.9296C72.5649 50.0386 71.9881 50.0558 71.4085 49.9812C70.8318 49.9095 70.2622 49.756 69.6998 49.5207C69.1374 49.2854 68.6051 48.9884 68.1029 48.6297L68.9207 47.2954ZM75.6093 44.515C75.5347 44.4404 75.4228 44.3916 75.2736 44.3686C75.1244 44.3457 74.9637 44.3485 74.7916 44.3772C74.6223 44.4031 74.453 44.4518 74.2837 44.5236C74.1172 44.5982 73.9766 44.6929 73.8619 44.8076C73.7413 44.9282 73.6682 45.0558 73.6423 45.1907C73.6194 45.3284 73.6266 45.4647 73.6639 45.5996C73.704 45.7373 73.7657 45.8736 73.8489 46.0085C73.9379 46.1434 74.0326 46.2696 74.133 46.3873C74.1875 46.4533 74.2492 46.5236 74.3181 46.5982C74.3898 46.6699 74.4616 46.7445 74.5333 46.822C74.6079 46.9023 74.6825 46.9798 74.7571 47.0544C74.8317 47.129 74.902 47.1993 74.968 47.2653C75.0656 47.1505 75.1588 47.0142 75.2478 46.8564C75.3425 46.6986 75.4271 46.5307 75.5017 46.3528C75.5763 46.1749 75.638 45.9956 75.6868 45.8148C75.7385 45.6312 75.77 45.4561 75.7815 45.2897C75.7987 45.1233 75.7944 44.9726 75.7686 44.8378C75.7428 44.7029 75.6897 44.5953 75.6093 44.515ZM76.0836 48.3809L77.0004 49.2977C77.1352 49.4325 77.2873 49.5702 77.4566 49.7109C77.6316 49.8515 77.8096 49.9634 77.9903 50.0466C78.1768 50.1298 78.3605 50.1671 78.5413 50.1585C78.7249 50.1527 78.8956 50.071 79.0534 49.9131C79.1281 49.8385 79.217 49.718 79.3203 49.5516C79.4236 49.3852 79.5312 49.1944 79.6431 48.9791C79.755 48.7639 79.8626 48.533 79.9659 48.2862C80.0721 48.0423 80.1625 47.8056 80.2371 47.576L81.722 48.0796C81.6302 48.3149 81.5283 48.5602 81.4164 48.8156C81.3045 49.071 81.1782 49.3235 81.0376 49.5731C80.9028 49.8228 80.755 50.0624 80.5943 50.2919C80.4336 50.5215 80.26 50.7295 80.0735 50.916C79.7407 51.2489 79.3963 51.4698 79.0405 51.5788C78.6847 51.6879 78.326 51.708 77.9645 51.6391C77.6087 51.5702 77.2543 51.4253 76.9014 51.2044C76.5513 50.9863 76.2142 50.7151 75.8899 50.3909L74.9817 49.4827L76.0836 48.3809ZM82.4967 45.8242L81.0333 45.8242L81.029 44.3479L82.4967 44.3436L82.4967 45.8242ZM84.1194 47.4555L82.6517 47.4598L82.6517 45.9792H84.1151L84.1194 47.4555Z" fill="white"/>
<defs>
<filter id="filter0_d" x="0.514648" y="0" width="107.485" height="107.485" filterUnits="userSpaceOnUse" color-interpolation-filters="sRGB">
<feFlood flood-opacity="0" result="BackgroundImageFix"/>
<feColorMatrix in="SourceAlpha" type="matrix" values="0 0 0 0 0 0 0 0 0 0 0 0 0 0 0 0 0 0 127 0" result="hardAlpha"/>
<feOffset dy="4"/>
<feGaussianBlur stdDeviation="8"/>
<feComposite in2="hardAlpha" operator="out"/>
<feColorMatrix type="matrix" values="0 0 0 0 0.541176 0 0 0 0 0.564706 0 0 0 0 0.823529 0 0 0 0.3 0"/>
<feBlend mode="normal" in2="BackgroundImageFix" result="effect1_dropShadow"/>
<feBlend mode="normal" in="SourceGraphic" in2="effect1_dropShadow" result="shape"/>
</filter>
</defs>
</svg>
