<svg width="42" height="42" viewBox="0 0 42 42" fill="none" xmlns="http://www.w3.org/2000/svg">
<path opacity="0.2" d="M16.5188 7.46079C18.4958 10.0747 17.6996 14.1428 14.547 16.5271C11.3943 18.9115 7.26323 18.57 5.28628 15.9561C4.35608 14.7262 4.47514 13.0011 5.32487 11.1728C6.16743 9.35993 7.67748 7.57468 9.27606 6.36565C10.8701 5.16007 12.1689 4.81504 13.2813 5.03143C14.4072 5.25047 15.4648 6.06712 16.5188 7.46079Z" fill="#C3C6E8" stroke="#C3C6E8" stroke-width="0.916667"/>
<path d="M5.99414 35.1891H15.9983" stroke="#C3C6E8" stroke-width="2.5" stroke-linecap="round" stroke-linejoin="round"/>
<path d="M8.02802 35.1887V18.6443" stroke="#C3C6E8" stroke-width="2.5" stroke-linecap="round" stroke-linejoin="round"/>
<path d="M34.3389 25.9559L33.3861 26.9087" stroke="#C3C6E8" stroke-width="2.5" stroke-linecap="round" stroke-linejoin="round"/>
<path d="M24.2412 36.0536L23.2884 37.0064" stroke="#C3C6E8" stroke-width="2.5" stroke-linecap="round" stroke-linejoin="round"/>
<path d="M28.8137 23.6675V25.015" stroke="#C3C6E8" stroke-width="2.5" stroke-linecap="round" stroke-linejoin="round"/>
<path d="M23.2884 25.9559L24.2412 26.9087" stroke="#C3C6E8" stroke-width="2.5" stroke-linecap="round" stroke-linejoin="round"/>
<path d="M20.9998 31.4811H22.3472" stroke="#C3C6E8" stroke-width="2.5" stroke-linecap="round" stroke-linejoin="round"/>
<path fill-rule="evenodd" clip-rule="evenodd" d="M35.4385 32.6059L28.7637 30.381C28.4653 30.2816 28.1364 30.3592 27.9141 30.5816C27.6917 30.8039 27.6141 31.1328 27.7135 31.4311L29.9385 38.106C30.041 38.4135 30.3132 38.6333 30.6355 38.6687C30.9578 38.7041 31.2712 38.5486 31.438 38.2706L32.7863 36.0233C32.9265 35.7896 33.1221 35.594 33.3558 35.4538L35.6031 34.1054C35.8811 33.9386 36.0366 33.6252 36.0012 33.303C35.9658 32.9807 35.7461 32.7085 35.4385 32.6059V32.6059Z" stroke="#C3C6E8" stroke-width="2.5" stroke-linecap="round" stroke-linejoin="round"/>
<path d="M35.5803 38.2478L33.0361 35.7036" stroke="#C3C6E8" stroke-width="2.5" stroke-linecap="round" stroke-linejoin="round"/>
<path fill-rule="evenodd" clip-rule="evenodd" d="M37.2137 12.7923C37.7057 13.719 37.8035 14.8049 37.485 15.8047C36.934 17.5391 35.3064 18.7033 33.487 18.6644C31.6676 18.6255 30.0912 17.3927 29.6149 15.6364C29.5847 15.5344 29.491 15.4644 29.3846 15.4644C29.2782 15.4644 29.1845 15.5344 29.1543 15.6364C28.6678 17.424 27.0445 18.6645 25.1918 18.6643C23.3392 18.6641 21.7161 17.4233 21.23 15.6355C21.1999 15.5335 21.1062 15.4634 20.9998 15.4634C20.8934 15.4634 20.7996 15.5335 20.7695 15.6355C20.2832 17.4233 18.6599 18.6639 16.8072 18.6639C14.9545 18.6638 13.3313 17.423 12.8452 15.6353C12.8149 15.5333 12.7212 15.4633 12.6148 15.4633C12.5085 15.4633 12.4148 15.5333 12.3845 15.6353C11.9081 17.3914 10.3319 18.624 8.51266 18.6629C6.69344 18.7019 5.06589 17.538 4.51472 15.8038C4.19602 14.8039 4.29383 13.7178 4.78603 12.7909L7.63175 7.15755C8.19904 6.03454 9.3501 5.32642 10.6083 5.32642H31.3908C32.6489 5.32642 33.8 6.03454 34.3673 7.15755L37.2137 12.7923Z" stroke="#C3C6E8" stroke-width="2.5" stroke-linecap="round" stroke-linejoin="round"/>
</svg>
