<svg width="66" height="66" viewBox="0 0 66 66" fill="none" xmlns="http://www.w3.org/2000/svg">
<path d="M35.6685 56.8448C34.7834 56.954 33.8925 57.0092 33.0007 57.0102C19.7404 57.0102 8.99072 46.2606 8.99072 33.0002C8.99072 19.7399 19.7404 8.99023 33.0007 8.99023C46.2611 8.99023 57.0107 19.7399 57.0107 33.0002C57.0097 33.892 56.9545 34.7829 56.8453 35.668" stroke="#30357C" stroke-width="3.9375" stroke-linecap="round" stroke-linejoin="round"/>
<path d="M54.343 46.3391L47.6735 53.0086L43.6719 49.0069" stroke="#30357C" stroke-width="3.9375" stroke-linecap="round" stroke-linejoin="round"/>
<path d="M32.9991 42.6711C32.8151 42.6718 32.6664 42.8214 32.6669 43.0054C32.6674 43.1894 32.8168 43.3383 33.0008 43.338C33.1848 43.3378 33.3339 43.1886 33.3339 43.0045C33.3344 42.9157 33.2992 42.8304 33.2363 42.7677C33.1733 42.705 33.0879 42.6702 32.9991 42.6711" stroke="#30357C" stroke-width="3.9375" stroke-linecap="round" stroke-linejoin="round"/>
<path d="M26.8267 26.8262C27.4587 24.102 29.9399 22.2132 32.734 22.3292C35.8611 22.156 38.5419 24.5389 38.7365 27.6647C38.7365 31.6768 33.0008 33.0003 33.0008 35.6681" stroke="#30357C" stroke-width="3.9375" stroke-linecap="round" stroke-linejoin="round"/>
</svg>
