<svg width="48" height="48" viewBox="0 0 48 48" fill="none" xmlns="http://www.w3.org/2000/svg">
<path opacity="0.16" fill-rule="evenodd" clip-rule="evenodd" d="M25.7411 17.0805C27.3916 17.4525 29.0228 17.7623 30.4099 18.7422C31.8201 19.7384 32.792 21.1371 33.6337 22.656C34.6822 24.548 36.507 26.5188 35.8672 28.5897C35.228 30.6589 32.4594 30.9394 30.6955 32.1663C28.9993 33.3462 27.7445 35.1596 25.7411 35.6332C23.41 36.1843 20.8246 36.2226 18.7648 34.9867C16.6193 33.6993 15.4961 31.2804 14.5738 28.9325C13.5933 26.4365 12.4068 23.6861 13.3375 21.1705C14.2588 18.6804 16.7775 17.0547 19.2727 16.2319C21.392 15.5331 23.5656 16.5901 25.7411 17.0805Z" fill="#3D3D3D"/>
<path fill-rule="evenodd" clip-rule="evenodd" d="M22.4745 25.5255C20.9145 23.9655 19.7385 22.2188 18.9572 20.4468C18.7919 20.0722 18.8892 19.6335 19.1785 19.3442L20.2705 18.2535C21.1652 17.3588 21.1652 16.0935 20.3839 15.3122L18.8185 13.7468C17.7772 12.7055 16.0892 12.7055 15.0479 13.7468L14.1785 14.6162C13.1905 15.6042 12.7785 17.0295 13.0452 18.4428C13.7039 21.9268 15.7279 25.7415 18.9932 29.0068C22.2585 32.2722 26.0732 34.2962 29.5572 34.9548C30.9705 35.2215 32.3959 34.8095 33.3839 33.8215L34.2519 32.9535C35.2932 31.9122 35.2932 30.2242 34.2519 29.1828L32.6879 27.6188C31.9065 26.8375 30.6399 26.8375 29.8599 27.6188L28.6559 28.8242C28.3665 29.1135 27.9279 29.2108 27.5532 29.0455C25.7812 28.2628 24.0345 27.0855 22.4745 25.5255Z" stroke="#3D3D3D" stroke-width="2" stroke-linecap="round" stroke-linejoin="round"/>
</svg>
