<svg width="48" height="48" viewBox="0 0 48 48" fill="none" xmlns="http://www.w3.org/2000/svg">
<path opacity="0.16" fill-rule="evenodd" clip-rule="evenodd" d="M24.7411 15.0805C26.3916 15.4525 28.0228 15.7623 29.4099 16.7422C30.8201 17.7384 31.792 19.1371 32.6337 20.656C33.6822 22.548 35.507 24.5188 34.8672 26.5897C34.228 28.6589 31.4594 28.9394 29.6955 30.1663C27.9993 31.3462 26.7445 33.1596 24.7411 33.6332C22.41 34.1843 19.8246 34.2226 17.7648 32.9867C15.6193 31.6993 14.4961 29.2804 13.5738 26.9325C12.5933 24.4365 11.4068 21.6861 12.3375 19.1705C13.2588 16.6804 15.7775 15.0547 18.2727 14.2319C20.392 13.5331 22.5656 14.5901 24.7411 15.0805Z" fill="#3D3D3D"/>
<path fill-rule="evenodd" clip-rule="evenodd" d="M22.6004 13.5H25.4004C26.1736 13.5 26.8004 14.1268 26.8004 14.9V20.4999L24.0004 19.1L21.2004 20.4999V14.9C21.2004 14.5287 21.3479 14.1726 21.6105 13.91C21.873 13.6475 22.2291 13.5 22.6004 13.5V13.5Z" stroke="#323232" stroke-width="1.74926" stroke-linecap="round" stroke-linejoin="round"/>
<rect x="18.167" y="26.333" width="5.83328" height="3.49997" stroke="#323232" stroke-width="1.74926" stroke-linecap="round" stroke-linejoin="round"/>
<path d="M26.8006 14.667H32.1672C33.4559 14.667 34.5006 15.7117 34.5006 17.0003V32.1668C34.5006 33.4555 33.4559 34.5002 32.1672 34.5002H15.834C14.5454 34.5002 13.5007 33.4555 13.5007 32.1668V17.0003C13.5007 15.7117 14.5454 14.667 15.834 14.667H21.2007" stroke="#323232" stroke-width="1.74926" stroke-linecap="round" stroke-linejoin="round"/>
</svg>
