<svg width="48" height="35" viewBox="0 0 48 35" fill="none" xmlns="http://www.w3.org/2000/svg">
<path d="M11.541 16.4766C11.541 16.4766 11.541 16.5551 11.541 16.4766C16.0149 17.497 19.076 21.1075 19.39 24.875C19.39 25.032 19.39 25.2675 19.39 25.4244C19.39 30.6832 14.9161 34.9217 10.2067 34.9217C4.7124 34.9217 0.473984 30.6832 0.473984 25.4244C0.473984 20.7935 3.29962 15.7702 7.30259 11.2963C11.2271 6.97937 16.2504 3.13337 20.9598 0.700195L23.3145 4.62468C18.3696 7.60728 12.7968 12.3167 11.541 16.4766Z" fill="#00569F"/>
<path d="M35.9509 16.5547C40.6603 17.5751 43.5644 21.5781 43.5644 25.5026C43.5644 30.7614 39.326 34.9998 34.6166 34.9998C29.1223 34.9998 24.8838 30.7614 24.8838 25.5026C24.8838 16.3193 35.9509 5.80166 45.3697 0.77832L47.7244 4.7028C42.7795 7.60692 36.9713 12.3163 35.9509 16.5547Z" fill="#00569F"/>
</svg>
