<svg width="48" height="35" viewBox="0 0 48 35" fill="none" xmlns="http://www.w3.org/2000/svg">
<path d="M36.3038 19.2581C36.3038 19.2581 36.3038 19.1798 36.3038 19.2581C31.8397 18.24 28.7853 14.6373 28.472 10.8781C28.472 10.7214 28.472 10.4865 28.472 10.3299C28.472 5.08257 32.9362 0.853402 37.6353 0.853402C43.1175 0.853403 47.3466 5.08257 47.3466 10.3299C47.3466 14.9506 44.5272 19.963 40.533 24.4271C36.6171 28.7346 31.6048 32.5721 26.9057 35L24.5562 31.0841C29.4902 28.108 35.0507 23.409 36.3038 19.2581Z" fill="#00569F"/>
<path d="M11.9476 19.18C7.24856 18.1618 4.35084 14.1676 4.35084 10.2517C4.35084 5.00445 8.57998 0.775277 13.279 0.775277C18.7613 0.775278 22.9905 5.00445 22.9905 10.2517C22.9905 19.4149 11.9476 29.9095 2.54949 34.9219L0.199952 31.006C5.13398 28.1082 10.9295 23.4091 11.9476 19.18Z" fill="#00569F"/>
</svg>
