<svg width="40" height="40" viewBox="0 0 40 40" fill="none" xmlns="http://www.w3.org/2000/svg">
<path d="M7.03353 18.1499V34.8166" stroke="#C3C6E8" stroke-width="2.5" stroke-linecap="round" stroke-linejoin="round"/>
<path d="M32.9666 18.1499V34.8166" stroke="#C3C6E8" stroke-width="2.5" stroke-linecap="round" stroke-linejoin="round"/>
<circle opacity="0.2" cx="20.5" cy="20.5" r="9.5" fill="#C3C6E8"/>
<path d="M23.7031 34.8151V27.4084C23.7031 25.3634 22.0447 23.7051 19.9997 23.7051C17.9547 23.7051 16.2964 25.3634 16.2964 27.4084V34.8151" stroke="#C3C6E8" stroke-width="2.5" stroke-linecap="round" stroke-linejoin="round"/>
<path d="M3.33301 34.8169H36.6663" stroke="#C3C6E8" stroke-width="2.5" stroke-linecap="round" stroke-linejoin="round"/>
<path fill-rule="evenodd" clip-rule="evenodd" d="M7.16829 18.1484C4.33829 18.1284 2.49329 15.3267 3.71996 12.9117L6.57829 7.28339C7.22996 6.00006 8.59996 5.18506 10.1033 5.18506H29.8966C31.4 5.18506 32.77 6.00006 33.4216 7.28339L36.2816 12.9117C37.5083 15.3267 35.6633 18.1284 32.8333 18.1484C30.4716 18.1484 28.5566 16.5351 28.5566 14.5434V14.4634C28.5566 16.4984 26.6416 18.1484 24.28 18.1484C21.9183 18.1484 20.0033 16.4984 20.0033 14.4634C20.0033 16.4984 18.0883 18.1484 15.7266 18.1484C13.365 18.1484 11.45 16.4984 11.45 14.4634V14.5434C11.445 16.5351 9.52996 18.1484 7.16829 18.1484Z" stroke="#C3C6E8" stroke-width="2.5" stroke-linecap="round" stroke-linejoin="round"/>
</svg>
