<svg width="1251" height="610" viewBox="0 0 1251 610" fill="none" xmlns="http://www.w3.org/2000/svg">
<rect x="2" y="347" width="1249" height="263" rx="40" fill="#30357C"/>
<path opacity="0.2" d="M1086.3 463.315C982.236 458.996 875.379 467.513 656.683 459.985C533.875 455.761 309.192 454.409 163.721 463.315C68.7896 469.133 -9.84679 463.911 1.00368 381.357V99.0474C1.00368 53.7795 0.599274 5.6309 163.721 17.085C250.313 23.1619 369.55 29.3467 497.275 23.3519C649.181 16.2212 938.075 30.6943 1086.3 17.085C1227.07 4.15379 1249 53.7968 1249 99.0474V381.357C1249 451.252 1185.33 467.422 1086.3 463.315Z" fill="url(#paint0_linear)"/>
<path d="M1088.3 448.315C984.236 443.996 877.379 452.513 658.683 444.985C535.875 440.761 311.192 439.409 165.721 448.315C70.7896 454.133 -7.84679 448.911 3.00368 366.357V84.0474C3.00368 38.7795 2.59927 -9.3691 165.721 2.08499C252.313 8.16188 371.55 14.3467 499.275 8.35192C651.181 1.22118 940.075 15.6943 1088.3 2.08499C1229.07 -10.8462 1251 38.7968 1251 84.0474V366.357C1251 436.252 1187.33 452.422 1088.3 448.315Z" fill="url(#paint1_linear)"/>
<defs>
<linearGradient id="paint0_linear" x1="1261.39" y1="154.081" x2="-352.559" y2="202.841" gradientUnits="userSpaceOnUse">
<stop stop-color="#F2F3F6"/>
<stop offset="1" stop-color="#F2F3F6"/>
</linearGradient>
<linearGradient id="paint1_linear" x1="1263.39" y1="139.081" x2="-350.559" y2="187.841" gradientUnits="userSpaceOnUse">
<stop stop-color="#F2F3F6"/>
<stop offset="1" stop-color="#F2F3F6"/>
</linearGradient>
</defs>
</svg>
