<svg width="146" height="138" viewBox="0 0 146 138" fill="none" xmlns="http://www.w3.org/2000/svg">
<path d="M141.969 74.1607C142.772 73.9569 143.258 73.1407 143.054 72.3378C142.85 71.5348 142.034 71.0491 141.231 71.253L141.969 74.1607ZM54.5713 87.6499L54.624 86.1508L54.5713 87.6499ZM30.6603 67.2219L29.9088 65.9238L30.6603 67.2219ZM83.5861 27.4047L83.0565 28.8081L83.5861 27.4047ZM28.8726 33.4045C28.5189 34.1536 28.8395 35.0476 29.5886 35.4014L41.7962 41.1654C42.5453 41.5191 43.4393 41.1986 43.793 40.4494C44.1468 39.7003 43.8262 38.8063 43.0771 38.4526L32.2259 33.329L37.3495 22.4778C37.7032 21.7287 37.3826 20.8346 36.6335 20.4809C35.8844 20.1272 34.9904 20.4478 34.6367 21.1969L28.8726 33.4045ZM141.231 71.253C130.874 73.8822 114.096 77.7847 97.4432 80.9418C80.7402 84.1086 64.3302 86.4917 54.624 86.1508L54.5187 89.1489C64.6064 89.5033 81.3297 87.0503 98.002 83.8893C114.725 80.7188 131.564 76.8022 141.969 74.1607L141.231 71.253ZM54.624 86.1508C48.478 85.9349 42.4211 85.4415 37.1806 84.6084C31.9031 83.7694 27.5925 82.6062 24.8464 81.12C23.4742 80.3774 22.6266 79.6246 22.1943 78.9184C21.8034 78.2798 21.7014 77.6063 21.9838 76.7634C22.2907 75.8471 23.0775 74.675 24.6365 73.2522C26.182 71.8418 28.3978 70.2651 31.4119 68.5201L29.9088 65.9238C26.7862 67.7316 24.3736 69.4307 22.6143 71.0363C20.8685 72.6295 19.6741 74.2135 19.1391 75.8105C18.5795 77.481 18.7747 79.0781 19.6356 80.4846C20.4552 81.8234 21.8141 82.8901 23.4185 83.7584C26.6257 85.4942 31.3489 86.719 36.7096 87.5712C42.1074 88.4293 48.2934 88.9303 54.5187 89.1489L54.624 86.1508ZM31.4119 68.5201C37.5144 64.987 44.917 61.14 52.3687 57.2344C59.801 53.3389 67.2794 49.3866 73.4652 45.6719C79.5831 41.9979 84.6719 38.4235 87.1176 35.2444C88.3326 33.665 89.1718 31.8233 88.633 29.9558C88.0957 28.0933 86.3737 26.8534 84.1157 26.0013L83.0565 28.8081C85.0417 29.5572 85.6153 30.3184 85.7506 30.7874C85.8844 31.2514 85.7733 32.0717 84.7398 33.4152C82.6885 36.0817 78.0875 39.3967 71.9207 43.1C65.8218 46.7626 58.4205 50.6754 50.976 54.5772C43.5509 58.4689 36.0795 62.3512 29.9088 65.9238L31.4119 68.5201ZM84.1157 26.0013C76.9134 23.2834 66.2458 23.9356 56.1073 25.6948C45.882 27.469 35.8532 30.435 29.7228 32.633L30.7353 35.4569C36.733 33.3065 46.5935 30.3904 56.6202 28.6506C66.7336 26.8958 76.6805 26.402 83.0565 28.8081L84.1157 26.0013Z" fill="white"/>
</svg>
