<?xml version="1.0" encoding="utf-8"?>
<!-- Generator: Adobe Illustrator 22.0.0, SVG Export Plug-In . SVG Version: 6.00 Build 0)  -->
<svg version="1.1" xmlns="http://www.w3.org/2000/svg" xmlns:xlink="http://www.w3.org/1999/xlink" x="0px" y="0px"
	 viewBox="0 0 704.4 224.8" style="enable-background:new 0 0 704.4 224.8;" xml:space="preserve">
<style type="text/css">
	.st0{fill:#FFFFFF;}
	.st1{fill:#2B3990;}
	.st2{fill:#42CEC0;}
	.st3{fill:#42CEC0;stroke:#42CEC0;stroke-width:4;stroke-miterlimit:10;}
	.st4{fill:#D1D3D4;}
</style>
<g id="Layer_2">
</g>
<g id="Layer_1">
	<path class="st0" d="M58.7,22.6c-19.9,0-36.2,16.2-36.2,36.2V166c0,19.9,16.2,36.2,36.2,36.2h583.1v-40h40v-50.4
		c0-21.7-14-40.6-34.7-47.1l-5.7-1.8l-1.8-5.7c-6.4-20.8-25.4-34.7-47.1-34.7H58.7z"/>
	<g>
		<g>
			<g>
				<path class="st1" d="M632.5,82.4H622V71.9c0-16.2-13.2-29.4-29.4-29.4H562v40h-40v30.5c0,16.2,13.2,29.4,29.4,29.4H562v10.5
					c0,16.2,13.2,29.4,29.4,29.4H622v-40h40v-30.5C661.9,95.6,648.7,82.4,632.5,82.4z M562,122.4h-10.5c-5.2,0-9.4-4.2-9.4-9.4
					v-10.6h20V122.4z M602,162.3h-10.5c-5.2,0-9.4-4.2-9.4-9.4v-10.5h20V162.3z M602,122.4h-20v-20h20V122.4z M602,82.4h-20v-20
					h10.5c5.2,0,9.4,4.2,9.4,9.4V82.4z M641.9,122.4h-20v-20h10.5c5.2,0,9.4,4.2,9.4,9.4V122.4z"/>
				<path class="st2" d="M602,71.9v10.6h-20v-20h10.5C597.8,62.4,602,66.7,602,71.9z"/>
				<path class="st2" d="M602,142.4v20h-10.5c-5.2,0-9.4-4.2-9.4-9.4v-10.5H602z"/>
			</g>
			<g>
				<path class="st2" d="M562,102.4v20h-10.5c-5.2,0-9.4-4.2-9.4-9.4v-10.6H562z"/>
			</g>
			<g>
				<path class="st2" d="M641.9,111.8v10.5h-20v-20h10.5C637.7,102.4,641.9,106.6,641.9,111.8z"/>
			</g>
		</g>
		<g>
			<rect x="194.9" y="60.5" class="st3" width="15.1" height="75.7"/>
			<path class="st3" d="M482.6,90.8H475V75.1h-15.1v15.7h-30.3v30.3H422h-7.6V90.8h-15.1v45.4c0,4.2-3.4,7.6-7.6,7.6
				s-7.6-3.4-7.6-7.6V98.4H369v37.8c0,4.2-3.4,7.6-7.6,7.6c-4.2,0-7.6-3.4-7.6-7.6v-30.3h-15.1v15.1h-22.7V83.2h-15.1v53
				c0,4.2-3.4,7.6-7.6,7.6h-0.1c-4.1,0-7.5-3.3-7.5-7.5v-15.3h-45.4V83.2h-15.1v53h45.4v0.1c0,12.5,10.1,22.6,22.6,22.6h0.1
				c12.5,0,22.7-10.2,22.7-22.7h22.7c0,12.5,10.2,22.7,22.7,22.7c5.8,0,11.1-2.2,15.1-5.8c4,3.6,9.3,5.8,15.1,5.8
				c12.5,0,22.7-10.2,22.7-22.7h7.6h7.6v7.6c0,12.5,10.2,22.7,22.7,22.7H475v-30.3h30.3v-22.7C505.3,101,495.1,90.8,482.6,90.8z
				 M459.9,151.3h-7.6c-4.2,0-7.6-3.4-7.6-7.6v-7.6h15.1V151.3z M459.9,121.1h-15.1v-15.1h15.1V121.1z M490.2,121.1H475v-15.1h7.6
				c4.2,0,7.6,3.4,7.6,7.6V121.1z"/>
			<path class="st3" d="M164.7,128.6c0,4.2-3.4,7.6-7.6,7.6c-4.2,0-7.6-3.4-7.6-7.6V90.8h-15.1v30.3h-15.1V90.8
				c0-12.5-10.2-22.7-22.7-22.7S73.8,78.3,73.8,90.8v15.1H89V90.8c0-4.2,3.4-7.6,7.6-7.6c4.2,0,7.6,3.4,7.6,7.6v30.3H58.7V60.5H43.5
				v75.7h75.7h16.4c3.1,8.8,11.5,15.1,21.4,15.1c12.5,0,22.7-10.2,22.7-22.7v-53h-15.1V128.6z"/>
			<rect x="253.5" y="60.5" class="st1" width="34.8" height="15.1"/>
			<rect x="139.9" y="161.9" class="st1" width="35.3" height="15.1"/>
			<rect x="73.8" y="145.8" class="st1" width="15.1" height="15.1"/>
			<rect x="134.4" y="60.5" class="st1" width="15.1" height="15.1"/>
		</g>
		<g>
			<path class="st4" d="M664.4,224.8H58.7C26.4,224.8,0,198.4,0,166V58.7C0,26.4,26.4,0,58.7,0h533.8c15.6,0,30.5,5,43,14.3
				c10.5,7.9,18.8,18.7,23.7,30.8c12.1,4.9,22.9,13.2,30.8,23.7c9.4,12.5,14.3,27.4,14.3,43v73h-40V224.8z M58.7,22.6
				c-19.9,0-36.2,16.2-36.2,36.2V166c0,19.9,16.2,36.2,36.2,36.2h583.1v-40h40v-50.4c0-21.7-14-40.6-34.7-47.1l-5.7-1.8l-1.8-5.7
				c-6.4-20.8-25.4-34.7-47.1-34.7H58.7z"/>
		</g>
	</g>
</g>
</svg>
