<svg width="163" height="64" viewBox="0 0 163 64" fill="none" xmlns="http://www.w3.org/2000/svg">
<path opacity="0.7" d="M31.3679 42.9749C27.5456 40.3615 4.16747 45.1083 2.38967 44.4327C0.842977 43.5082 1.1452 24.9657 2.22966 22.139C2.603 21.1257 3.13634 20.9301 4.45192 21.2857C6.06972 21.819 27.6878 19.2057 32.3457 18.7079C32.7368 19.259 33.6257 17.2856 33.8568 17.979C34.2124 18.779 44.8792 18.1745 55.9016 17.5879C59.955 17.3745 68.0795 16.8234 80.1686 16.5034C82.3553 16.4501 80.6308 17.5523 83.1909 17.1612C88.6487 16.3078 100.56 17.5345 104.702 16.6812C108.027 16.0056 108.738 15.9878 111.902 16.7878C114.622 17.4812 132.365 17.7301 134.445 16.6278C134.943 16.3078 135.316 16.4678 135.281 16.8767C135.281 16.8767 147.405 18.2634 147.441 18.6012C147.512 19.0101 147.85 19.2412 148.223 18.9923C148.863 18.5656 161.912 18.3523 162.019 19.579C162.339 23.0457 159.334 37.3393 157.61 40.7349C155.796 44.326 148.063 39.2771 141.183 40.9838C107.067 38.4948 110.16 39.2059 103.796 40.2904C103.067 39.0282 100.133 41.9793 98.3733 39.7571C97.6622 38.8504 92.3999 38.5837 91.2265 39.4548C90.7288 39.8282 83.7598 39.3837 76.5774 39.2771C69.3951 39.1704 61.9817 39.4371 60.6483 40.6637C55.066 38.4948 33.5901 42.6549 31.3679 42.9749Z" fill="#DFE1F3"/>
<path opacity="0.7" d="M15.7413 41.7661C14.2479 40.5394 9.50117 42.8505 5.76778 43.9528C5.27 44.095 2.53218 44.735 2.08773 44.4506C1.55439 43.8817 0.0788116 23.0991 0.0254775 22.3169C-0.0811907 20.6813 0.149924 21.7302 0.665487 21.8547C0.949936 21.9258 2.10551 21.588 2.38996 21.5169C3.75887 21.0369 5.64334 20.0235 6.90558 19.2768C7.24336 19.7568 6.7278 17.8902 7.08336 18.5124C8.0256 20.1657 19.3858 12.8234 21.0569 11.9523C21.7325 11.5967 21.6791 12.8056 22.3191 12.059C22.9947 11.2589 24.4525 10.6367 25.8392 10.0323C31.0482 7.72111 28.577 6.54776 31.5104 6.90332C32.8615 6.95665 38.7638 3.96994 39.1194 2.58326C39.1727 2.19214 39.3683 2.26325 39.5105 2.65437C39.5283 2.7077 40.6839 2.40548 41.9283 2.20992C43.1728 2.01436 44.3995 1.85436 44.4706 1.99658C44.6306 2.3877 44.8261 2.52992 44.8795 2.22769C44.8973 1.69435 49.8395 -0.847907 50.1951 0.289888C51.2085 3.56105 53.9107 17.8546 54.3907 21.3569C54.9063 25.1258 51.3862 21.3035 50.0884 24.0947C48.2751 24.5747 45.0217 25.6058 40.7727 27.3125L39.3327 29.3748C38.5505 28.3614 39.0305 31.5081 37.4838 29.7659C36.8616 29.0725 35.1549 29.6414 35.1904 30.637C35.2082 31.0281 32.8615 31.7037 30.497 32.6993C28.1326 33.6771 25.7503 34.9215 25.8392 36.2193C23.4392 35.206 18.8524 39.5616 15.7413 41.7661Z" fill="#DFE1F3"/>
<path opacity="0.7" d="M54.7461 59.793C51.1905 57.5352 32.4525 64.5042 30.6747 63.9709C29.2524 63.1886 26.7813 44.8595 27.2791 41.9794C27.4568 40.9483 27.8657 40.6994 29.0213 40.9305C30.4613 41.3039 46.586 37.0727 52.0794 35.686C52.4883 36.2016 52.9505 34.1571 53.2528 34.8149C53.875 35.9527 85.1644 29.3926 91.7422 28.3259C93.5556 28.0237 92.2756 29.3037 94.3556 28.6103C98.7646 27.117 108.845 26.8325 112.151 25.4458C114.818 24.3258 115.387 24.2725 118.143 24.6103C120.934 24.9481 135.245 22.6191 136.738 21.2324C137.094 20.8413 137.414 20.948 137.467 21.3569C137.467 21.3569 147.672 20.8947 147.743 21.1613C147.85 21.5702 148.205 21.7302 148.454 21.428C148.934 20.948 159.512 18.5124 159.832 19.6858C160.721 23.0458 160.863 37.606 160.045 41.2327C159.174 45.0906 151.708 41.4639 146.356 44.2195C115.671 47.2773 121.592 46.4595 114.978 48.9306C114.178 47.7751 112.187 51.0818 110.374 49.1084C109.645 48.3084 105.218 48.6995 104.347 49.7306C103.991 50.1573 98.089 50.584 92.0622 51.3129C86.0355 52.0596 79.8843 53.1263 78.942 54.4952C74.4798 53.0018 58.4262 58.5308 54.7461 59.793Z" fill="#DFE1F3"/>
</svg>
