<svg width="894" height="68" viewBox="0 0 894 68" fill="none" xmlns="http://www.w3.org/2000/svg">
<path opacity="0.7" d="M310.014 42.9742C292.933 40.3608 188.455 45.1075 180.51 44.432C173.598 43.5075 174.949 24.965 179.795 22.1383C181.464 21.125 183.847 20.9294 189.727 21.285C196.957 21.8183 293.568 19.2049 314.384 18.7071C316.132 19.2583 320.105 17.2849 321.137 17.9782C322.726 18.7782 370.397 18.1738 419.656 17.5871C437.77 17.3738 474.079 16.8227 528.105 16.5027C537.878 16.4493 530.171 17.5516 541.612 17.1604C566.003 16.3071 619.235 17.5338 637.747 16.6804C652.604 16.0049 655.782 15.9871 669.924 16.7871C682.08 17.4805 761.371 17.7293 770.667 16.6271C772.891 16.3071 774.56 16.4671 774.401 16.876C774.401 16.876 828.586 18.2627 828.745 18.6005C829.063 19.0094 830.572 19.2405 832.241 18.9916C835.101 18.5649 893.417 18.3516 893.894 19.5783C895.324 23.045 881.897 37.3385 874.19 40.7341C866.087 44.3253 831.526 39.2763 800.779 40.983C648.313 38.4941 662.138 39.2052 633.695 40.2897C630.437 39.0274 617.328 41.9786 609.462 39.7563C606.284 38.8497 582.767 38.583 577.523 39.4541C575.299 39.8274 544.154 39.383 512.056 39.2763C479.958 39.1697 446.828 39.4363 440.869 40.663C415.921 38.4941 319.946 42.6542 310.014 42.9742Z" fill="#C3C6E8"/>
<path opacity="0.7" d="M70.2646 51.6319C65.9002 49.9642 42.4235 50.4899 25.0651 50.2321C22.758 50.1933 10.2889 49.8463 8.86525 49.4256C7.50883 48.7073 33.4626 28.6982 34.4487 27.9459C36.5309 26.3744 35.8778 27.4385 37.847 27.7337C38.9297 27.8988 44.2973 27.9818 45.5999 28.0135C52.082 28.0369 61.5505 27.7383 67.9977 27.4745C68.6716 28.0418 69.3968 26.112 69.9254 26.8188C71.3191 28.6961 130.306 25.7387 138.66 25.4997C142.043 25.3999 139.949 26.5156 143.788 26.0366C147.857 25.5198 154.932 25.4405 161.681 25.3532C187.096 24.9875 178.549 23.0314 190.299 24.3801C195.881 24.8978 225.248 24.1381 228.884 22.9601C229.712 22.6116 230.422 22.746 230.414 23.1622C230.406 23.2184 235.718 23.3347 241.239 23.5819C246.759 23.8291 252.15 24.1035 252.228 24.2615C252.294 24.6838 252.894 24.885 253.585 24.6199C254.484 24.1256 279.138 23.4507 278.87 24.6413C278.06 28.061 267.284 42.4065 263.881 45.8585C260.214 49.573 251.366 44.7688 241.608 46.9384C233.262 46.7612 218.026 46.6028 197.572 46.7336L188.344 48.1701C186.632 46.9487 183.778 50.0671 179.987 47.8973C178.451 47.0314 170.415 46.9746 169.024 47.9209C168.494 48.294 157.61 48.1158 146.156 48.2316C134.73 48.3307 122.817 48.6739 121.182 49.9223C112.686 48.141 86.7186 50.6402 70.2646 51.6319Z" fill="#C3C6E8"/>
<path opacity="0.7" d="M723.747 21.1048C737.816 23.9029 825.464 20.0251 832.924 20.8363C838.638 21.8362 836.42 40.3245 832.162 43.0877C830.64 44.077 828.658 44.2572 823.726 43.844C817.641 43.2448 743.481 44.8387 718.255 45.3277C716.821 44.7533 713.318 46.6973 712.456 45.9996C710.525 44.7769 567.803 46.2408 538.022 46.2401C529.806 46.248 536.369 45.1895 526.697 45.5408C506.179 46.3087 461.509 44.975 445.929 45.8141C433.364 46.4926 430.816 46.4541 418.902 45.6793C406.831 44.8988 342.032 44.9055 334.452 46.0351C332.604 46.3642 331.268 46.2077 331.326 45.7955C331.326 45.7955 285.979 44.6174 285.856 44.3427C285.679 43.922 284.225 43.7071 282.91 43.9656C280.449 44.3625 232.043 45.0725 231.472 43.863C229.955 40.404 239.75 26.0089 245.953 22.56C252.558 18.8915 282.9 23.6673 308.478 21.8044C446.028 23.7007 419.327 23.5598 450.27 22.1798C452.972 23.4486 464.122 20.5035 470.709 22.7418C473.352 23.6482 493.159 23.9712 497.74 23.0929C499.614 22.7286 525.956 23.2528 553.064 23.4986C580.184 23.7269 608.083 23.6592 613.219 22.4589C631.835 24.6476 706.61 21.7613 723.747 21.1048Z" fill="#C3C6E8"/>
</svg>
