<svg xmlns="http://www.w3.org/2000/svg" xmlns:xlink="http://www.w3.org/1999/xlink" width="649" height="427" fill="none" xmlns:v="https://vecta.io/nano"><style><![CDATA[.B{fill:#fff}.C{opacity:.64}.D{fill:#bdd0fb}]]></style><path d="M421.24 55.097c-9.519 14.767 10.521 44 50.355 102.108 46.892 68.403 106.067 154.718 151.069 141.186 33.128-9.959 54.112-72.677 44.36-121.015C643.799 62.215 444.249 19.406 421.24 55.097z" fill="url(#A)"/><path d="M627.283 382.48c-1.13 8.108-12.692 32.186-343.047 35.244-171.017 1.584-200.99-4.564-227.714-31.499-57.754-58.208-63.896-176.874-14.125-252.249C109.549 32.283 253.509 47.732 330.387 78.3c8.606 3.422 15.542 6.675 22.242 10.895 119.452 75.267 119.876 154.415 243.362 258.467 21.611 18.214 32.662 24.997 31.292 34.819z" fill="url(#B)"/><path d="M485.13 390.032c-.393 1.312-2.369.779-2.043-.552 6.253-25.544 4.702-14.438 9.943-36.199 13.101-54.406-.613-80.44-1.628-109.23s21.119-62.504 67.736-45.28c38.069 14.065 68.097 24.136 82.765 23.743 2.809-.077 4.526 3.061 2.981 5.407-10.221 15.498-37.111 50.091-72.885 48.887-46.049-1.551-45.219-14.112-56.248-3.134s-11.932 22.919-13.812 45.286c-1.618 19.261-1.736 20.713-16.809 71.072z" class="D"/><path d="M500.037 300.305c-.964-3.6-1.634-7.14-2.154-10.763-.505-3.611-.853-7.25-.942-10.905-.179-7.297.482-14.709 2.637-21.811 1.091-3.54 2.569-6.984 4.497-10.186 1.928-3.195 4.29-6.161 7.087-8.663 2.786-2.506 5.982-4.549 9.282-6.193 1.647-.779 3.279-1.587 4.97-2.273 1.663-.744 3.381-1.372 5.088-2.017 3.448-1.213 6.962-2.247 10.554-2.991 3.594-.718 7.249-1.159 10.91-1.283s7.329.051 10.946.488 7.188 1.108 10.719 1.867c7.058 1.539 13.984 3.368 21.02 4.568 7.022 1.242 14.169 1.708 21.294 1.315h.003a.61.61 0 0 1 .083 1.217c-7.211.593-14.504.312-21.664-.757-7.17-1.028-14.18-2.774-21.189-4.147-7.004-1.385-14.068-2.304-21.107-1.953-3.514.166-7.009.635-10.45 1.369-3.438.76-6.812 1.801-10.126 3.017-1.644.645-3.294 1.273-4.903 2.017-1.628.687-3.208 1.494-4.801 2.273-3.106 1.586-5.998 3.457-8.551 5.775-5.101 4.638-8.593 10.846-10.585 17.495-2.034 6.662-2.707 13.752-2.548 20.797a101.95 101.95 0 0 0 .805 10.566c.453 3.495 1.088 7.032 1.941 10.383l.012.055c.201.782-.274 1.58-1.056 1.781-.773.198-1.564-.268-1.772-1.041z" fill="url(#C)"/><path opacity=".5" d="M510.714 391.615c1.191-.182 2.433-.552 3.617-.967a32.71 32.71 0 0 0 3.505-1.459c2.279-1.11 4.488-2.371 6.588-3.801 4.227-2.825 8.111-6.145 11.773-9.685 7.306-7.128 13.592-15.252 19.561-23.641 3.007-4.181 5.963-8.427 9.18-12.526 3.218-4.079 6.777-8.04 11.15-11.086 2.18-1.516 4.565-2.764 7.083-3.629 2.516-.878 5.156-1.344 7.786-1.488 5.28-.274 10.476.677 15.456 2.088.182.051.284.239.233.418a.34.34 0 0 1-.399.24h-.006c-5.009-1.086-10.138-1.833-15.182-1.341-2.512.252-4.98.795-7.319 1.666s-4.539 2.101-6.557 3.582c-4.054 2.968-7.358 6.885-10.451 10.942-3.102 4.064-5.969 8.348-8.957 12.571-2.975 4.229-6.046 8.417-9.298 12.478-.827 1.005-1.686 1.985-2.528 2.981-.846.989-1.68 1.992-2.586 2.93l-2.675 2.854-2.822 2.716c-3.814 3.566-7.926 6.848-12.42 9.558-2.228 1.382-4.594 2.55-7.029 3.527-2.452.957-4.948 1.771-7.664 1.957-.243.016-.451-.166-.47-.409-.016-.23.147-.428.371-.463l.06-.013z" class="B"/><path d="M151.961 389.295s-38.873 26.973-62.852 2.738c-22.29-22.529-22.099-46.949-45.538-52.241-2.701-.61-3.754-3.92-1.931-6.001 7.259-8.293 25.141-22.712 56.194-12.456 42.123 13.911 54.128 67.96 54.128 67.96z" class="D"/><path d="M148.919 388.132c-2.509.003-4.845-.587-7.153-1.312-2.295-.744-4.536-1.666-6.662-2.796-4.287-2.206-8.255-4.964-11.967-7.999l-2.752-2.318-2.624-2.455c-.89-.804-1.711-1.672-2.547-2.528l-2.493-2.579c-3.221-3.524-6.282-7.179-9.257-10.875-2.985-3.687-5.861-7.444-8.938-10.975-3.064-3.53-6.317-6.917-10.189-9.391-1.928-1.235-4.006-2.228-6.193-2.889s-4.472-1.012-6.78-1.098c-4.638-.156-9.286.821-13.809 2.101h-.006a.34.34 0 0 1-.418-.233.34.34 0 0 1 .214-.412c4.472-1.603 9.174-2.793 14.036-2.864 2.423-.028 4.871.233 7.233.888 2.365.641 4.629 1.641 6.723 2.898 4.198 2.528 7.706 5.947 10.898 9.49 3.195 3.563 6.157 7.272 9.161 10.917 5.966 7.32 12.2 14.374 19.3 20.465 3.559 3.023 7.303 5.832 11.328 8.172 2.005 1.184 4.096 2.212 6.241 3.099a31.13 31.13 0 0 0 3.288 1.133c1.104.313 2.266.584 3.358.683l.051.004c.242.022.418.236.396.475a.44.44 0 0 1-.438.399z" fill="url(#D)"/><path d="M183.567 212.558s-2.235-38.816-20.924-47.732-53.142-12.634-58.946-68.157c-3.396-32.508-5.362-46.681-6.409-52.845-.409-2.404 1.587-4.536 4.009-4.281 17.157 1.807 73.124 10.438 87.687 46.972 17.266 43.31-5.417 126.043-5.417 126.043z" class="D"/><path d="M115.725 53.833c5.647 4.223 10.815 8.925 15.849 13.806l1.874 1.842 1.832 1.883 3.626 3.802c2.401 2.554 4.683 5.216 6.988 7.859 2.231 2.704 4.488 5.391 6.591 8.2 2.171 2.758 4.211 5.615 6.254 8.472 3.961 5.81 7.846 11.629 11.198 17.886l2.502 4.698 2.196 4.846 1.095 2.423.951 2.48 1.868 4.973 1.589 5.063.789 2.531.657 2.567 1.284 5.142 1.043 5.19c2.561 13.889 3.467 27.995 2.114 42.114a1.52 1.52 0 0 1-1.654 1.366c-.801-.077-1.398-.766-1.369-1.561l.003-.096c.246-6.783.029-13.732-.616-20.56-.613-6.85-1.654-13.646-3.01-20.366l-1.111-5.018-1.312-4.963-.658-2.481-.785-2.441-1.574-4.881-1.832-4.782-.91-2.394-1.05-2.333-2.097-4.667-2.394-4.514c-1.529-3.029-3.396-5.95-5.136-8.915-.862-1.491-1.845-2.905-2.765-4.364-.948-1.436-1.832-2.918-2.831-4.319-3.824-5.733-7.939-11.268-12.171-16.72l-6.582-7.993c-1.099-1.331-2.241-2.627-3.39-3.92l-1.715-1.944-1.758-1.906c-4.664-5.091-9.538-10.046-14.649-14.652l-.025-.022a.86.86 0 0 1-.064-1.216c.3-.335.804-.377 1.155-.115z" fill="url(#E)"/><path d="M188.342 385.58c3.645 2.084-32.592-49.938-39.988-128.495-3.485-37.019-.648-82.943-20.4-101.962-16.44-15.829-76.157-10.285-95.728-7.98-2.445.287-3.454 3.291-1.673 4.989 8.781 8.38 27.461 28.021 31.458 46.87 5.267 24.847 27.49 41.848 48.003 47.37s31.812 10.333 39.825 44.208c8.015 33.868 28.147 89.078 38.503 95z" class="D"/><path d="M58.775 159.241c12.439 1.36 24.563 5.251 35.554 11.377a73.79 73.79 0 0 1 15.207 11.182c4.539 4.402 8.533 9.423 11.594 14.987l1.136 2.091c.374.699.683 1.43 1.028 2.145.326.718.68 1.443.98 2.158l.9 2.148 3.566 8.612c2.336 5.759 4.58 11.552 6.732 17.384 4.309 11.658 8.248 23.449 11.45 35.483.083.316-.105.642-.422.725-.303.08-.616-.089-.715-.383l-.006-.019c-1.944-5.864-3.996-11.715-6.161-17.515l-6.604-17.359-3.422-8.631-3.518-8.593-3.581-8.568-.907-2.139c-.3-.715-.635-1.378-.951-2.071-.326-.683-.613-1.386-.967-2.056l-1.076-2.001c-2.879-5.341-6.7-10.122-10.974-14.432-2.187-2.107-4.45-4.149-6.902-5.963l-.906-.695-.932-.661-1.871-1.322c-1.277-.833-2.547-1.685-3.872-2.451-5.238-3.164-10.863-5.685-16.637-7.789-5.771-2.097-11.769-3.712-17.825-4.696l-.032-.006c-.259-.041-.434-.287-.393-.546.048-.252.278-.424.527-.396z" fill="url(#F)"/><path d="M153.737 391.566c2.237 1.178-12.603-24.359-13.739-46.86s-6.215-60.905-25.62-83.878-40.651-25.068-67.426-4.185c-22.313 17.403-36.23 26.188-44.392 27.819-2.021.405-3.052 2.685-2.068 4.498 5.235 9.64 20.037 31.786 44.887 30.226 31.701-1.989 70.117-22.597 81.826-5.405s10.205 26.811 10.566 34.957 1.162 35.024 15.967 42.828z" class="D"/><path d="M55.992 284.276c1.749-1.682 3.604-3.192 5.516-4.65l5.944-4.106c4.096-2.544 8.475-4.714 13.142-6.211 2.333-.741 4.74-1.309 7.201-1.625 2.461-.3 4.98-.342 7.479-.032.622.102 1.251.16 1.867.297.613.143 1.245.262 1.839.431l3.502 1.088 3.428 1.335 3.323 1.599c4.358 2.295 8.297 5.404 11.575 9.059 3.304 3.645 5.88 7.846 7.999 12.194l.795 1.634c.271.54.469 1.114.709 1.666l1.353 3.358 1.172 3.416c.415 1.13.676 2.305 1.012 3.457 1.318 4.619 2.228 9.324 3 14.036.048.287-.147.558-.434.606-.274.045-.533-.128-.597-.393l-.003-.015c-1.133-4.607-2.212-9.222-3.757-13.685-.702-2.254-1.587-4.434-2.41-6.633-.444-1.085-.948-2.145-1.421-3.218-.249-.53-.456-1.079-.737-1.593l-.817-1.551c-2.164-4.137-4.792-8.006-7.917-11.393-3.131-3.383-6.843-6.173-10.907-8.315l-3.119-1.478-3.23-1.235-3.32-1.009c-.552-.156-1.089-.258-1.631-.393-.543-.127-1.101-.181-1.653-.277-2.222-.291-4.494-.275-6.754-.019-2.263.239-4.517.715-6.732 1.359-4.437 1.287-8.724 3.208-12.845 5.446-2.052 1.137-4.089 2.321-6.065 3.604-1.969 1.286-3.92 2.643-5.778 4.067l-.013.009a.55.55 0 0 1-.769-.102c-.172-.22-.147-.536.054-.728z" fill="url(#G)"/><path d="M138.765 259.118l3.894 121.064c.68 21.109 18.004 37.909 39.225 38.033l289.909 1.708c14.182.083 26.264-10.221 28.336-24.186 4.533-30.574 10.31-85.277 3.805-136.622H138.765v.003z" fill="url(#H)"/><path d="M461.521 412.49l-2.114-.013c-.194 0-.351-.16-.351-.354s.16-.351.351-.351l2.117.012c.195 0 .351.16.351.355s-.163.351-.354.351zm4.925-.035c-.185 0-.338-.144-.351-.329a.35.35 0 0 1 .329-.374l2.071-.207c.192-.032.371.108.396.3s-.108.37-.3.396l-2.126.214zm-11.964-.007l-2.113-.012c-.195 0-.351-.16-.351-.355a.35.35 0 0 1 .351-.351l2.116.013c.195 0 .351.159.351.354s-.162.351-.354.351zm-7.042-.041l-2.113-.013c-.195 0-.351-.16-.351-.354s.16-.351.351-.351l2.116.012c.195 0 .352.16.352.355s-.16.351-.355.351zm-7.038-.042l-2.113-.012c-.195 0-.352-.16-.352-.355s.189-.341.355-.351l2.113.013c.195 0 .351.159.351.354s-.16.351-.354.351zm-7.039-.041l-2.113-.013c-.195 0-.351-.16-.351-.354s.16-.351.351-.351l2.116.012c.195 0 .351.16.351.355s-.159.351-.354.351zm-7.038-.042l-2.114-.012c-.194 0-.351-.16-.351-.355s.189-.354.355-.351l2.113.013c.195 0 .351.159.351.354s-.16.351-.354.351zm-7.039-.041l-2.113-.013c-.195 0-.351-.16-.351-.354a.35.35 0 0 1 .351-.351l2.113.012c.195 0 .351.16.351.355s-.159.351-.351.351zm-7.039-.042l-2.113-.012c-.194 0-.351-.16-.351-.355s.16-.351.351-.351l2.117.013c.194 0 .351.159.351.354s-.163.351-.355.351zm-7.041-.041l-2.113-.013c-.195 0-.352-.16-.352-.354s.16-.351.352-.351l2.116.012c.195 0 .351.16.351.355s-.16.351-.354.351zm-7.039-.042l-2.113-.012c-.195 0-.351-.16-.351-.355s.16-.351.351-.351l2.116.013c.195 0 .352.159.352.354s-.16.351-.355.351zm-7.038-.041l-2.114-.013c-.194 0-.351-.16-.351-.354s.16-.351.351-.351l2.117.012c.195 0 .351.16.351.355s-.16.351-.354.351zm-7.039-.042l-2.113-.012c-.195 0-.351-.16-.351-.355s.159-.351.351-.351l2.113.013c.195 0 .351.159.351.354a.35.35 0 0 1-.351.351zm-7.038-.041l-2.114-.013c-.194 0-.351-.16-.351-.354s.16-.351.351-.351l2.117.012c.194 0 .351.16.351.355s-.16.351-.354.351zm-7.039-.042l-2.113-.012c-.195 0-.351-.16-.351-.355s.159-.351.351-.351l2.116.013c.195 0 .351.16.351.354s-.163.351-.354.351zm-7.039-.041l-2.113-.013c-.194 0-.351-.16-.351-.354s.16-.351.351-.351l2.113.012c.195 0 .352.16.352.355s-.16.351-.352.351zm-7.041-.042l-2.114-.012c-.194 0-.351-.16-.351-.355s.182-.329.355-.351l2.113.013c.195 0 .351.16.351.354s-.16.351-.354.351zm-7.039-.041l-2.113-.013c-.195 0-.351-.16-.351-.354a.35.35 0 0 1 .351-.351l2.116.012c.195 0 .351.16.351.355s-.159.351-.354.351zm-7.038-.042l-2.114-.012c-.194 0-.351-.16-.351-.355s.182-.341.355-.351l2.113.013c.194 0 .351.16.351.354s-.16.351-.354.351zm-7.039-.041l-2.113-.013c-.195 0-.351-.16-.351-.354a.35.35 0 0 1 .351-.351l2.116.012c.195 0 .351.16.351.355s-.159.351-.354.351zm-7.039-.042l-2.113-.012c-.194 0-.351-.16-.351-.355s.179-.357.354-.351l2.114.013c.194 0 .351.16.351.354s-.163.351-.355.351zm-7.038-.041l-2.113-.013c-.195 0-.351-.16-.351-.354a.35.35 0 0 1 .351-.351l2.116.012c.195 0 .351.16.351.355s-.163.351-.354.351zm-7.039-.042l-2.113-.012c-.195 0-.351-.16-.351-.355s.16-.351.351-.351l2.116.013c.195 0 .352.16.352.354a.36.36 0 0 1-.355.351zm-7.041-.041l-2.114-.013c-.194 0-.351-.16-.351-.354s.16-.351.351-.351l2.114.012c.194 0 .351.16.351.355a.35.35 0 0 1-.351.351zm-7.039-.042l-2.113-.012c-.195 0-.351-.16-.351-.355s.159-.351.351-.351l2.116.013c.195 0 .351.16.351.354s-.159.351-.354.351zm-7.039-.041l-2.113-.013c-.194 0-.351-.159-.351-.354s.16-.351.351-.351l2.117.012c.194 0 .351.16.351.355s-.16.351-.355.351zm-7.038-.042l-2.113-.012c-.195 0-.351-.16-.351-.355s.159-.351.351-.351l2.113.013c.195 0 .351.16.351.354s-.16.351-.351.351zm-7.039-.041l-2.113-.013c-.195 0-.351-.159-.351-.354s.16-.351.351-.351l2.116.012c.195 0 .352.16.352.355s-.163.351-.355.351zm-7.038-.042l-2.113-.012c-.195 0-.352-.16-.352-.355s.16-.351.352-.351l2.116.013c.195 0 .351.16.351.354-.006.195-.163.351-.354.351zm-7.042-.041l-2.113-.013c-.195 0-.351-.159-.351-.354a.35.35 0 0 1 .351-.351l2.116.012c.195 0 .351.16.351.355s-.159.351-.354.351zm-7.039-.042l-2.113-.012c-.194 0-.351-.16-.351-.355s.176-.328.354-.351l2.114.013c.194 0 .351.16.351.354s-.16.351-.355.351zm-7.038-.041l-2.113-.013c-.195 0-.351-.159-.351-.354a.35.35 0 0 1 .351-.351l2.116.012c.195 0 .351.16.351.355s-.159.351-.354.351zm-7.039-.042l-2.113-.012c-.195 0-.351-.16-.351-.355s.172-.344.354-.351l2.114.013c.194 0 .351.16.351.354s-.16.351-.355.351zm-7.038-.041l-2.113-.013c-.195 0-.352-.159-.352-.354s.16-.351.352-.351l2.116.012c.195 0 .351.16.351.355s-.163.351-.354.351zm237.064-.038c-.147 0-.285-.093-.336-.24a.35.35 0 0 1 .224-.443l1.95-.735c.179-.073.386.01.463.189s-.01.386-.188.463l-2.002.753c-.035.006-.073.013-.111.013zm-244.103-.004l-2.113-.012c-.195 0-.351-.16-.351-.355s.172-.357.354-.351l2.113.013c.195 0 .352.16.352.354s-.163.351-.355.351zm-7.038-.041l-2.114-.013c-.194 0-.351-.159-.351-.354s.16-.351.351-.351l2.117.012c.195 0 .351.16.351.355a.36.36 0 0 1-.354.351zm-7.042-.042l-2.113-.012c-.195 0-.351-.16-.351-.355s.159-.351.351-.351l2.116.013c.195 0 .351.16.351.354s-.159.351-.354.351zm-7.039-.041l-2.113-.013c-.195 0-.351-.159-.351-.354s.16-.351.351-.351l2.117.012c.194 0 .351.16.351.355s-.16.351-.355.351zm-7.038-.042l-2.113-.012c-.195 0-.352-.16-.352-.355s.16-.351.352-.351l2.116.013c.195 0 .351.16.351.354s-.16.351-.354.351zm-7.039-.041l-2.113-.013c-.195 0-.351-.159-.351-.354s.16-.351.351-.351l2.116.012c.195 0 .352.16.352.355s-.163.351-.355.351zm-7.038-.08l-2.142-.166c-.195-.019-.332-.195-.313-.386s.188-.335.386-.313l2.085.163c.194.009.344.175.335.37-.01.185-.166.332-.351.332zm-6.956-1.002c-.029 0-.054-.003-.083-.01l-2.056-.558c-.185-.058-.29-.253-.236-.438s.252-.29.437-.236l2.018.546a.35.35 0 0 1 .258.424c-.035.163-.178.272-.338.272zm299.613-1.765c-.115 0-.227-.058-.294-.16-.105-.163-.06-.38.102-.488l1.699-1.21c.153-.118.373-.09.494.064a.35.35 0 0 1-.064.494l-1.739 1.242c-.064.042-.131.058-.198.058zm-306.259-.514c-.048 0-.099-.01-.143-.032l-1.916-.929c-.172-.09-.239-.303-.15-.476s.3-.239.476-.15l1.877.913a.35.35 0 0 1 .175.466c-.057.131-.185.208-.319.208zm-6.1-3.477a.34.34 0 0 1-.201-.063l-1.708-1.271a.35.35 0 0 1-.057-.495c.121-.153.341-.178.495-.057l1.675 1.248c.16.112.198.332.087.492-.071.092-.182.146-.291.146zm317.68-.584a.35.35 0 0 1-.236-.089c-.144-.131-.157-.351-.026-.498l1.328-1.602c.118-.154.339-.186.495-.068s.185.339.067.495l-1.363 1.647c-.07.077-.166.115-.265.115zm-323.03-3.971c-.092 0-.182-.035-.252-.105l-1.443-1.567a.35.35 0 1 1 .53-.46l1.417 1.539a.35.35 0 0 1-.006.498.37.37 0 0 1-.246.095zm326.998-1.816c-.054 0-.109-.013-.16-.038-.172-.09-.242-.3-.153-.473l.868-1.893c.074-.178.281-.265.46-.191s.265.281.191.46l-.89 1.94c-.064.125-.188.195-.316.195zm-331.413-3.652a.35.35 0 0 1-.293-.156l-1.127-1.81a.35.35 0 0 1 .61-.354l1.107 1.778a.35.35 0 0 1-.099.488c-.063.035-.13.054-.198.054zm333.74-2.968c-.026 0-.048-.004-.074-.007-.191-.038-.312-.226-.271-.415l.281-1.573.07-.486a.35.35 0 1 1 .696.103l-.073.485-.291 1.615c-.028.166-.175.278-.338.278zm-337.053-3.234c-.137 0-.268-.08-.326-.217l-.766-1.992c-.063-.182.032-.383.214-.45s.383.032.45.214l.754 1.953c.073.179-.01.387-.189.46-.048.026-.092.032-.137.032zm338.109-3.725c-.016 0-.031 0-.047-.003-.192-.026-.326-.205-.3-.396l.287-2.091a.35.35 0 1 1 .696.096l-.288 2.094c-.025.172-.175.3-.348.3zm-340.197-2.991c-.162 0-.309-.115-.344-.281l-.377-2.097c-.029-.192.105-.37.297-.399s.37.105.399.297l.367 2.059c.038.191-.083.376-.271.415l-.071.006zm341.126-3.987c-.016 0-.028 0-.044-.003-.192-.026-.329-.201-.307-.393l.262-2.094c.022-.191.201-.332.393-.306s.328.201.306.392l-.262 2.098c-.022.175-.175.306-.348.306zm-341.911-2.997c-.188 0-.345-.15-.351-.342l-.067-2.11c-.006-.195.147-.357.342-.364.194-.019.357.147.363.342l.068 2.11c.006.194-.147.357-.342.364zm342.76-3.994c-.012 0-.028 0-.041-.003a.35.35 0 0 1-.31-.389l.24-2.097c.022-.195.198-.329.389-.31a.35.35 0 0 1 .31.389l-.24 2.101a.35.35 0 0 1-.348.309zm-342.986-3.042c-.189 0-.345-.15-.352-.341l-.067-2.11c-.006-.195.147-.358.342-.364.191-.013.357.147.364.341l.067 2.11c.006.195-.147.358-.342.364zm343.756-3.955c-.013 0-.026 0-.039-.003a.35.35 0 0 1-.312-.386l.217-2.101c.019-.191.191-.332.386-.316s.335.192.316.387l-.217 2.103c-.019.182-.173.316-.351.316zm-343.98-3.08c-.188 0-.345-.15-.351-.342l-.067-2.11c-.006-.194.147-.357.342-.364.165-.025.357.147.363.342l.067 2.11c.007.195-.146.358-.341.364zm344.669-3.926h-.032c-.194-.02-.335-.189-.319-.383l.192-2.104c.016-.195.182-.338.383-.319.194.016.335.188.319.383l-.192 2.103a.35.35 0 0 1-.351.32zm-344.896-3.109c-.188 0-.344-.15-.351-.342l-.067-2.11c-.006-.195.147-.358.342-.364.169-.025.357.147.364.342l.067 2.11c.006.194-.147.357-.342.364zm345.506-3.908h-.029a.35.35 0 0 1-.322-.379l.166-2.104c.016-.195.175-.338.376-.322a.35.35 0 0 1 .323.376l-.166 2.107c-.013.185-.166.322-.348.322zm-345.732-3.128c-.188 0-.345-.15-.351-.341l-.067-2.11c-.007-.195.147-.358.341-.364.189-.01.358.147.364.341l.067 2.11c.007.195-.147.358-.341.364zm346.255-3.891h-.025c-.195-.013-.342-.182-.329-.377l.141-2.106c.012-.195.175-.336.373-.329a.35.35 0 0 1 .329.373l-.141 2.107c-.009.188-.162.332-.348.332zm-346.482-3.144c-.188 0-.345-.15-.351-.342l-.067-2.11c-.006-.194.147-.357.342-.364.185-.022.357.147.363.342l.068 2.11c.006.195-.147.357-.342.364zm346.92-3.882c-.214-.009-.361-.175-.351-.37l.115-2.107c.009-.195.175-.345.37-.332a.35.35 0 0 1 .332.37l-.115 2.11c-.01.182-.166.329-.351.329zm-347.146-3.154c-.189 0-.345-.15-.352-.341l-.067-2.11c-.006-.195.147-.358.342-.364.185-.016.357.147.364.342l.067 2.11c.006.194-.147.357-.342.363zm347.494-3.878c-.211-.01-.361-.172-.351-.367l.086-2.11c.006-.195.175-.354.364-.338.194.006.344.172.338.363l-.086 2.114c-.007.188-.163.338-.351.338zm-347.721-3.157c-.188 0-.345-.15-.351-.341l-.067-2.11c-.007-.195.147-.358.341-.364.173-.023.358.146.364.341l.067 2.11c.007.195-.147.358-.341.364zm347.976-3.878c-.204-.007-.357-.17-.351-.361l.057-2.11a.35.35 0 0 1 .703.019l-.058 2.113c-.006.185-.163.339-.351.339zm-348.203-3.157c-.188 0-.344-.15-.351-.342l-.067-2.11c-.006-.195.147-.357.342-.364.172-.019.357.147.364.342l.067 2.11c.006.195-.147.357-.342.364zm348.359-3.882c-.201-.003-.354-.163-.354-.357l.029-2.11c.003-.195.185-.342.354-.348.195.003.351.162.348.354l-.029 2.113a.35.35 0 0 1-.348.348zm-348.582-3.154c-.188 0-.345-.15-.351-.341l-.067-2.11c-.007-.195.147-.358.341-.364.173-.019.358.147.364.341l.067 2.11c.007.195-.147.358-.341.364zm348.637-3.888a.35.35 0 0 1-.351-.351v-.169l-.004-1.938c0-.194.157-.351.352-.354a.35.35 0 0 1 .351.351l.003 1.941v.169c.003.195-.157.351-.351.351zm-348.864-3.147c-.188 0-.345-.15-.351-.342l-.067-2.11c-.006-.194.147-.357.342-.363.194-.026.357.146.363.341l.068 2.11c.006.195-.147.358-.342.364zm348.813-3.888a.35.35 0 0 1-.351-.348l-.039-2.107c-.003-.194.15-.354.345-.36.166-.013.354.15.361.344l.038 2.113c.003.195-.153.355-.348.358zm-349.039-3.147c-.189 0-.345-.15-.352-.342l-.067-2.11c-.006-.195.147-.357.342-.364a.36.36 0 0 1 .364.342l.067 2.11c.006.194-.147.357-.342.364zm348.873-3.888a.35.35 0 0 1-.351-.342l-.074-2.107c-.006-.194.144-.357.339-.364.197-.016.357.144.363.339l.074 2.113c.006.195-.147.357-.342.364zm-349.1-3.148c-.188 0-.345-.15-.351-.341l-.067-2.11c-.007-.195.147-.358.341-.364a.35.35 0 0 1 .364.341l.067 2.11c.007.195-.147.358-.341.364zm348.816-3.885c-.186 0-.342-.146-.352-.335l-.108-2.107a.35.35 0 0 1 .332-.37c.188-.006.361.137.37.332l.109 2.11c.009.195-.141.361-.335.37zm-349.043-3.15c-.188 0-.344-.15-.351-.342l-.067-2.11c-.006-.194.147-.357.342-.364.201.004.357.147.364.342l.067 2.11c.006.195-.147.357-.342.364zm348.634-3.875c-.182 0-.338-.144-.351-.329l-.15-2.104a.35.35 0 0 1 .325-.376c.205-.013.364.13.377.325l.15 2.107c.013.195-.134.361-.329.377h-.022zm-348.86-3.161a.35.35 0 0 1-.351-.341l-.068-2.11c-.006-.195.147-.358.342-.364.176-.029.358.147.364.342l.067 2.11c.006.194-.147.357-.342.363zm348.314-3.859a.35.35 0 0 1-.351-.322l-.192-2.101c-.019-.194.125-.363.316-.383s.364.125.384.32l.191 2.106c.016.195-.128.364-.319.383-.01-.003-.019-.003-.029-.003zm-348.541-3.179c-.188 0-.345-.15-.351-.342l-.067-2.11c-.007-.194.147-.357.341-.364a.36.36 0 0 1 .364.342l.067 2.11c.007.195-.147.358-.341.364zm347.852-3.824c-.179 0-.329-.134-.351-.313l-.237-2.097a.35.35 0 0 1 .31-.39c.198-.025.367.115.389.31l.237 2.1c.022.195-.119.367-.313.39-.01-.003-.023 0-.035 0zm-348.079-3.211c-.188 0-.344-.15-.351-.342l-.08-2.474h1.277a.35.35 0 1 1 0 .702h-.549l.058 1.746c.006.195-.147.358-.342.364zm345.768-2.11h-2.114a.35.35 0 0 1 0-.703h2.114a.35.35 0 0 1 0 .703zm-7.039 0h-2.113a.35.35 0 0 1 0-.703h2.113a.35.35 0 0 1 0 .703zm-7.039 0h-2.113a.35.35 0 0 1 0-.703h2.113a.35.35 0 1 1 0 .703zm-7.041 0h-2.113a.35.35 0 1 1 0-.703h2.113a.35.35 0 0 1 0 .703zm-7.039 0h-2.113a.35.35 0 0 1 0-.703h2.113a.35.35 0 0 1 0 .703zm-7.038 0h-2.114a.35.35 0 0 1 0-.703h2.114a.35.35 0 0 1 0 .703zm-7.039 0h-2.113a.35.35 0 0 1 0-.703h2.113a.35.35 0 0 1 0 .703zm-7.039 0h-2.113a.35.35 0 0 1 0-.703h2.113a.35.35 0 1 1 0 .703zm-7.041 0h-2.113a.35.35 0 1 1 0-.703h2.113a.35.35 0 0 1 0 .703zm-7.039 0h-2.113a.35.35 0 0 1 0-.703h2.113a.35.35 0 0 1 .351.351c.003.195-.156.352-.351.352zm-7.038 0h-2.114a.35.35 0 0 1 0-.703h2.114a.35.35 0 0 1 0 .703zm-7.039 0h-2.113a.35.35 0 0 1 0-.703h2.113a.35.35 0 0 1 0 .703zm-7.039 0h-2.113a.35.35 0 0 1 0-.703h2.113a.35.35 0 1 1 0 .703zm-7.041 0h-2.113a.35.35 0 1 1 0-.703h2.113a.35.35 0 0 1 0 .703zm-7.039 0h-2.113a.35.35 0 0 1 0-.703h2.113a.35.35 0 0 1 .351.351c.004.195-.156.352-.351.352zm-7.038 0h-2.114a.35.35 0 0 1 0-.703h2.114a.35.35 0 0 1 0 .703zm-7.039 0h-2.113a.35.35 0 0 1 0-.703h2.113a.35.35 0 0 1 0 .703zm-7.039 0h-2.113a.35.35 0 0 1 0-.703h2.113a.35.35 0 1 1 0 .703zm-7.038 0h-2.113a.35.35 0 0 1 0-.703h2.113a.35.35 0 0 1 .351.351c0 .195-.16.352-.351.352zm-7.042 0h-2.113a.35.35 0 0 1 0-.703h2.113a.35.35 0 0 1 .351.351c.004.195-.156.352-.351.352zm-7.038 0h-2.114a.35.35 0 0 1 0-.703h2.114a.35.35 0 0 1 0 .703zm-7.039 0h-2.113a.35.35 0 0 1 0-.703h2.113a.35.35 0 0 1 0 .703zm-7.038 0h-2.114a.35.35 0 0 1 0-.703h2.114a.35.35 0 0 1 0 .703zm-7.039 0h-2.113a.35.35 0 0 1 0-.703h2.113a.35.35 0 0 1 0 .703zm-7.042 0h-2.113a.35.35 0 0 1 0-.703h2.113a.35.35 0 0 1 .351.351c.004.195-.156.352-.351.352zm-7.038 0h-2.114a.35.35 0 0 1 0-.703h2.114a.35.35 0 0 1 0 .703zm-7.039 0h-2.113a.35.35 0 0 1 0-.703h2.113a.35.35 0 0 1 0 .703zm-7.038 0h-2.114a.35.35 0 0 1 0-.703h2.114a.35.35 0 0 1 0 .703zm-7.039 0h-2.113a.35.35 0 0 1 0-.703h2.113a.35.35 0 0 1 0 .703zm-7.042 0h-2.113a.35.35 0 0 1 0-.703h2.113a.35.35 0 0 1 .351.351c.004.195-.156.352-.351.352zm-7.038 0h-2.114a.35.35 0 0 1 0-.703h2.114a.35.35 0 0 1 0 .703zm-7.039 0h-2.113a.35.35 0 0 1 0-.703h2.113a.35.35 0 0 1 0 .703zm-7.038 0h-2.114a.35.35 0 0 1 0-.703h2.114a.35.35 0 0 1 0 .703zm-7.039 0h-2.113a.35.35 0 0 1 0-.703h2.113a.35.35 0 0 1 0 .703zm-7.042 0h-2.113a.35.35 0 0 1 0-.703h2.113a.35.35 0 0 1 .351.351c.004.195-.156.352-.351.352zm-7.038 0h-2.113a.35.35 0 1 1 0-.703h2.113a.35.35 0 0 1 0 .703zm-7.039 0h-2.113a.35.35 0 0 1 0-.703h2.113a.35.35 0 0 1 0 .703zm-7.038 0h-2.114a.35.35 0 0 1 0-.703h2.114a.35.35 0 0 1 0 .703zm-7.039 0h-2.113a.35.35 0 0 1 0-.703h2.113a.35.35 0 0 1 0 .703zm-7.042 0h-2.113a.35.35 0 0 1 0-.703h2.113a.35.35 0 0 1 .351.351c.004.195-.156.352-.351.352zm-7.038 0h-2.113a.35.35 0 1 1 0-.703h2.113a.35.35 0 0 1 0 .703zm-7.039 0h-2.113a.35.35 0 0 1 0-.703h2.113a.35.35 0 0 1 0 .703zm-7.038 0h-2.114a.35.35 0 0 1 0-.703h2.114a.35.35 0 0 1 0 .703zm-7.039 0h-2.113a.35.35 0 0 1 0-.703h2.113a.35.35 0 0 1 0 .703zm-7.039 0h-2.113a.35.35 0 0 1 0-.703h2.113a.35.35 0 0 1 .352.351c0 .195-.16.352-.352.352zm-7.041 0h-2.113a.35.35 0 1 1 0-.703h2.113a.35.35 0 0 1 0 .703zm-7.039 0h-2.113a.35.35 0 0 1 0-.703h2.113a.35.35 0 0 1 0 .703zm-7.038 0h-2.114a.35.35 0 0 1 0-.703h2.114a.35.35 0 0 1 0 .703zm-7.039 0H153.5a.35.35 0 0 1 0-.703h2.113a.35.35 0 0 1 0 .703z" class="B"/><path d="M223.726 171.231l.872-9.337c.983-2.228 3.029-3.808 5.445-4.191 9.031-1.437 31.433-3.965 42.216 4.095l1.612 10.85-50.145-1.417z" fill="url(#I)"/><path d="M251.941 162.248c-2.079.507-4.163.504-6.251-.006-2.525-.62-4.306-2.88-4.306-5.469v-29.236h14.879v29.214a5.67 5.67 0 0 1-4.322 5.497z" fill="url(#J)"/><path d="M367.836 171.231l.871-9.337a7.18 7.18 0 0 1 5.446-4.191c9.034-1.437 31.433-3.965 42.215 4.095l1.612 10.85-50.144-1.417z" fill="url(#K)"/><path d="M396.051 162.248a12.98 12.98 0 0 1-6.25-.007c-2.525-.619-4.306-2.879-4.306-5.468v-32.316h14.878v32.294a5.67 5.67 0 0 1-4.322 5.497z" fill="url(#L)"/><path d="M239.875 134.704l160.006-5.296c3.649-.121 6.745-2.752 7.371-6.333.878-5.009 1.65-12.507.498-20.283-1.309-8.839-8.916-15.408-17.889-15.619-29.849-.712-105.84-.689-147.72 15.878a14.62 14.62 0 0 0-8.836 10.147c-1.069 4.399-1.781 10.273-.383 16.248.738 3.176 3.677 5.366 6.953 5.258z" fill="url(#M)"/><path d="M237.104 126.385a.7.7 0 0 1-.699-.632c-.026-.252-.607-6.269.957-12.059 1.191-4.399 4.674-7.939 9.085-9.232 8.915-2.614 25.948-7.061 39.866-7.454.389-.01.712.294.725.683a.71.71 0 0 1-.684.725c-13.757.386-30.66 4.801-39.508 7.396-3.949 1.159-7.061 4.319-8.124 8.252-1.497 5.532-.922 11.488-.916 11.549.038.386-.243.731-.629.769-.025.003-.051.003-.073.003z" class="B"/><path d="M149.487 167.595c51.693-.661 275.318-3.01 340.274 4.826 5.592.674 10.157 4.766 11.367 10.244 3.837 17.352 11.562 57.662 10.646 97.62-.125 5.44-4.112 10.027-9.481 11.042l-148.276 28.052h-52.669l-157.989-31.404c-5.571-1.108-9.676-5.822-9.963-11.469-1.028-20.104-2.633-67.27 2.806-97.633 1.152-6.452 6.703-11.195 13.285-11.278z" fill="url(#N)"/><path d="M352.801 306.952h-2.113a.35.35 0 1 1 0-.702h2.113a.35.35 0 1 1 0 .702zm-7.042 0h-2.113a.35.35 0 1 1 0-.702h2.113a.35.35 0 0 1 .351.351c.004.195-.156.351-.351.351zm-7.038 0h-2.114a.35.35 0 1 1 0-.702h2.114a.35.35 0 0 1 .351.351c.003.195-.157.351-.351.351zm-7.039 0h-2.113a.35.35 0 1 1 0-.702h2.113a.35.35 0 1 1 0 .702zm-7.039 0h-2.113a.35.35 0 1 1 0-.702h2.113a.35.35 0 1 1 0 .702zm-7.038 0h-2.113a.35.35 0 1 1 0-.702h2.113a.35.35 0 1 1 0 .702zm-7.039 0h-2.113a.35.35 0 1 1 0-.702h2.113a.35.35 0 0 1 .352.351c0 .195-.16.351-.352.351zm-7.041 0h-.92l-2.138-.418c-.192-.039-.316-.224-.278-.415a.35.35 0 0 1 .415-.278l2.072.412.852-.006a.35.35 0 0 1 .351.351c0 .198-.16.354-.354.354zm54.115-.91c-.166 0-.313-.118-.345-.287-.035-.192.09-.374.281-.412l2.075-.392c.192-.036.374.089.412.28s-.089.374-.281.412l-2.075.393-.067.006zm-61.939-.463c-.023 0-.045-.003-.07-.006l-2.072-.412c-.192-.038-.316-.223-.278-.415a.35.35 0 0 1 .415-.277l2.072.411c.191.039.316.224.278.415a.35.35 0 0 1-.345.284zm68.856-.846a.35.35 0 0 1-.344-.287c-.035-.191.089-.373.281-.412l2.074-.392c.192-.035.374.089.412.281s-.089.373-.281.411l-2.075.393-.067.006zm-75.757-.526a.46.46 0 0 1-.071-.007l-2.071-.411c-.192-.039-.316-.224-.278-.415a.35.35 0 0 1 .415-.278l2.072.412c.191.038.316.223.277.415-.035.169-.182.284-.344.284zm82.675-.782c-.166 0-.313-.118-.345-.288-.035-.191.089-.373.281-.411l2.075-.393c.191-.035.373.089.411.281s-.089.373-.28.412l-2.075.392a.39.39 0 0 1-.067.007zm-89.58-.588c-.022 0-.045-.003-.07-.006l-2.072-.412c-.191-.038-.316-.223-.278-.415a.35.35 0 0 1 .415-.277l2.072.411c.192.039.316.224.278.415-.035.166-.182.284-.345.284zm96.497-.721c-.166 0-.313-.118-.345-.287-.035-.192.09-.374.281-.412l2.075-.393c.191-.035.373.09.412.281s-.09.374-.281.412l-2.075.393-.067.006zm-103.401-.651a.46.46 0 0 1-.071-.007l-2.071-.411c-.192-.039-.316-.224-.278-.415a.35.35 0 0 1 .415-.278l2.072.412c.191.038.316.223.277.415-.035.166-.182.284-.344.284zm110.315-.658c-.166 0-.313-.118-.345-.287-.035-.192.09-.374.281-.412l2.075-.393c.192-.035.373.09.412.281s-.09.374-.281.412l-2.075.393-.067.006zm-117.22-.715c-.022 0-.045-.003-.07-.006l-2.072-.412c-.191-.038-.316-.223-.278-.415s.221-.316.415-.278l2.072.412c.192.038.316.224.278.415-.035.166-.182.284-.345.284zm124.137-.594a.35.35 0 0 1-.344-.287c-.036-.191.089-.373.28-.412l2.075-.392c.192-.035.374.089.412.281s-.089.373-.281.411l-2.075.393-.067.006zm-131.041-.778c-.023 0-.045-.004-.071-.007l-2.071-.412c-.192-.038-.316-.223-.278-.415a.35.35 0 0 1 .415-.277l2.072.412a.35.35 0 0 1 .277.414c-.032.166-.178.285-.344.285zm137.959-.53c-.166 0-.313-.118-.345-.288-.035-.191.089-.373.281-.411l2.075-.393c.191-.035.376.089.411.281s-.089.373-.281.412l-2.074.392-.067.007zm-144.864-.843c-.022 0-.045-.003-.07-.006l-2.072-.412c-.191-.038-.316-.224-.278-.415s.224-.316.415-.278l2.072.412c.192.038.316.223.278.415-.032.166-.179.284-.345.284zm151.781-.466c-.166 0-.313-.118-.345-.287-.035-.192.089-.374.281-.412l2.075-.393c.191-.032.376.09.412.281s-.09.374-.281.412l-2.075.393-.067.006zm-158.685-.907c-.023 0-.045-.003-.071-.006l-2.071-.412c-.192-.038-.316-.223-.278-.415s.223-.316.415-.277l2.072.411c.191.039.316.224.277.415-.032.169-.178.284-.344.284zm165.602-.402c-.166 0-.313-.118-.345-.287-.035-.192.09-.374.281-.412l2.075-.393c.192-.035.377.09.412.281s-.09.374-.281.412l-2.075.393c-.025.006-.048.006-.067.006zm-172.507-.97a.45.45 0 0 1-.07-.007l-2.072-.411c-.191-.039-.316-.224-.278-.415s.221-.316.415-.278l2.072.412c.192.038.316.223.278.415a.35.35 0 0 1-.345.284zm179.421-.339c-.166 0-.313-.118-.345-.287-.035-.191.09-.373.281-.412l2.075-.392c.192-.035.374.089.412.281s-.089.373-.281.411l-2.075.393c-.022.006-.045.006-.067.006zm-186.322-1.034c-.023 0-.045-.003-.07-.006l-2.072-.412c-.192-.038-.316-.223-.278-.415s.22-.316.415-.278l2.072.412c.191.038.316.224.278.415-.036.169-.182.284-.345.284zm193.239-.274a.35.35 0 0 1-.344-.288c-.036-.191.089-.373.281-.411l2.074-.393c.192-.035.374.089.412.281s-.089.373-.281.412l-2.075.392c-.022.007-.044.007-.067.007zm-200.144-1.098c-.022 0-.044-.004-.07-.007l-2.072-.412c-.191-.038-.316-.223-.277-.415a.35.35 0 0 1 .415-.277l2.071.412c.192.038.316.223.278.414-.035.17-.182.285-.345.285zm207.062-.211c-.166 0-.313-.118-.345-.287-.035-.192.089-.374.281-.412l2.075-.393c.191-.035.373.09.411.281s-.089.374-.281.412l-2.074.393c-.026.006-.045.006-.067.006zm-213.966-1.162c-.023 0-.045-.003-.07-.006l-2.072-.412c-.192-.038-.316-.224-.278-.415a.35.35 0 0 1 .415-.278l2.072.412c.191.038.316.223.278.415-.036.169-.182.284-.345.284zm220.883-.147c-.166 0-.313-.118-.345-.287-.035-.192.089-.374.281-.412l2.075-.393c.191-.035.373.09.412.281s-.09.374-.281.412l-2.075.393c-.026.006-.048.006-.067.006zm-227.788-1.226c-.022 0-.044-.003-.07-.006l-2.072-.412c-.191-.038-.316-.223-.277-.415a.35.35 0 0 1 .415-.277l2.071.411c.192.039.316.224.278.415-.032.169-.182.284-.345.284zm234.702-.079c-.166 0-.313-.119-.345-.288-.035-.191.09-.373.281-.411l2.075-.393c.191-.035.373.089.412.281s-.09.373-.281.412l-2.075.392-.067.007zm-241.606-1.293c-.023 0-.045-.003-.07-.007l-2.072-.411c-.192-.039-.316-.224-.278-.415a.35.35 0 0 1 .415-.278l2.072.412c.191.038.316.223.278.415a.35.35 0 0 1-.345.284zm248.523-.016c-.166 0-.313-.118-.345-.287-.035-.192.09-.374.281-.412l2.075-.393c.192-.035.374.09.412.281s-.089.373-.281.412l-2.075.392a.37.37 0 0 1-.067.007zm6.917-1.309a.35.35 0 0 1-.344-.287c-.035-.192.089-.374.281-.412l2.074-.393c.192-.035.374.09.412.281s-.089.374-.281.412l-2.075.393-.067.006zm-262.345-.048c-.022 0-.044-.003-.07-.006l-2.072-.412c-.191-.038-.316-.223-.277-.415a.35.35 0 0 1 .415-.278l2.071.412c.192.038.316.224.278.415a.35.35 0 0 1-.345.284zm269.263-1.261c-.166 0-.313-.118-.345-.287-.035-.192.089-.373.281-.412l2.075-.392a.35.35 0 0 1 .411.281c.036.191-.089.373-.28.411l-2.075.393-.067.006zm-276.167-.111c-.022 0-.045-.004-.07-.007l-2.072-.412c-.192-.038-.316-.223-.278-.415a.35.35 0 0 1 .415-.277l2.072.412c.191.038.316.223.278.414a.35.35 0 0 1-.345.285zm283.081-1.197c-.166 0-.313-.119-.345-.288-.035-.191.089-.373.281-.412l2.075-.392c.191-.035.376.089.412.281s-.09.373-.281.412l-2.075.392-.067.007zm-289.986-.173c-.022 0-.044-.003-.07-.006l-2.072-.412c-.191-.038-.316-.223-.277-.415s.223-.316.415-.278l2.071.412c.192.038.316.224.278.415-.032.166-.179.284-.345.284zm296.903-1.136c-.166 0-.313-.118-.345-.287-.035-.192.09-.374.281-.412l2.075-.393c.192-.032.374.089.412.281s-.09.373-.281.412l-2.075.392a.38.38 0 0 1-.067.007zm-303.804-.236c-.022 0-.045-.004-.07-.007l-2.072-.412c-.191-.038-.316-.223-.278-.415a.35.35 0 0 1 .415-.277l2.072.412c.192.038.316.223.278.414-.035.166-.182.285-.345.285zm310.721-1.073a.35.35 0 0 1-.344-.287c-.036-.192.089-.374.28-.412l2.075-.393c.192-.035.374.09.412.281s-.089.374-.281.412l-2.075.393-.067.006zm-317.625-.3c-.023 0-.045-.003-.071-.006l-2.071-.412c-.192-.038-.316-.224-.278-.415a.35.35 0 0 1 .415-.278l2.072.412c.191.038.316.223.277.415-.035.166-.182.284-.344.284zm324.543-1.009c-.166 0-.313-.118-.345-.287-.035-.192.089-.377.281-.412l2.075-.392c.191-.036.373.089.411.28s-.089.374-.281.412l-2.074.393-.067.006zm-331.448-.364c-.022 0-.045-.003-.07-.006l-2.072-.412c-.191-.038-.316-.223-.278-.415a.35.35 0 0 1 .415-.277l2.072.411c.192.039.316.224.278.415-.035.166-.182.284-.345.284zm-6.904-1.372a.46.46 0 0 1-.071-.007l-2.071-.411c-.192-.039-.316-.224-.278-.415a.35.35 0 0 1 .415-.278l2.072.412c.191.038.316.223.277.415-.035.169-.182.284-.344.284zm-6.905-1.373c-.022 0-.045-.003-.07-.006l-2.072-.412c-.191-.038-.316-.223-.278-.415s.221-.316.415-.278l2.072.412c.192.038.316.224.278.415a.35.35 0 0 1-.345.284zm348.353-1.401c-.195 0-.351-.16-.351-.354l.003-1.274v-.833c0-.195.156-.351.351-.355a.35.35 0 0 1 .351.352v.836l-.003 1.277a.35.35 0 0 1-.351.351zm-353.048-1.88c-.186 0-.342-.147-.352-.335l-.095-2.11a.35.35 0 0 1 .702-.032l.096 2.11a.35.35 0 0 1-.336.367zm352.997-5.159a.35.35 0 0 1-.351-.344l-.048-2.107a.35.35 0 0 1 .341-.361c.214-.016.355.147.361.342l.048 2.11a.35.35 0 0 1-.345.357zm-353.301-1.873c-.188 0-.344-.15-.351-.339l-.08-2.113a.35.35 0 0 1 .339-.364c.185-.006.357.144.364.338l.079 2.11a.35.35 0 0 1-.338.364zm353.084-5.156a.35.35 0 0 1-.351-.338l-.093-2.1a.35.35 0 0 1 .335-.368c.195-.015.361.141.367.336l.093 2.106c.006.195-.144.358-.338.368zm-353.323-1.883c-.188 0-.345-.15-.351-.342l-.061-2.113a.35.35 0 0 1 .342-.36c.198.003.357.146.36.341l.061 2.11c.006.195-.147.358-.342.364zm352.962-5.142c-.185 0-.338-.144-.351-.329l-.137-2.107a.35.35 0 0 1 .328-.374c.202-.003.361.135.374.329l.137 2.11c.013.195-.137.361-.329.374-.006-.007-.016-.003-.022-.003zm-353.144-1.897a.35.35 0 0 1-.351-.344l-.042-2.114a.35.35 0 0 1 .345-.357c.185-.016.354.15.358.345l.041 2.11c.003.194-.15.354-.345.36zm352.646-5.129c-.182 0-.335-.141-.351-.323l-.176-2.103a.35.35 0 0 1 .699-.061l.176 2.107a.35.35 0 0 1-.322.38h-.026zm-352.764-1.909c-.192 0-.351-.157-.351-.348l-.023-2.113a.35.35 0 0 1 .348-.355h.003c.192 0 .352.157.352.348l.022 2.11c.003.195-.153.355-.348.358h-.003zm352.138-5.104c-.178 0-.332-.138-.351-.316l-.21-2.101a.35.35 0 0 1 .312-.386c.195-.019.368.121.387.313l.21 2.103c.02.195-.121.368-.316.384-.009 0-.022.003-.032.003zm-352.186-1.935a.35.35 0 0 1-.351-.351v-1.21-.903a.35.35 0 1 1 .702 0v.903 1.207c0 .195-.156.351-.351.354zm351.443-5.069a.35.35 0 0 1-.348-.313l-.246-2.097c-.022-.194.115-.367.306-.392a.35.35 0 0 1 .393.306l.246 2.1a.35.35 0 0 1-.31.39c-.016.006-.029.006-.041.006zm-351.418-1.969h-.003a.35.35 0 0 1-.348-.355l.023-2.11c.003-.191.159-.347.351-.347h.003c.195.003.351.162.348.357l-.022 2.107c-.004.191-.16.348-.352.348zm350.559-5.021c-.176 0-.326-.128-.348-.307l-.278-2.094c-.025-.191.109-.37.304-.396a.35.35 0 0 1 .395.304l.278 2.094c.026.191-.112.37-.303.395-.016.004-.032.004-.048.004zm-350.45-2.015c-.201-.003-.354-.166-.351-.36l.051-2.114c.006-.194.16-.36.361-.341a.35.35 0 0 1 .341.361l-.051 2.11a.35.35 0 0 1-.351.344zm349.486-4.96c-.172 0-.322-.128-.348-.3l-.31-2.088c-.028-.191.106-.37.297-.399s.371.106.399.297l.31 2.091c.029.191-.105.37-.297.399-.016-.003-.032 0-.051 0zm-349.285-2.078c-.207-.007-.357-.169-.351-.364l.083-2.113c.01-.195.188-.345.367-.339.195.007.345.173.338.367l-.083 2.11c-.009.189-.166.339-.354.339zm348.219-4.884c-.169 0-.319-.125-.348-.297l-.339-2.084c-.031-.192.099-.374.291-.406a.35.35 0 0 1 .405.291l.342 2.087a.35.35 0 0 1-.291.403c-.022.006-.041.006-.06.006zm-347.906-2.155c-.214-.009-.364-.175-.351-.37l.118-2.116c.013-.195.175-.342.373-.332s.342.178.332.373l-.118 2.11c-.013.192-.166.335-.354.335zm346.737-4.791c-.169 0-.315-.121-.347-.291l-.371-2.078c-.035-.191.093-.373.284-.408a.35.35 0 0 1 .409.284l.37 2.081c.032.192-.095.374-.287.409-.016.003-.035.003-.058.003zm-346.293-2.241h-.026c-.195-.013-.338-.182-.326-.377l.163-2.11c.016-.194.182-.332.38-.322a.35.35 0 0 1 .323.38l-.163 2.103c-.016.186-.169.326-.351.326zm345.026-4.686a.35.35 0 0 1-.344-.287l-.399-2.075c-.039-.192.086-.377.277-.412a.35.35 0 0 1 .412.278l.399 2.075c.035.191-.089.376-.281.412-.019.006-.041.009-.064.009zm-344.429-2.327c-.013 0-.023 0-.036-.003-.194-.019-.335-.192-.316-.383l.217-2.104a.35.35 0 0 1 .387-.313c.194.02.332.195.313.387l-.214 2.097c-.019.182-.173.319-.351.319zm343.06-4.584c-.163 0-.31-.115-.345-.281l-.431-2.068c-.041-.192.083-.377.272-.418s.376.083.418.271l.431 2.072a.35.35 0 0 1-.275.415c-.022.009-.045.009-.07.009zM147.61 189.1c-.016 0-.029 0-.045-.003-.191-.026-.328-.201-.303-.393l.284-2.097c.029-.192.205-.322.399-.3.192.029.326.204.3.399l-.284 2.091c-.025.175-.175.303-.351.303zm340.012-3.716c-.013 0-.029 0-.041-.003l-2.098-.236c-.194-.022-.332-.195-.312-.389a.35.35 0 0 1 .389-.313l2.1.236a.35.35 0 0 1 .31.389.35.35 0 0 1-.348.316zm-7-.731h-.032l-2.101-.188a.35.35 0 0 1-.319-.38c.016-.194.189-.335.38-.319l2.107.188c.195.02.335.189.319.383a.36.36 0 0 1-.354.316zm-7.016-.59h-.029l-2.104-.157a.35.35 0 0 1-.325-.376c.012-.195.185-.339.376-.326l2.107.157c.195.016.338.185.326.376-.013.185-.169.326-.351.326zm-7.023-.495h-.022l-2.107-.134a.35.35 0 0 1-.329-.373c.013-.195.169-.339.374-.329l2.11.134c.194.013.341.182.328.373-.016.185-.169.329-.354.329zm-7.026-.428l-2.126-.118a.35.35 0 0 1-.332-.37c.01-.195.176-.338.371-.332l2.11.118c.194.01.341.176.332.37s-.17.332-.355.332zm-7.029-.373l-2.129-.102c-.195-.01-.345-.176-.335-.367s.179-.345.367-.336l2.11.103c.195.009.345.175.335.37-.006.185-.163.332-.348.332zm-7.032-.332l-2.126-.093a.35.35 0 0 1-.335-.367.36.36 0 0 1 .367-.335l2.11.093a.35.35 0 0 1 .335.367.35.35 0 0 1-.351.335zm-7.032-.291l-2.123-.083a.35.35 0 0 1-.338-.363c.006-.195.185-.355.364-.339l2.11.083c.194.007.344.173.338.364s-.163.338-.351.338zm-289.804-.006c-.019 0-.041-.003-.06-.006-.192-.032-.319-.217-.288-.406l.119-.664c.108-.606.609-1.037 1.216-1.044l.182-.003c.214-.028.354.15.357.345s-.153.354-.345.358l-.181.003c-.272.003-.486.191-.537.466l-.115.661c-.032.169-.178.29-.348.29zm282.768-.259l-2.122-.073a.35.35 0 0 1-.339-.364c.007-.195.173-.354.364-.338l2.11.073a.35.35 0 0 1 .339.364c-.007.188-.163.338-.352.338zm-7.035-.236l-2.123-.067c-.194-.006-.348-.169-.341-.364s.163-.335.364-.341l2.11.067c.194.006.348.169.341.364s-.163.341-.351.341zm-7.038-.214l-2.12-.06a.35.35 0 0 1-.342-.361c.007-.195.166-.357.361-.342l2.113.061c.195.007.348.169.342.361s-.163.341-.354.341zm-7.036-.191l-2.119-.054a.35.35 0 0 1-.342-.361c.006-.195.137-.338.361-.342l2.11.055a.35.35 0 0 1 .341.36.35.35 0 0 1-.351.342zm-7.038-.173l-2.12-.047c-.195-.004-.348-.166-.345-.361s.138-.345.361-.345l2.11.048c.195.006.348.166.345.361a.35.35 0 0 1-.351.344zm-7.039-.159l-2.116-.045c-.195-.003-.348-.166-.345-.36s.185-.352.361-.345l2.113.044c.195.004.348.166.345.361a.36.36 0 0 1-.358.345zm-7.038-.141l-2.117-.038a.35.35 0 0 1-.345-.357c.004-.195.154-.367.358-.345l2.113.038a.35.35 0 0 1 .345.358c-.003.191-.163.344-.354.344zm-234.437-.108a.35.35 0 0 1-.351-.348c-.003-.195.153-.354.348-.358l2.113-.025a.37.37 0 0 1 .357.348c.004.195-.153.354-.348.357l-2.113.026zm227.401-.019l-2.116-.035a.35.35 0 1 1 .006-.703l2.12.036a.35.35 0 0 1 .344.357c-.006.192-.162.345-.354.345zm-220.359-.064c-.192 0-.352-.157-.352-.348s.154-.354.348-.358l2.114-.025c.197-.019.354.153.357.348s-.153.354-.348.357l-2.113.026zm213.321-.051l-2.117-.032c-.194-.003-.351-.163-.348-.358s.141-.357.358-.348l2.113.032c.195.004.348.163.348.358-.006.195-.163.348-.354.348zm-206.276-.026c-.192 0-.352-.156-.352-.348a.35.35 0 0 1 .348-.354l2.114-.022c.217.006.354.153.354.348a.35.35 0 0 1-.348.354l-2.113.022zm7.041-.073c-.191 0-.351-.157-.351-.348s.153-.354.348-.354l2.113-.023c.217.013.355.153.355.348a.35.35 0 0 1-.348.355l-2.114.022h-.003zm192.196-.003l-2.12-.029c-.194-.003-.351-.163-.347-.358s.159-.347.351-.347l2.119.028c.195.003.351.163.348.358s-.159.348-.351.348zm-185.154-.064c-.191 0-.351-.157-.351-.348s.153-.354.348-.354l2.113-.02c.217.016.354.154.354.348s-.153.355-.348.355l-2.113.019h-.003zm178.115-.029h-.003l-2.113-.025c-.195-.004-.351-.163-.348-.358s.153-.364.358-.348l2.113.026c.195.003.351.162.348.357a.36.36 0 0 1-.355.348zm-171.073-.035a.35.35 0 0 1-.351-.348c-.004-.195.153-.354.348-.354l2.113-.019h.003a.35.35 0 1 1 .003.702l-2.116.019zm164.032-.048h-.003l-2.114-.022c-.194-.003-.351-.163-.348-.355s.173-.357.355-.347l2.113.022c.195.003.351.163.348.354a.35.35 0 0 1-.351.348zm-156.99-.013a.35.35 0 1 1-.004-.702l2.114-.016h.003a.35.35 0 1 1 .003.702l-2.116.016zm7.041-.054a.35.35 0 0 1-.351-.351c0-.195.157-.354.348-.354l2.113-.016h.003a.35.35 0 0 1 .352.348c0 .194-.157.354-.348.354l-2.117.019zm142.91-.006h-.003l-2.11-.019a.35.35 0 0 1-.348-.355c.003-.194.16-.348.351-.348h.003l2.114.019c.194.004.351.163.347.355a.35.35 0 0 1-.354.348zm-135.868-.045a.35.35 0 0 1-.351-.351c0-.195.156-.354.351-.354l2.113-.016c.192-.016.355.156.355.351s-.157.354-.352.354l-2.116.016zm128.83-.019l-2.114-.016c-.194 0-.351-.16-.347-.354a.35.35 0 0 1 .351-.348h.003l2.113.016a.35.35 0 0 1 .348.354c-.003.195-.163.348-.354.348zm-121.788-.029a.35.35 0 0 1-.351-.348c0-.195.156-.354.351-.354l2.113-.013a.35.35 0 0 1 .354.351c0 .195-.156.355-.351.355l-2.116.009zm114.749-.025l-2.113-.016c-.195 0-.351-.16-.351-.355s.169-.376.354-.351l2.113.016c.195 0 .351.16.351.354s-.162.352-.354.352zm-107.711-.016a.35.35 0 0 1-.351-.351c0-.195.157-.355.351-.355l2.114-.013c.197 0 .354.157.354.352s-.157.354-.351.354l-2.117.013zm100.672-.029l-2.113-.013c-.194 0-.351-.159-.351-.354s.16-.339.355-.351l2.113.012c.194 0 .351.16.351.355s-.163.351-.355.351zm-93.63-.01a.35.35 0 0 1-.351-.351c0-.195.156-.351.351-.354l2.113-.01c.198 0 .355.157.355.351s-.157.352-.352.355l-2.116.009zm86.589-.032l-2.113-.009c-.195 0-.352-.16-.352-.354s.16-.352.352-.352l2.116.01c.195 0 .351.16.351.354s-.16.351-.354.351zm-79.547 0a.35.35 0 0 1-.351-.351c0-.194.156-.351.351-.354l2.113-.01a.35.35 0 0 1 .351.352c0 .194-.156.351-.351.354l-2.113.009zm7.042-.028a.35.35 0 0 1-.352-.351c0-.195.157-.352.352-.355l2.113-.006a.35.35 0 0 1 .351.351c0 .195-.156.351-.351.354l-2.113.007zm65.466 0l-2.113-.01c-.195 0-.351-.159-.351-.354a.35.35 0 0 1 .351-.351l2.113.009c.195 0 .351.16.351.355s-.156.351-.351.351zm-58.425-.023a.35.35 0 0 1-.351-.351c0-.194.157-.351.351-.354l2.114-.006a.35.35 0 0 1 .351.351c0 .194-.157.351-.351.354l-2.114.006zm51.387-.003l-2.114-.006c-.194 0-.351-.16-.351-.355s.16-.351.351-.351l2.114.007c.194 0 .351.159.351.354a.35.35 0 0 1-.351.351zm-44.348-.016a.35.35 0 1 1 0-.702l2.113-.003a.35.35 0 1 1 0 .702l-2.113.003zm37.309-.003l-2.113-.003c-.195 0-.351-.16-.351-.351a.35.35 0 0 1 .351-.351l2.113.003a.35.35 0 1 1 0 .702zm-30.267-.01a.35.35 0 1 1 0-.702l2.113-.003a.35.35 0 1 1 0 .702l-2.113.003zm23.225-.003l-2.113-.003a.35.35 0 1 1 0-.702l2.113.003c.195 0 .351.16.351.351s-.156.351-.351.351zm-16.184-.003a.35.35 0 1 1 0-.702h2.107a.35.35 0 1 1 0 .702h-2.107zm9.146 0h-2.113a.35.35 0 1 1 0-.702h2.113a.35.35 0 0 1 .351.351c0 .191-.157.351-.351.351z" class="B"/><path d="M349.06 341.491h-46.145c-6.046 0-11.14-4.498-11.855-10.477l-5.331-44.402c-.849-7.073 4.699-13.295 11.855-13.295h55.434c7.013 0 12.513 5.986 11.894 12.935l-3.958 44.402c-.546 6.135-5.708 10.837-11.894 10.837z" fill="url(#O)"/><path d="M331.842 323.83s-4.338-11.418-9.404-10.375-10.61 4.939-10.61 4.939l-8.14 11.009s22.852 9.002 30.887 3.843c0 0 23.34 4.032 52.816-.804-4.268-9.008-6.809-18.026-8.303-25.026-14.929 8.449-31.008 14.763-47.246 16.414z" fill="url(#P)"/><path d="M455.481 240.998s-33.418 42.09-76.393 66.417c1.494 7.001 4.035 16.018 8.303 25.026 22.294-3.658 48.095-12.388 69.971-31.786l-1.881-59.657z" fill="url(#Q)"/><path d="M205.018 246.563l2.074 55.722c5.893 2.027 11.505 3.603 16.845 4.781 3.342-10.757 10.7-23.963 16.727-33.782-22.141-7.823-35.646-26.721-35.646-26.721z" fill="url(#R)"/><path d="M315.54 245.617c-30.366 32.786-54.945 34.717-74.88 27.672-6.027 9.819-13.384 23.021-16.726 33.782 81.095 17.879 100.19-56.673 100.19-56.673l-8.584-4.781z" fill="url(#S)"/><path d="M321.698 242.134s3.498-3.757 9.972-2.576 12.235 3.429 16.27 0 5.452 1.175 5.452 1.175l-12.079 9.184-19.615-7.783z" fill="url(#T)"/><path d="M314.474 248.557s2.397-10.023 9.621-8.648 23.622 10.292 27.848 8.648 9.63-5.574 12.401-4.185l-4.884 6.071s12.555-7.242 14.716-2.793l-20.889 11.757s-30.561-3.061-38.813-10.85z" fill="url(#U)"/><path d="M99.892 414.867s-10.362-132.586 65.173-178.584c0 0 21.119-13.943 47.432 13.058s17.84 55.051-4.243 81.338-44.574 59.239-39.221 85.523c-6.269 3.026-18.418 6.546-34.417 6.575-16.165.032-28.442-4.874-34.724-7.91z" fill="url(#V)"/><path d="M203.134 195.99c-.019 1.765-25.173 37.491-25.173 37.491s4.514 8.893 26.07 16.11l18.604-38.254-19.501-15.347z" fill="url(#W)"/><path d="M193.245 318.652s47.722 39.968 99.255 22.527c3.195-1.083 6.691-.846 9.675.727l14.815 7.824a13.23 13.23 0 0 0 17.527-4.906c2.059-3.444 3.815-7.374 4.163-11.144l-28.987-11.734 2.138-3.556s-14.153-1.2-17.856 8.944c0 0-26.957 11.214-72.422-38.793-.007.003-20.637 17.547-28.308 30.111z" fill="url(#X)"/><path d="M190.675 318.48a1.04 1.04 0 0 1-.59-.182c-20.152-13.618-29.632-35.595-29.725-35.816a1.06 1.06 0 0 1 .559-1.385 1.06 1.06 0 0 1 1.385.559c.093.213 9.343 21.632 28.965 34.889.482.326.61.983.284 1.465-.207.307-.539.47-.878.47z" fill="url(#Y)"/><path d="M220.605 288.106c-.348 0-.687-.169-.888-.485-.06-.096-6.202-9.656-17.901-30.599-3.562-6.378-8.236-10.416-13.895-11.999-9.385-2.627-18.435 2.41-18.527 2.461a1.06 1.06 0 0 1-1.44-.396c-.29-.504-.111-1.152.396-1.44.399-.226 9.072-5.439 19.312-2.585 6.228 1.739 12.146 6.036 15.996 12.928 11.657 20.873 17.77 30.392 17.831 30.487.316.492.175 1.143-.316 1.459a1.02 1.02 0 0 1-.568.169z" fill="url(#Z)"/><path d="M222.941 175.519s8.951 20.56 9.551 31.349 2.927 17.793-9.551 19.967-22.989-4.042-28.684-14.793c0 0-8.922-16.563-6.92-23.346s35.604-13.177 35.604-13.177z" fill="url(#a)"/><path d="M198.522 204.314l.712-.313c.903-.399 1.289-1.474.836-2.352-1.759-3.4-5.19-11.189-.76-13.008 5.711-2.343 28.33-6.956 33.211-14.981 4.689-7.715.533-17.671-5.711-20.502-.418-.189-.91-.039-1.124.367l-.52.986a.85.85 0 0 1-1.564-.159c-.204-.703-1.14-.84-1.526-.221-1.5 2.401-5.551 6.295-16.382 8.293-15.392 2.841-25.568 9.069-25.824 19.708-.016.677-.734 1.05-1.312.699-1.136-.692-2.956-1.018-5.385 1.025-4.226 3.556-2.496 12.775 6.771 20.359.44.361.437 1.047-.042 1.357-1.679 1.095-4.185 3.696 2.305 7.166 6.713 3.588 11.724 3.294 13.656 2.975.478-.08.788-.543.686-1.018l-2.059-9.35a.85.85 0 0 1 .827-1.031h3.205z" fill="url(#b)"/><path d="M198.908 206.288s-3.415-13.133-9.301-9.452 3.055 14.715 7.788 15.207l1.513-5.755z" fill="url(#c)"/><path d="M302.172 341.909s12.127 11.862 14.466 10.135c.834-.613 2.934-2.847 4.974-5.331 1.436-1.752 1.586-4.233.354-6.135l-2.86-4.415c-2.726-4.204-8.561-5.088-12.341-1.797-1.909 1.663-3.639 4.064-4.593 7.543z" fill="url(#d)"/><path d="M494.677 418.87s-1.487-44.137-32.476-99.169c-9.691-17.214-13.139-37.251-10.119-56.774L455.475 241s42.525-14.389 89.666-.606c0 0 65.361 40.495 21.677 178.476a86.38 86.38 0 0 1-35.633 7.91c-16.797.086-29.68-4.766-36.508-7.91z" fill="url(#e)"/><path d="M462.721 213.015l11.029 26.491a5.28 5.28 0 0 0 3.987 3.173c6.358 1.092 21.735 2.793 31.831-3.846a2.57 2.57 0 0 0 .687-3.611l-20.372-29.249-27.162 7.042z" fill="url(#f)"/><g class="D"><path d="M489.918 337.513a2.45 2.45 0 0 0-1.548 3.499l31.902 61.17c.539 1.034 1.73 1.542 2.85 1.219l104.353-30.13a2.45 2.45 0 0 0 1.672-3.032l-17.974-62.23a2.45 2.45 0 0 0-2.975-1.689l-118.28 31.193z"/><path d="M496.65 330.325c-1.494.358-2.343 1.938-1.81 3.377l25.537 69.368c.463 1.261 1.826 1.95 3.115 1.577l104.04-30.038a2.56 2.56 0 0 0 1.794-3.004l-14.422-66.759c-.303-1.405-1.701-2.286-3.099-1.954L496.65 330.325z"/></g><path d="M505.709 323.325a3.17 3.17 0 0 0-2.611 3.846l17.346 74.887a3.17 3.17 0 0 0 3.965 2.33l102.462-29.584a3.17 3.17 0 0 0 2.19-3.834l-15.756-61.129c-.405-1.573-1.938-2.585-3.543-2.339l-104.053 15.823z" fill="url(#g)"/><path d="M588.652 351.881c7.952-60.072-38.34-106.264-38.34-106.264l-27.544 32.109c20.911 26.067 30.851 49.95 35.393 68.71 6.021-1.753 20.519-4.524 30.491 5.445z" fill="url(#h)"/><path d="M558.158 347.141a.7.7 0 0 1-.683-.54c-5.634-23.27-17.496-46.295-35.26-68.435-.242-.303-.195-.747.109-.989s.747-.195.989.108c17.892 22.303 29.846 45.513 35.528 68.984a.7.7 0 0 1-.517.849c-.054.016-.112.023-.166.023z" fill="url(#i)"/><path d="M558.158 346.439c4.22 17.435 3.777 30.446 3.135 36.655-.243 2.343-2.123 4.169-4.472 4.335l-9.541.619c-3.566.204-7.524-2.049-10.17-3.933-1.351-.96-3.1.537-2.346 2.015 1.975 3.865 6.99 7.306 10.444 9.33 1.258.737 1.022 2.614-.38 3.013l-14.779 4.188c24.282 22.878 40.316-2.719 40.316-2.719 10.719-16.564 16.26-32.761 18.287-48.057-9.972-9.972-24.47-7.201-30.494-5.446z" fill="url(#j)"/><path d="M474.123 172.483c-.463.437-19.545 37.909-19.545 37.909l21.63 10.441 23.363-32.83s-17.694-22.821-25.448-15.52z" fill="url(#k)"/><path d="M489.739 191.941l-10.786 17.981a3.36 3.36 0 0 1-.59.738c-1.284 1.194-5.679 4.67-9.075-.061-2.896-4.035-5.612-7.702-8.523-9.215-1.699-.885-3.793-.179-4.654 1.532-1.778 3.521-5.219 10.703-7.384 17.512-.542 1.707.339 3.54 1.999 4.21 4.379 1.775 13.036 4.983 20.716 6.043a3.45 3.45 0 0 0 3.263-1.386c3.303-4.526 12.618-17.176 15.797-20.343 2.953-2.943 8.405-1.832 10.86-1.127a3.46 3.46 0 0 0 2.754-.36c2.493-1.501 6.841-5.239 2.864-11.565-.99-1.574-.485-3.668 1.069-4.69 2.784-1.829 5.8-5.263 2.924-10.827-2.911-5.631-8.111-6.139-11.651-5.704-1.567.191-3.157-.629-3.76-2.091-.269-.648-.795-1.204-1.782-1.402-1.854-.376-3.074-2.074-2.71-3.932.626-3.186.154-7.326-4.935-10.126-9.33-5.129-17.505 3.231-19.583 10.289s8.357 12.043 14.92 12.876c4.82.613 7.463 5.874 8.529 8.622.386.993.29 2.107-.262 3.026z" fill="url(#l)"/><path d="M486.451 215.553s4.15-12.143 9.462-11.696 9.493 5.736 2.908 11.686c-8.188 7.4-12.37.01-12.37.01z" fill="url(#m)"/><g class="B"><path opacity=".2" d="M589.07 96.736H473.268c-2.474 0-4.482-2.005-4.482-4.482s2.005-4.482 4.482-4.482H589.07c2.474 0 4.482 2.008 4.482 4.482a4.48 4.48 0 0 1-4.482 4.482z"/><path opacity=".53" d="M602.985 114.29H487.182c-2.474 0-4.482-2.005-4.482-4.482a4.48 4.48 0 0 1 4.482-4.482h115.803c2.473 0 4.481 2.005 4.481 4.482a4.48 4.48 0 0 1-4.481 4.482zm-32.93 35.104h-82.873c-2.474 0-4.482-2.005-4.482-4.482a4.48 4.48 0 0 1 4.482-4.481h82.873c2.474 0 4.482 2.007 4.482 4.481a4.48 4.48 0 0 1-4.482 4.482z"/><path opacity=".2" d="M615.973 131.843H500.171a4.48 4.48 0 0 1-4.482-4.481c0-2.474 2.005-4.482 4.482-4.482h115.802c2.474 0 4.482 2.008 4.482 4.482s-2.008 4.481-4.482 4.481zm-475.18 202.295H24.99a4.482 4.482 0 1 1 0-8.963h115.803a4.48 4.48 0 0 1 4.481 4.481c0 2.474-2.007 4.482-4.481 4.482z"/><path opacity=".53" d="M154.707 351.689H38.905c-2.474 0-4.482-2.005-4.482-4.482a4.48 4.48 0 0 1 4.482-4.481h115.803c2.474 0 4.482 2.007 4.482 4.481s-2.008 4.482-4.482 4.482zm-32.929 35.105H38.905a4.48 4.48 0 0 1-4.482-4.481c0-2.474 2.005-4.482 4.482-4.482h82.874c2.473 0 4.481 2.008 4.481 4.482a4.48 4.48 0 0 1-4.481 4.481z"/><path opacity=".2" d="M167.692 369.241H51.893c-2.474 0-4.482-2.005-4.482-4.482s2.005-4.482 4.482-4.482h115.802c2.474 0 4.482 2.008 4.482 4.482s-2.008 4.482-4.485 4.482z"/><g class="C"><path d="M296.637 94.491a1.02 1.02 0 0 1-.9-.533l-1.28-2.468c-.249-.508-.042-1.124.469-1.373s1.124-.041 1.373.469l1.238 2.388c.271.498.09 1.12-.408 1.392a1.02 1.02 0 0 1-.492.124zm-4.52-10.43c-.431 0-.833-.275-.973-.706l-1.466-5.206c-.131-.552.211-1.104.763-1.235a1.03 1.03 0 0 1 1.236.763l1.417 5.037a1.03 1.03 0 0 1-.654 1.296c-.109.035-.218.051-.323.051zm-2.85-13.649a1.02 1.02 0 0 1-1.019-.929l-.287-5.401c-.006-.568.447-1.031 1.015-1.037a1.03 1.03 0 0 1 1.038 1.015l.277 5.229c.054.565-.36 1.066-.922 1.117l-.102.006zm.229-13.94c-.044 0-.089-.003-.134-.01a1.03 1.03 0 0 1-.887-1.149l.922-5.331a1.03 1.03 0 0 1 1.22-.785 1.03 1.03 0 0 1 .785 1.219l-.894 5.155a1.02 1.02 0 0 1-1.012.9zm3.333-13.541a.97.97 0 0 1-.354-.064c-.533-.198-.805-.785-.607-1.318l2.088-4.989c.239-.511.852-.734 1.366-.492s.734.852.492 1.366l-2.021 4.827c-.156.412-.549.67-.964.67zm6.256-12.462c-.191 0-.386-.054-.558-.166-.476-.31-.61-.945-.3-1.42l3.138-4.405c.348-.447.992-.527 1.439-.179s.527.993.179 1.44l-3.039 4.262a1.01 1.01 0 0 1-.859.469zm8.852-10.77c-.268 0-.533-.105-.734-.31-.396-.405-.386-1.057.019-1.449l4.032-3.604c.437-.361 1.085-.294 1.443.144a1.03 1.03 0 0 1-.144 1.443l-3.904 3.486a1 1 0 0 1-.712.29zm11.013-8.539a1.03 1.03 0 0 1-.536-1.902l4.733-2.614a1.03 1.03 0 0 1 1.376.46 1.03 1.03 0 0 1-.459 1.376l-4.578 2.528c-.169.102-.354.153-.536.153zm12.641-5.877c-.431 0-.83-.271-.974-.702a1.03 1.03 0 0 1 .648-1.299l5.197-1.494c.552-.134 1.104.204 1.238.757s-.204 1.104-.756 1.239l-5.028 1.446c-.108.038-.22.054-.325.054zm32.821-1.89a.99.99 0 0 1-.214-.022l-5.162-.865a1.03 1.03 0 0 1-.894-1.143c.071-.562.581-.964 1.143-.894l5.334.894c.555.118.91.661.792 1.216a1.02 1.02 0 0 1-.999.814zm-19.194-1.031c-.521 0-.968-.393-1.019-.923-.057-.565.355-1.066.916-1.124L350.513 0c.575 0 1.034.444 1.041 1.009s-.444 1.034-1.009 1.041l-5.225.306c-.032.006-.067.006-.102.006zm30.088 4.415a1 1 0 0 1-.392-.08l-2.506-.974c-.533-.195-.808-.782-.613-1.315s.782-.808 1.315-.613l2.589 1.006c.523.217.772.817.555 1.341-.162.396-.545.635-.948.635z" class="C"/><path d="M409.657 41.804a1.03 1.03 0 0 1-.958-.654l-1.031-2.483c-.23-.517.006-1.124.524-1.354s1.123.006 1.353.523l1.066 2.566a1.03 1.03 0 0 1-.584 1.328c-.118.051-.246.073-.37.073zm-58.278 85.184c-.77 0-1.536-.013-2.299-.041-.565-.019-1.008-.495-.986-1.063s.508-.996 1.063-.987l5.149-.028a1.02 1.02 0 0 1 1.072.976c.026.565-.408 1.047-.976 1.073l-3.023.07zm-10.719-.932a1.11 1.11 0 0 1-.179-.016l-5.2-1.139c-.549-.144-.875-.706-.731-1.255s.706-.875 1.255-.731l5.03 1.101c.559.099.932.629.833 1.188a1.02 1.02 0 0 1-1.008.852zm22.14-.115a1.03 1.03 0 0 1-1.009-.839c-.102-.559.265-1.092.824-1.194l5.021-1.143c.546-.147 1.111.176 1.258.721a1.03 1.03 0 0 1-.722 1.258l-5.187 1.178c-.06.013-.124.019-.185.019zm13.139-3.942c-.399 0-.779-.233-.945-.626-.22-.52.022-1.123.542-1.344l4.648-2.212c.501-.265 1.121-.073 1.386.428s.073 1.12-.428 1.385l-4.804 2.286a1 1 0 0 1-.399.083zm11.948-6.726c-.32 0-.632-.147-.833-.428-.332-.459-.227-1.101.233-1.433l4.05-3.179a1.03 1.03 0 0 1 1.446.112 1.03 1.03 0 0 1-.111 1.446l-4.185 3.284c-.185.134-.393.198-.6.198zm10.186-9.18a1.03 1.03 0 0 1-.683-.259c-.425-.376-.46-1.024-.083-1.449l3.262-3.984a1.03 1.03 0 0 1 1.436-.204c.453.338.543.983.205 1.436l-3.371 4.115a1.01 1.01 0 0 1-.766.345zm7.951-11.179a1 1 0 0 1-.498-.131c-.495-.278-.67-.9-.396-1.395l2.321-4.597c.233-.517.843-.747 1.357-.511a1.03 1.03 0 0 1 .51 1.357l-2.397 4.75a1.02 1.02 0 0 1-.897.527zm5.334-12.641a1.08 1.08 0 0 1-.294-.041 1.03 1.03 0 0 1-.692-1.277l1.257-4.992c.115-.555.658-.913 1.213-.795s.91.657.795 1.213l-1.299 5.162c-.131.441-.536.731-.98.731zm2.429-13.509c-.022 0-.048 0-.07-.003-.565-.038-.993-.527-.954-1.092l.137-4.102-.01-1.044a1.03 1.03 0 0 1 1.009-1.044 1.03 1.03 0 0 1 1.044 1.009l.009 1.079-.143 4.239c-.035.543-.485.958-1.022.958zm-.59-13.707c-.498 0-.936-.364-1.012-.871l-.99-5.053c-.131-.552.208-1.105.76-1.235s1.105.208 1.235.76l1.022 5.222c.086.559-.3 1.082-.859 1.168a1.36 1.36 0 0 1-.156.01zm-85.743 67.137c-.131 0-.265-.025-.396-.079l-2.541-1.127c-.513-.24-.734-.853-.491-1.367s.852-.734 1.366-.491l2.458 1.088c.524.217.769.818.552 1.341-.166.399-.549.635-.948.635z" class="C"/></g><path opacity=".56" d="M351.404 74.772c-4.756 0-9.244-2.905-11.022-7.61a11.7 11.7 0 0 1 .281-9.005c1.292-2.866 3.626-5.056 6.566-6.167s6.138-1.012 9.005.284a11.69 11.69 0 0 1 6.167 6.566c2.295 6.071-.779 12.877-6.85 15.172a11.75 11.75 0 0 1-4.147.76zm3.422-2.681h.006-.006zm-3.432-16.762a7.68 7.68 0 0 0-2.713.498c-1.915.725-3.434 2.151-4.277 4.016a7.63 7.63 0 0 0-.185 5.867 7.68 7.68 0 0 0 9.882 4.462 7.62 7.62 0 0 0 4.278-4.019 7.63 7.63 0 0 0 .185-5.864c-.725-1.915-2.152-3.435-4.016-4.277a7.69 7.69 0 0 0-3.154-.683zm.093 34.573a26.04 26.04 0 0 1-2.062-.08l-.588-.051c-.354-.035-.616-.332-.616-.68 0-.022 0-.045.004-.067.038-.377.376-.648.746-.613a25.93 25.93 0 0 0 5.478-.045c12.622-1.446 22.08-11.846 22.76-24.123.025-.469.038-.938.038-1.414 0-.974-.054-1.96-.169-2.95-.782-6.828-4.175-12.941-9.557-17.215a25.56 25.56 0 0 0-18.929-5.417c-13.104 1.5-22.798 12.65-22.801 25.537 0 .974.054 1.96.169 2.95a25.66 25.66 0 0 0 5.126 12.708c.096.124.141.271.141.415 0 .204-.093.409-.268.543-.301.23-.728.172-.958-.128-2.972-3.878-4.839-8.507-5.398-13.384-.118-1.044-.179-2.081-.179-3.106.004-13.57 10.212-25.313 24.011-26.893a26.94 26.94 0 0 1 19.938 5.704c5.666 4.501 9.241 10.939 10.065 18.131a27.66 27.66 0 0 1 .178 3.106c-.003 13.57-10.211 25.313-24.01 26.893a27.65 27.65 0 0 1-3.119.179z"/><g class="C"><path d="M230.497 111.642a.68.68 0 0 1-.6-.354l-.798-1.548c-.166-.339-.022-.751.316-.913s.747-.026.913.316l.769 1.487c.182.332.061.747-.271.929a.73.73 0 0 1-.329.083zm-2.088-4.571a.68.68 0 0 1-.641-.447l-1.028-3.221a.683.683 0 1 1 1.321-.351l.987 3.1c.131.354-.048.747-.402.881-.077.025-.16.038-.237.038zm-1.714-6.4c-.328 0-.616-.236-.673-.571l-.125-.776-.284-2.579c-.029-.377.256-.706.632-.734a.68.68 0 0 1 .734.632l.275 2.48.118.747c.064.373-.188.724-.562.788-.038.01-.076.013-.115.013zm-.491-6.608c-.39-.006-.69-.319-.683-.699l.229-3.374a.68.68 0 0 1 1.357.157l-.22 3.243c-.007.377-.31.674-.683.674zm.763-6.582c-.048 0-.096-.003-.144-.016-.37-.08-.603-.444-.527-.811l.862-3.269c.115-.361.498-.562.859-.447s.558.498.447.859l-.83 3.144a.68.68 0 0 1-.667.539zm1.991-6.32a.7.7 0 0 1-.264-.054c-.348-.147-.511-.549-.364-.897l1.465-3.049c.179-.332.594-.456.926-.278s.456.594.277.926l-1.407 2.934c-.112.262-.364.418-.633.418zm3.148-5.832c-.131 0-.262-.038-.38-.115-.313-.211-.399-.635-.188-.948l2.008-2.72a.683.683 0 0 1 1.059.862l-1.931 2.618a.68.68 0 0 1-.568.303zm4.182-5.139a.67.67 0 0 1-.479-.198.69.69 0 0 1-.01-.967l2.48-2.295c.288-.243.722-.208.964.083s.208.722-.083.964l-2.387 2.209c-.131.137-.307.204-.485.204zm5.072-4.262a.68.68 0 0 1-.562-.294c-.214-.31-.137-.737.172-.951l2.87-1.788c.329-.182.747-.067.932.265s.067.747-.265.932l-2.758 1.717c-.121.077-.258.118-.389.118zm5.781-3.23c-.262 0-.514-.153-.626-.408a.68.68 0 0 1 .351-.9l3.157-1.213c.361-.118.744.077.865.434s-.076.744-.434.865l-3.036 1.165a.72.72 0 0 1-.277.057zm22.727-1.909c-.054 0-.111-.006-.169-.022l-3.186-.645c-.373-.057-.628-.405-.571-.779s.409-.629.779-.571l3.313.673c.367.093.588.466.495.83-.077.306-.357.514-.661.514zm-16.439-.172c-.313 0-.594-.214-.667-.533a.69.69 0 0 1 .514-.82l2.799-.523.527-.074a.68.68 0 0 1 .766.587c.048.373-.214.718-.587.766l-.508.07-2.694.504a.4.4 0 0 1-.15.022zm9.889-.833h-.041l-3.253-.032c-.374.016-.696-.281-.709-.658s.281-.696.658-.709l3.38.032c.377.022.664.345.645.721a.68.68 0 0 1-.68.645zm11.354 2.597a.7.7 0 0 1-.262-.051l-1.564-.603c-.354-.128-.539-.52-.412-.875a.68.68 0 0 1 .875-.412l1.625.626c.348.144.514.546.37.894a.68.68 0 0 1-.632.421z" class="C"/><path d="M294.026 82.213c-.274 0-.533-.166-.638-.44l-.639-1.548a.68.68 0 0 1 .351-.9c.345-.15.75.003.901.351l.663 1.612c.135.351-.041.747-.392.884a.75.75 0 0 1-.246.041zm-32.789 47.674c-.996 0-2.001-.042-2.988-.125-.376-.032-.654-.364-.625-.737s.363-.658.737-.626c1.146.096 2.314.138 3.476.115.386.01.69.294.696.67s-.294.69-.67.696l-.626.007zm4.15-.246a.68.68 0 0 1-.677-.603c-.045-.377.223-.715.6-.76l.974-.128 2.454-.45c.367-.08.735.15.814.52a.68.68 0 0 1-.52.814l-2.554.47-1.011.134-.08.003zm-10.598-.354a.64.64 0 0 1-.128-.013l-3.514-.849c-.364-.109-.568-.489-.463-.849s.488-.569.849-.463a34.28 34.28 0 0 0 3.38.817c.371.07.617.428.546.798-.06.329-.348.559-.67.559zm17.515-1.175a.68.68 0 0 1-.648-.469.69.69 0 0 1 .434-.865c1.098-.361 2.19-.786 3.243-1.255.345-.153.75 0 .904.345s0 .75-.345.903l-3.371 1.306a.76.76 0 0 1-.217.035zm6.467-2.892c-.236 0-.466-.121-.594-.342-.188-.328-.076-.743.253-.935l2.92-1.883c.307-.221.735-.15.955.156s.15.734-.157.955c-.973.702-1.995 1.359-3.035 1.96a.71.71 0 0 1-.342.089zm5.746-4.134c-.188 0-.377-.076-.511-.23-.249-.284-.223-.715.058-.964.865-.766 1.698-1.583 2.483-2.432a.68.68 0 0 1 .967-.038c.278.255.294.689.039.967-.814.884-1.683 1.736-2.583 2.531a.7.7 0 0 1-.453.166zm4.804-5.206c-.144 0-.287-.045-.409-.137-.303-.227-.364-.655-.137-.958l1.947-2.882a.683.683 0 1 1 1.169.708l-2.024 2.994c-.134.179-.339.275-.546.275zm3.665-6.065a.69.69 0 0 1-.294-.067.68.68 0 0 1-.326-.91l1.331-3.214c.128-.355.517-.543.875-.415a.68.68 0 0 1 .415.874 36.49 36.49 0 0 1-1.382 3.342c-.118.246-.364.39-.619.39zm2.374-6.675a.69.69 0 0 1-.162-.019c-.367-.089-.591-.46-.502-.827a34.55 34.55 0 0 0 .655-3.415c.051-.373.396-.638.772-.584s.636.396.584.772a36.01 36.01 0 0 1-.679 3.553.69.69 0 0 1-.668.52zm.977-7.016h-.025c-.377-.013-.674-.332-.658-.709l.022-1.248-.073-2.228c-.026-.377.262-.702.638-.728a.69.69 0 0 1 .728.638l.074 2.317-.023 1.299c-.012.367-.316.658-.683.658zm-.456-7.07a.68.68 0 0 1-.674-.571 34.07 34.07 0 0 0-.74-3.4c-.099-.364.118-.741.482-.84a.69.69 0 0 1 .839.482 36.31 36.31 0 0 1 .769 3.534c.061.373-.191.725-.561.785-.042.006-.08.01-.115.01zm-47.92 38.209a.67.67 0 0 1-.259-.051l-1.592-.702c-.342-.16-.489-.569-.329-.91s.568-.489.91-.329l1.532.674c.348.143.517.542.373.893a.69.69 0 0 1-.635.425z" class="C"/></g><path opacity=".56" d="M261.249 99.99c-2.48 0-4.823-1.516-5.752-3.971-.581-1.535-.526-3.202.147-4.699a6.11 6.11 0 0 1 3.425-3.218c1.536-.581 3.202-.527 4.699.147a6.11 6.11 0 0 1 3.218 3.425 6.15 6.15 0 0 1-3.576 7.916 6.04 6.04 0 0 1-2.161.399zm1.922-1.037h.006-.006zm-1.928-9.883a4.75 4.75 0 0 0-1.689.31 4.78 4.78 0 0 0-2.777 6.154c.929 2.461 3.69 3.706 6.155 2.777a4.78 4.78 0 0 0 2.777-6.151 4.73 4.73 0 0 0-2.5-2.662 4.77 4.77 0 0 0-1.966-.428zm.055 20.184a14.85 14.85 0 0 1-.559-.01l-.852-.054c-.016 0-.035-.003-.051-.003s-.032-.003-.048-.003c-.361-.036-.623-.332-.623-.68 0-.023 0-.045.004-.067a.68.68 0 0 1 .746-.613c.996.099 2.011.089 3.014-.026 7.52-.862 13.001-7.504 12.506-14.98a18.23 18.23 0 0 0-.06-.686c-.888-7.75-7.91-13.336-15.664-12.446-7.204.827-12.535 6.956-12.538 14.042 0 .536.032 1.076.092 1.622a14.12 14.12 0 0 0 2.819 6.988c.096.124.14.271.14.415a.68.68 0 0 1-1.225.415 15.54 15.54 0 0 1-3.094-7.665 15.95 15.95 0 0 1-.102-1.778c0-7.77 5.848-14.495 13.749-15.402 8.497-.974 16.206 5.149 17.179 13.649.067.597.103 1.191.103 1.778 0 7.769-5.848 14.495-13.749 15.402-.016.003-.032.003-.048.006a15.89 15.89 0 0 1-1.739.096z"/><path d="M129.642 252.823l-1.726.673-.02.007c-.293.114-.625-.032-.74-.326s.032-.626.325-.741l1.769-.686c.294-.115.626.032.737.326a.57.57 0 0 1-.325.737l-.02.01zm-6.75 3.063l-1.615.913-.016.009a.581.581 0 0 1-.572-1.011l1.654-.929a.58.58 0 0 1 .788.22.58.58 0 0 1-.22.788l-.019.01zm-6.267 3.975l-1.481 1.12-.016.013a.59.59 0 0 1-.823-.115.59.59 0 0 1 .115-.823l1.513-1.14c.258-.195.625-.144.82.115s.144.626-.115.82l-.013.01zm-5.707 4.753l-1.334 1.293-.013.013c-.236.23-.613.223-.843-.013s-.223-.613.013-.843l1.363-1.315c.236-.226.613-.22.839.016s.221.613-.016.84l-.009.009zm-5.107 5.401l-1.181 1.437-.01.012c-.211.259-.59.294-.849.083s-.294-.59-.083-.849l1.203-1.462c.211-.255.591-.293.846-.083a.6.6 0 0 1 .083.846l-.009.016zm-4.482 5.934l-1.021 1.555-.01.012a.61.61 0 0 1-.846.176c-.281-.185-.361-.565-.176-.846l1.04-1.58a.611.611 0 1 1 1.019.674l-.007.009zm-3.843 6.368l-.859 1.651-.006.012a.62.62 0 0 1-.836.262.62.62 0 0 1-.262-.836l.878-1.676a.62.62 0 0 1 .833-.262.62.62 0 0 1 .262.833l-.01.016zm-3.195 6.723l-.696 1.727-.006.013a.63.63 0 0 1-.817.348.63.63 0 0 1-.348-.817l.709-1.753c.131-.319.495-.476.814-.345s.476.495.345.814v.013zm-2.525 6.996l-.527 1.785-.003.016c-.099.335-.453.53-.788.431a.64.64 0 0 1-.431-.789l.536-1.813c.099-.335.45-.526.785-.428s.527.451.428.786v.012zm-1.842 7.212l-.351 1.826-.003.016a.64.64 0 0 1-1.261-.239l.361-1.858a.641.641 0 1 1 1.258.243l-.003.012zm-1.127 7.351l-.166 1.851v.016a.651.651 0 1 1-1.296-.115l.172-1.883a.65.65 0 0 1 .706-.587c.357.031.619.347.587.705l-.003.013zm-.38 7.425l.025 1.858v.016a.66.66 0 0 1-.648.667.66.66 0 0 1-.667-.648l-.022-1.893a.66.66 0 0 1 .648-.664.66.66 0 0 1 .664.648v.016zm.38 7.424l.208 1.848.003.016a.67.67 0 0 1-.587.738.67.67 0 0 1-.737-.588l-.208-1.88c-.041-.364.223-.692.587-.734s.693.223.734.587v.013zm1.098 7.358l.383 1.819.003.016c.077.364-.156.722-.52.798s-.721-.156-.798-.52l-.386-1.851a.672.672 0 1 1 1.315-.275l.003.013zm1.781 7.224l.549 1.778.003.016a.681.681 0 1 1-1.302.402l-.555-1.81c-.108-.357.093-.737.45-.849a.68.68 0 0 1 .849.45l.006.013zm2.436 7.032l.705 1.721.006.013a.69.69 0 1 1-1.277.523l-.715-1.752a.69.69 0 0 1 .377-.897.69.69 0 0 1 .897.376l.006.016zm3.055 6.787l.855 1.653.006.013c.176.342.045.763-.3.939s-.763.044-.938-.3l-.865-1.683c-.175-.341-.041-.759.3-.935s.76-.041.935.3l.006.013zm3.632 6.493l.996 1.57.01.013c.207.329.111.763-.217.97s-.763.112-.971-.217l-1.008-1.599a.703.703 0 1 1 1.191-.747v.01zm4.185 6.154l1.13 1.478.009.013a.713.713 0 1 1-1.133.865l-1.142-1.507a.71.71 0 0 1 .137-.996c.313-.236.756-.175.996.138l.003.009zm4.705 5.762l1.255 1.372.009.013a.721.721 0 1 1-1.066.97l-1.274-1.401a.72.72 0 0 1 .048-1.015c.294-.268.747-.246 1.015.048l.013.013zm5.197 5.32l1.373 1.255.012.013c.297.271.316.731.045 1.027a.73.73 0 0 1-1.028.045l-1.395-1.28c-.294-.271-.316-.731-.045-1.025s.731-.316 1.025-.044l.013.009zm5.656 4.825l1.485 1.12.012.01c.323.246.39.705.144 1.031a.74.74 0 0 1-1.031.144l-1.51-1.146c-.322-.246-.386-.706-.14-1.028s.705-.386 1.028-.141l.012.01zm6.088 4.26l1.583.971.016.009c.351.214.46.671.246 1.022s-.671.459-1.022.246l-1.615-.993a.74.74 0 1 1 .776-1.261l.016.006zm6.476 3.637l1.673.807.016.007a.751.751 0 1 1-.651 1.353l-1.705-.827a.75.75 0 0 1-.348-.999.75.75 0 0 1 .999-.348l.016.007zm6.806 2.984l1.742.644.016.007a.76.76 0 0 1 .45.973.76.76 0 0 1-.973.45l-1.775-.66a.76.76 0 0 1-.447-.974.76.76 0 0 1 .974-.447l.013.007zm7.058 2.324l1.797.479.016.003a.77.77 0 0 1 .542.939c-.108.408-.529.651-.938.542l-1.829-.491c-.409-.109-.651-.53-.54-.936a.76.76 0 0 1 .936-.539l.016.003zm7.242 1.66l1.832.312.016.004a.774.774 0 0 1-.261 1.525h-.004l-1.867-.322a.771.771 0 1 1 .262-1.519h.022zm7.365.999l1.854.147h.016c.431.035.75.411.718.842s-.411.75-.842.719h-.003l-1.887-.154a.78.78 0 0 1-.715-.839.78.78 0 0 1 .839-.715h.02zm7.428.348l1.857-.012h.016a.79.79 0 1 1 .01 1.58h-.003l-1.893.009a.79.79 0 0 1-.792-.785.79.79 0 0 1 .785-.792h.02zm7.431-.285l1.851-.166h.016c.437-.039.824.284.862.718s-.284.824-.718.862l-1.887.169c-.437.038-.82-.284-.862-.718s.284-.821.719-.862l.019-.003zm7.379-.896l1.833-.319.016-.004a.79.79 0 0 1 .919.648c.077.434-.214.846-.648.92l-1.864.322c-.434.077-.843-.214-.92-.648s.214-.843.648-.919h.016zm7.289-1.501l1.8-.466.016-.003c.428-.112.862.147.97.571a.8.8 0 0 1-.571.971l-1.832.472a.8.8 0 0 1-.971-.571.8.8 0 0 1 .572-.971l.016-.003zm7.14-2.081l1.759-.609.016-.007a.8.8 0 0 1 1.015.495.8.8 0 0 1-.495 1.015l-1.788.619c-.418.144-.871-.076-1.015-.494s.077-.872.495-1.015l.013-.004zm6.952-2.646l1.705-.747.016-.007c.405-.178.877.007 1.056.412a.8.8 0 0 1-.412 1.057l-1.733.76a.8.8 0 0 1-1.053-.412c-.179-.406.006-.878.411-1.054l.01-.009zm6.726-3.186l1.644-.872.013-.006c.392-.208.878-.058 1.085.332s.058.878-.332 1.085l-1.669.884c-.393.208-.878.058-1.086-.332s-.057-.878.332-1.085l.013-.006zm6.486-3.658l1.584-.983.009-.006c.377-.233.875-.118 1.108.259s.118.874-.259 1.107l-1.605.996a.81.81 0 0 1-1.108-.258c-.233-.377-.118-.872.262-1.108l.009-.007zm6.241-4.077l1.523-1.079.009-.006c.364-.259.865-.172 1.124.191s.172.866-.192 1.124l-1.541 1.092c-.364.258-.865.172-1.124-.192s-.172-.865.192-1.123l.009-.007zm5.995-4.44l1.462-1.162.009-.006a.81.81 0 0 1 1.137.131.81.81 0 0 1-.131 1.136l-1.478 1.175c-.348.278-.856.22-1.133-.131s-.221-.855.131-1.133l.003-.01zm5.755-4.752l1.405-1.233.006-.006a.81.81 0 0 1 1.143.073c.294.336.262.85-.073 1.143l-1.418 1.242a.81.81 0 0 1-1.142-.077.81.81 0 0 1 .076-1.142h.003zm5.535-5.016l1.35-1.29.007-.006a.811.811 0 1 1 1.12 1.172l-1.363 1.299a.811.811 0 1 1-1.117-1.175h.003zm5.335-5.234l1.305-1.338.003-.003a.813.813 0 1 1 1.162 1.137l-1.315 1.347c-.313.322-.827.325-1.149.012s-.326-.826-.013-1.149l.007-.006zm5.161-5.411l1.267-1.375.003-.004c.303-.332.821-.351 1.153-.048s.351.821.047 1.153l-1.273 1.385c-.303.332-.821.351-1.149.048s-.351-.82-.048-1.149v-.01zm5.018-5.554l1.235-1.407.003-.004a.82.82 0 0 1 1.153-.076.82.82 0 0 1 .076 1.152l-1.242 1.414c-.296.338-.814.374-1.152.074s-.373-.811-.073-1.153zm4.897-5.666l1.21-1.43.003-.004c.29-.344.807-.389 1.152-.095s.39.807.096 1.152l-1.213 1.433a.82.82 0 0 1-1.152.096c-.345-.29-.39-.808-.096-1.152zm4.81-5.749l1.191-1.446c.287-.351.804-.402 1.152-.115a.82.82 0 0 1 .115 1.156v.003l-1.194 1.449a.821.821 0 0 1-1.264-1.047zm4.746-5.803l1.181-1.456a.822.822 0 0 1 1.277 1.034l-1.181 1.459c-.287.351-.804.406-1.155.122s-.409-.805-.122-1.159zm4.712-5.836l1.174-1.462c.285-.354.805-.411 1.159-.124s.412.804.125 1.159l-1.178 1.462c-.284.354-.805.408-1.159.124a.83.83 0 0 1-.121-1.159zm4.709-5.845l1.178-1.458c.287-.355.804-.409 1.161-.125a.83.83 0 0 1 .125 1.162l-1.178 1.459c-.287.354-.804.408-1.159.124a.82.82 0 0 1-.127-1.162zm4.727-5.834l1.187-1.452a.83.83 0 0 1 1.165-.119.83.83 0 0 1 .118 1.165v.004l-1.187 1.449c-.287.354-.808.405-1.162.118a.83.83 0 0 1-.121-1.165zm4.779-5.797l1.206-1.44a.83.83 0 0 1 1.168-.105.83.83 0 0 1 .106 1.168l-.003.003-1.204 1.437a.83.83 0 0 1-1.165.108.83.83 0 0 1-.108-1.171zm4.855-5.739l1.229-1.424a.831.831 0 1 1 1.258 1.086l-.004.003-1.225 1.417-.004.003a.83.83 0 0 1-1.171.086.83.83 0 0 1-.083-1.171zm4.96-5.653l1.261-1.398c.306-.341.833-.367 1.175-.061s.367.834.06 1.175l-.003.003-1.255 1.389-.003.003a.831.831 0 1 1-1.235-1.111zm5.092-5.543l1.296-1.363a.833.833 0 1 1 1.206 1.149l-.003.003-1.289 1.354-.004.003c-.316.332-.846.348-1.178.029a.83.83 0 0 1-.028-1.175zm5.25-5.397l1.341-1.321c.329-.326.859-.32 1.181.006a.84.84 0 0 1-.006 1.181l-.007.006-1.331 1.312-.006.007c-.329.322-.859.319-1.181-.01s-.319-.858.009-1.181zm5.437-5.22l1.391-1.273a.84.84 0 0 1 1.185.051.84.84 0 0 1-.051 1.184l-.007.006-1.379 1.261-.006.007c-.342.313-.872.287-1.181-.055a.83.83 0 0 1 .048-1.181zm5.643-5.002l1.446-1.21a.84.84 0 0 1 1.182.105.84.84 0 0 1-.106 1.182l-.006.006-1.43 1.197-.007.006a.84.84 0 0 1-1.181-.105.84.84 0 0 1 .102-1.181zm5.87-4.739l1.507-1.136a.84.84 0 0 1 1.178.166c.281.37.207.897-.166 1.177l-.01.007-1.487 1.123-.01.007a.84.84 0 0 1-1.178-.166c-.277-.37-.204-.897.166-1.178zm6.123-4.422l1.567-1.05c.387-.258.91-.156 1.169.23a.84.84 0 0 1-.23 1.168l-.01.007-1.548 1.037-.009.007c-.387.258-.91.153-1.169-.234a.84.84 0 0 1 .23-1.165zm6.362-4.065l1.625-.961c.402-.236.919-.105 1.155.297s.106.919-.297 1.156l-.009.006-1.606.948-.009.006c-.403.237-.92.103-1.156-.296a.85.85 0 0 1 .297-1.156zm6.582-3.703l1.676-.869c.415-.213.926-.051 1.139.364s.052.926-.363 1.14l-.01.006-1.657.856-.009.006c-.415.214-.926.051-1.14-.364s-.051-.925.364-1.139zm6.777-3.334l1.72-.772a.85.85 0 0 1 1.121.424.85.85 0 0 1-.425 1.121l-.01.006-1.701.763-.01.003c-.427.192-.928 0-1.12-.427a.84.84 0 0 1 .425-1.118zm6.949-2.949l1.762-.677a.85.85 0 1 1 .609 1.587l-.009.003-1.74.667-.009.003a.85.85 0 0 1-1.098-.488c-.17-.434.047-.926.485-1.095zm7.102-2.563l1.797-.581c.447-.144.929.102 1.073.549s-.102.929-.549 1.073l-.01.003-1.775.571-.009.003c-.447.144-.926-.102-1.073-.549s.099-.925.546-1.069zm7.23-2.174l1.826-.482c.457-.121.923.15 1.044.606s-.15.923-.607 1.044l-.009.003-1.804.476-.012.003a.85.85 0 0 1-1.041-.606c-.124-.46.147-.926.603-1.044z"/><path d="M382.396 247.063l1.848-.383c.463-.096.916.201 1.012.664s-.201.916-.664 1.012l-.013.003-1.826.377-.013.003c-.462.096-.912-.201-1.008-.664a.86.86 0 0 1 .664-1.012zm7.424-1.381l1.868-.284a.86.86 0 0 1 .977.718.86.86 0 0 1-.719.977l-.012.003-1.845.278-.013.003a.86.86 0 0 1-.974-.718c-.073-.47.249-.907.718-.977zm7.482-.984l1.881-.182a.86.86 0 0 1 .938.773.86.86 0 0 1-.772.938h-.013l-1.855.179h-.013c-.472.045-.89-.3-.935-.773a.86.86 0 0 1 .769-.935zm7.528-.58l1.886-.083a.86.86 0 0 1 .897.82.86.86 0 0 1-.82.897h-.013l-1.864.08h-.013c-.475.019-.874-.348-.897-.82-.016-.473.351-.875.824-.894zm7.549-.179l1.887.019a.862.862 0 0 1-.02 1.723h-.012l-1.864-.019h-.013c-.476-.006-.859-.396-.853-.871s.399-.859.875-.852zm7.546.223l1.883.118c.476.029.836.44.808.916s-.441.836-.916.808h-.013l-1.861-.119h-.013c-.476-.028-.836-.44-.807-.916a.87.87 0 0 1 .919-.807zm7.524.629l1.873.221c.476.054.814.485.76.96s-.485.814-.961.76h-.012l-1.852-.217h-.013c-.475-.057-.814-.485-.756-.961a.87.87 0 0 1 .961-.763zm7.479 1.034l1.861.323c.472.083.788.53.705 1.002s-.53.788-1.002.705l-.013-.003-1.835-.319-.013-.003c-.473-.083-.789-.53-.706-1.002s.53-.786 1.003-.703zm7.412 1.437l1.838.421c.47.108.76.574.652 1.04a.87.87 0 0 1-1.041.652l-.013-.004-1.816-.418-.013-.003a.87.87 0 0 1-.651-1.04.87.87 0 0 1 1.044-.648zm7.323 1.838l1.813.524c.463.134.727.616.597 1.079s-.616.727-1.079.597l-.013-.004-1.791-.517-.013-.003a.873.873 0 1 1 .486-1.676zm7.211 2.239l1.781.622a.87.87 0 0 1 .536 1.111c-.16.453-.658.696-1.111.536l-.013-.003-1.758-.616-.013-.003c-.453-.16-.696-.658-.536-1.111s.66-.696 1.114-.536zm7.076 2.635l1.746.722a.88.88 0 0 1 .476 1.143.88.88 0 0 1-1.143.475l-.013-.003-1.723-.712-.013-.003c-.447-.185-.658-.696-.473-1.143s.699-.664 1.143-.479zm6.921 3.031l1.701.817c.438.21.62.734.409 1.168s-.734.619-1.168.409l-.01-.007-1.679-.807-.01-.007c-.434-.21-.619-.734-.408-1.168a.87.87 0 0 1 1.165-.405zm6.735 3.415l1.654.913a.88.88 0 0 1 .344 1.194.88.88 0 0 1-1.194.344l-.009-.006-1.631-.903-.01-.007c-.424-.233-.578-.769-.341-1.19a.87.87 0 0 1 1.187-.345zm6.531 3.795l1.599 1.006a.88.88 0 0 1 .275 1.213.88.88 0 0 1-1.213.274l-.01-.006-1.577-.993-.009-.006a.88.88 0 0 1-.275-1.213.88.88 0 0 1 1.21-.275zm6.304 4.162l1.539 1.088c.396.281.491.83.211 1.229a.88.88 0 0 1-1.229.211l-.007-.006-1.522-1.079-.007-.007c-.396-.281-.491-.83-.21-1.229s.826-.488 1.225-.207zm6.091 4.434l1.5 1.137a.884.884 0 0 1-1.069 1.407l-.003-.003-1.491-1.13-.003-.003a.883.883 0 1 1 1.066-1.408zm5.957 4.587l1.478 1.159c.383.3.453.858.15 1.241s-.859.454-1.242.15l-1.475-1.155c-.386-.3-.453-.856-.153-1.242s.859-.453 1.242-.153zm5.905 4.638l1.475 1.156c.386.3.456.858.153 1.245s-.859.456-1.245.153h-.003l-1.478-1.159c-.386-.303-.453-.859-.15-1.245a.89.89 0 0 1 1.248-.15zm5.921 4.588l1.494 1.127.003.003c.393.297.469.852.173 1.245a.89.89 0 0 1-1.245.172l-1.501-1.136a.89.89 0 0 1-.172-1.245.89.89 0 0 1 1.245-.173l.003.007zm6.017 4.439l1.526 1.073.01.006a.89.89 0 0 1 .217 1.239.89.89 0 0 1-1.239.217l-1.541-1.086c-.403-.284-.498-.836-.214-1.238s.836-.498 1.238-.214l.003.003zm6.177 4.175l1.577.99.013.006a.891.891 0 0 1-.948 1.51l-1.603-1.005a.891.891 0 1 1 .948-1.51l.013.009zm6.406 3.781l1.644.865.016.01c.437.229.603.769.377 1.206s-.769.603-1.207.377l-1.679-.884c-.437-.23-.603-.77-.373-1.207a.89.89 0 0 1 1.206-.373l.016.006zm6.685 3.216l1.717.693.022.01c.46.185.68.705.495 1.165a.89.89 0 0 1-1.165.494l-1.762-.711c-.456-.185-.68-.706-.495-1.165s.706-.68 1.165-.495l.023.009zm6.971 2.459l1.785.472.029.006a.9.9 0 0 1 .635 1.099.9.9 0 0 1-1.098.635l-1.842-.489c-.479-.127-.763-.619-.635-1.094a.9.9 0 0 1 1.098-.636l.028.007zm7.214 1.509l1.829.211.036.003a.9.9 0 0 1 .788.996.9.9 0 0 1-.996.789l-1.896-.221a.9.9 0 0 1-.788-.996.9.9 0 0 1 .996-.788l.031.006zm7.339.402l1.835-.092.039-.003a.901.901 0 1 1 .089 1.8l-1.912.096a.9.9 0 1 1-.086-1.798l.035-.003zm7.304-.819l1.8-.389.035-.007c.488-.105.967.204 1.073.69a.9.9 0 0 1-.69 1.072l-1.867.402c-.486.106-.968-.204-1.073-.692s.204-.967.693-1.073l.029-.003zm7.089-1.968l1.724-.657.032-.013a.903.903 0 1 1 .642 1.689l-1.785.68c-.466.178-.989-.058-1.165-.524a.9.9 0 0 1 .524-1.165l.028-.01zm6.742-2.984l1.618-.888.026-.012c.437-.24.989-.08 1.229.357s.08.99-.358 1.229l-1.669.916c-.437.24-.99.08-1.229-.357s-.08-.99.357-1.229l.026-.016zm6.295-3.862l1.497-1.085.022-.016a.91.91 0 0 1 1.267.201c.294.406.205.974-.201 1.267l-1.542 1.118a.91.91 0 0 1-1.267-.201.91.91 0 0 1 .201-1.268l.023-.016zm5.781-4.606l1.36-1.255.019-.016a.91.91 0 0 1 1.283.052.91.91 0 0 1-.051 1.283l-1.398 1.289a.91.91 0 0 1-1.284-.051.91.91 0 0 1 .051-1.283l.02-.019zm5.228-5.238l1.216-1.398.016-.019c.329-.38.907-.419 1.287-.09s.418.907.089 1.287l-1.248 1.433a.91.91 0 0 1-1.373-1.194l.013-.019zm4.635-5.775l1.063-1.517.013-.019a.912.912 0 0 1 1.494 1.047l-1.089 1.558c-.29.412-.859.514-1.27.224s-.514-.859-.224-1.271l.013-.022zm4.003-6.231l.897-1.622.013-.022c.245-.441.801-.6 1.241-.358s.6.801.358 1.242l-.923 1.66c-.246.44-.801.6-1.241.354s-.601-.801-.355-1.242l.01-.012zm3.335-6.614l.725-1.704.01-.022c.197-.466.734-.684 1.2-.486s.683.735.485 1.201l-.744 1.749c-.198.466-.734.683-1.2.485s-.683-.734-.485-1.2l.009-.023zm2.618-6.924l.536-1.772.007-.025a.92.92 0 0 1 1.146-.613.92.92 0 0 1 .613 1.146l-.553 1.819a.91.91 0 0 1-1.142.61c-.486-.147-.76-.661-.61-1.143l.003-.022zm1.88-7.169l.364-1.819.004-.019a.92.92 0 0 1 1.082-.722.92.92 0 0 1 .721 1.082l-.373 1.861a.92.92 0 0 1-1.082.722.92.92 0 0 1-.722-1.082l.006-.023zm1.207-7.32l.198-1.845.003-.019c.054-.504.508-.871 1.015-.817a.92.92 0 0 1 .817 1.015l-.204 1.887c-.054.504-.508.871-1.015.817a.92.92 0 0 1-.817-1.015l.003-.023zm.555-7.402l.042-1.858v-.019c.013-.511.434-.913.942-.903s.912.434.903.941l-.042 1.897a.921.921 0 1 1-1.841-.042l-.004-.016zm-.063-7.427l-.109-1.855v-.019c-.029-.511.358-.948.868-.977s.948.358.977.868l.112 1.89c.029.511-.361.948-.868.977a.93.93 0 0 1-.977-.868l-.003-.016zm-.651-7.404l-.253-1.842-.003-.016a.93.93 0 0 1 .792-1.044.93.93 0 0 1 1.044.792l.255 1.877c.07.508-.287.974-.792 1.044a.93.93 0 0 1-1.043-.792v-.019zm-1.211-7.335l-.386-1.819-.003-.016c-.105-.501.214-.993.715-1.102a.93.93 0 0 1 1.101.715l.393 1.852a.93.93 0 0 1-.715 1.101.93.93 0 0 1-1.101-.715l-.004-.016zm-1.736-7.233l-.514-1.787-.003-.016a.93.93 0 0 1 .638-1.149.93.93 0 0 1 1.15.638l.52 1.819a.93.93 0 0 1-.639 1.15.93.93 0 0 1-1.149-.639l-.003-.016zm-2.234-7.093l-.635-1.749-.007-.016a.932.932 0 0 1 1.753-.635l.645 1.778a.93.93 0 0 1-.559 1.194c-.485.175-1.018-.077-1.194-.559l-.003-.013zm-2.714-6.93l-.75-1.701-.006-.013c-.208-.472.006-1.021.479-1.232s1.021.006 1.232.479l.763 1.73c.207.472-.007 1.021-.479 1.229a.93.93 0 0 1-1.229-.479l-.01-.013zm-3.169-6.733l-.862-1.647-.007-.012c-.239-.457-.063-1.022.396-1.261a.93.93 0 0 1 1.261.396l.875 1.675c.239.457.06 1.022-.396 1.261s-1.022.061-1.261-.396l-.006-.016zm-3.614-6.501l-.97-1.586-.01-.013a.94.94 0 0 1 .31-1.289c.44-.272 1.018-.131 1.289.309l.987 1.615c.271.441.13 1.019-.31 1.287s-1.018.131-1.286-.31l-.01-.013zm-4.041-6.241l-1.082-1.506-.013-.016c-.3-.418-.204-.999.214-1.303a.93.93 0 0 1 1.299.211l1.114 1.535c.303.419.211 1.003-.207 1.306s-1.003.211-1.306-.208l-.003-.003-.016-.016zm-4.517-5.898l-1.194-1.43-.009-.009c-.326-.39-.275-.968.114-1.293s.964-.278 1.29.112l1.219 1.446a.922.922 0 1 1-1.41 1.187l-.004-.003-.006-.01zm-4.9-5.622l-1.267-1.369-.006-.007c-.339-.367-.316-.938.048-1.277a.9.9 0 0 1 1.273.045l1.287 1.379a.91.91 0 0 1-.045 1.283c-.367.342-.942.323-1.283-.044l-.003-.004-.004-.006zm-5.158-5.401l-1.322-1.322-.006-.006a.89.89 0 0 1 0-1.258c.348-.348.906-.351 1.254-.003l1.338 1.325c.351.348.351.913.006 1.264s-.913.354-1.264.006l-.003-.003-.003-.003zm-5.353-5.216l-1.363-1.28-.003-.003c-.351-.332-.371-.884-.039-1.235s.881-.374 1.236-.042l1.379 1.283a.88.88 0 0 1 .044 1.242c-.332.355-.887.377-1.241.045l-.003-.003-.01-.007zm-5.51-5.063l-1.398-1.242-.003-.003a.861.861 0 0 1 1.143-1.289l1.41 1.244c.358.316.393.862.077 1.22s-.862.392-1.219.076l-.003-.003-.007-.003zm-5.64-4.918l-1.424-1.213-.003-.003a.84.84 0 0 1-.096-1.185.84.84 0 0 1 1.178-.099l1.443 1.207a.85.85 0 1 1-1.089 1.306l-.006-.007-.003-.006zm-5.736-4.807l-1.453-1.181-.003-.003a.8.8 0 0 1-.115-1.124.8.8 0 0 1 1.117-.121l1.472 1.171c.351.278.409.789.128 1.137a.81.81 0 0 1-1.137.127l-.003-.003-.006-.003zm-5.845-4.68l-1.478-1.152-.003-.003c-.329-.259-.39-.734-.131-1.063s.728-.389 1.056-.137l1.497 1.139a.77.77 0 0 1 .147 1.076.77.77 0 0 1-1.075.147l-.004-.003-.009-.004zm-5.944-4.555l-1.5-1.117-.004-.004c-.316-.236-.383-.686-.146-1.002s.68-.383.996-.15l1.519 1.108c.326.236.396.689.16 1.015s-.69.396-1.015.159l-.01-.009zm-6.043-4.422l-1.525-1.082-.004-.003c-.303-.217-.376-.638-.159-.942s.632-.373.935-.163l1.545 1.073c.313.217.389.642.172.954s-.641.39-.954.173l-.01-.01zm-6.141-4.287l-1.552-1.05-.003-.003a.62.62 0 0 1-.166-.855.62.62 0 0 1 .846-.173l1.577 1.028a.632.632 0 1 1-.689 1.06l-.013-.007zm-6.244-4.131l-1.58-1.002-.003-.003a.55.55 0 0 1-.169-.757c.159-.252.494-.329.75-.175l1.605.979c.269.163.352.511.189.779s-.511.351-.779.189l-.013-.01zm-6.378-3.923l-1.618-.942-.006-.003c-.23-.134-.31-.431-.176-.661a.48.48 0 0 1 .651-.178l1.644.916a.5.5 0 0 1 .192.68.5.5 0 0 1-.68.191zm-6.527-3.648l-1.386-.712-.006-.003a.4.4 0 0 1-.172-.536c.099-.192.335-.271.526-.176l1.414.687a.41.41 0 0 1 .192.555c-.099.208-.348.294-.556.192l-.012-.007z"/></g><path d="M513.019 94.344l-2.522 10.445-5.992-6.199 8.514-4.245z" fill="#7d97f4"/><path d="M467.487 77.008l22.239 31.557c.425.603 1.079 1.009 1.81 1.12a2.71 2.71 0 0 0 2.062-.526l30.842-23.523c.354-.268.508-.725.39-1.155a1.09 1.09 0 0 0-.923-.795l-56.42-6.678z" fill="#91b3fa"/><g fill="#7d97f4"><path d="M513.016 94.344l-45.529-17.336 40.562 21.148-.575 2.928 5.542-6.739z"/><path d="M505.089 100.393l5.408 4.396-2.449-6.633-2.959 2.237z"/></g><defs><linearGradient id="A" x1="676.432" y1="350.557" x2="441.155" y2="-55.83" xlink:href="#n"><stop stop-color="#e6ecfd"/><stop offset="1" stop-color="#e9effd"/></linearGradient><linearGradient id="B" x1="407.982" y1="500.523" x2="183.381" y2="112.576" xlink:href="#n"><stop stop-color="#e6ecfd"/><stop offset="1" stop-color="#e9effd"/></linearGradient><linearGradient id="C" x1="496.915" y1="262.285" x2="616.599" y2="262.285" xlink:href="#n"><stop stop-color="#dae3fe"/><stop offset="1" stop-color="#e9effd"/></linearGradient><linearGradient id="D" x1="57.116" y1="358.82" x2="149.357" y2="358.82" xlink:href="#n"><stop stop-color="#dae3fe"/><stop offset="1" stop-color="#e9effd"/></linearGradient><linearGradient id="E" x1="114.35" y1="127.32" x2="186.652" y2="127.32" xlink:href="#n"><stop stop-color="#dae3fe"/><stop offset="1" stop-color="#e9effd"/></linearGradient><linearGradient id="F" x1="58.249" y1="213.395" x2="146.942" y2="213.395" xlink:href="#n"><stop stop-color="#dae3fe"/><stop offset="1" stop-color="#e9effd"/></linearGradient><linearGradient id="G" x1="55.822" y1="294.637" x2="136.857" y2="294.637" xlink:href="#n"><stop stop-color="#dae3fe"/><stop offset="1" stop-color="#e9effd"/></linearGradient><linearGradient id="H" x1="321.744" y1="434.337" x2="322.562" y2="319.077" xlink:href="#n"><stop stop-color="#ff928e"/><stop offset="1" stop-color="#fe7062"/></linearGradient><linearGradient id="I" x1="249.769" y1="195.442" x2="247.639" y2="143.804" xlink:href="#n"><stop stop-color="#e1473d"/><stop offset="1" stop-color="#e9605a"/></linearGradient><linearGradient id="J" x1="247.072" y1="117.914" x2="257.719" y2="265.907" xlink:href="#n"><stop stop-color="#e1473d"/><stop offset="1" stop-color="#e9605a"/></linearGradient><linearGradient id="K" x1="393.633" y1="189.51" x2="391.503" y2="137.872" xlink:href="#n"><stop stop-color="#e1473d"/><stop offset="1" stop-color="#e9605a"/></linearGradient><linearGradient id="L" x1="390.55" y1="107.592" x2="401.197" y2="255.585" xlink:href="#n"><stop stop-color="#e1473d"/><stop offset="1" stop-color="#e9605a"/></linearGradient><linearGradient id="M" x1="331.454" y1="35.524" x2="317.08" y2="140.93" xlink:href="#n"><stop stop-color="#ff928e"/><stop offset="1" stop-color="#fe7062"/></linearGradient><linearGradient id="N" x1="318.252" y1="363.56" x2="326.427" y2="127.317" xlink:href="#n"><stop stop-color="#ff928e"/><stop offset="1" stop-color="#fe7062"/></linearGradient><linearGradient id="O" x1="339.613" y1="178.319" x2="318.851" y2="342.816" xlink:href="#n"><stop stop-color="#e1473d"/><stop offset="1" stop-color="#e9605a"/></linearGradient><linearGradient id="P" x1="303.687" y1="321.129" x2="387.39" y2="321.129" xlink:href="#n"><stop stop-color="#febbba"/><stop offset="1" stop-color="#ff928e"/></linearGradient><linearGradient id="Q" x1="416.548" y1="255.406" x2="421.469" y2="381.128" xlink:href="#n"><stop stop-color="#09005d"/><stop offset="1" stop-color="#1a0f91"/></linearGradient><linearGradient id="R" x1="244.491" y1="246.189" x2="200.645" y2="290.93" xlink:href="#n"><stop stop-color="#09005d"/><stop offset="1" stop-color="#1a0f91"/></linearGradient><linearGradient id="S" x1="355.631" y1="240.935" x2="155.11" y2="340.683" xlink:href="#n"><stop stop-color="#febbba"/><stop offset="1" stop-color="#ff928e"/></linearGradient><linearGradient id="T" x1="353.709" y1="224.552" x2="334.342" y2="244.78" xlink:href="#n"><stop stop-color="#febbba"/><stop offset="1" stop-color="#ff928e"/></linearGradient><linearGradient id="U" x1="356.256" y1="240.161" x2="224.941" y2="305.483" xlink:href="#n"><stop stop-color="#febbba"/><stop offset="1" stop-color="#ff928e"/></linearGradient><linearGradient id="V" x1="247.79" y1="213.839" x2="27.657" y2="504.187" xlink:href="#n"><stop stop-color="#09005d"/><stop offset="1" stop-color="#1a0f91"/></linearGradient><linearGradient id="W" x1="186.046" y1="261.333" x2="203.495" y2="213.684" xlink:href="#n"><stop stop-color="#febbba"/><stop offset="1" stop-color="#ff928e"/></linearGradient><linearGradient id="X" x1="270.318" y1="323.001" x2="209.47" y2="367.742" xlink:href="#n"><stop stop-color="#febbba"/><stop offset="1" stop-color="#ff928e"/></linearGradient><linearGradient id="Y" x1="148.286" y1="234.334" x2="175.535" y2="298.641" xlink:href="#n"><stop stop-color="#09005d"/><stop offset="1" stop-color="#1a0f91"/></linearGradient><linearGradient id="Z" x1="175.978" y1="222.53" x2="203.249" y2="286.89" xlink:href="#n"><stop stop-color="#09005d"/><stop offset="1" stop-color="#1a0f91"/></linearGradient><linearGradient id="a" x1="224.816" y1="193.615" x2="173.652" y2="232.763" xlink:href="#n"><stop stop-color="#febbba"/><stop offset="1" stop-color="#ff928e"/></linearGradient><linearGradient id="b" x1="188.798" y1="162.618" x2="236.45" y2="223.969" xlink:href="#n"><stop stop-color="#090056"/><stop offset="1" stop-color="#020039"/></linearGradient><linearGradient id="c" x1="218.47" y1="185.321" x2="167.306" y2="224.469" xlink:href="#n"><stop stop-color="#febbba"/><stop offset="1" stop-color="#ff928e"/></linearGradient><linearGradient id="d" x1="302.172" y1="342.292" x2="322.799" y2="342.292" xlink:href="#n"><stop stop-color="#febbba"/><stop offset="1" stop-color="#ff928e"/></linearGradient><linearGradient id="e" x1="456.799" y1="296.031" x2="637.1" y2="392.019" xlink:href="#n"><stop stop-color="#09005d"/><stop offset="1" stop-color="#1a0f91"/></linearGradient><linearGradient id="f" x1="490.973" y1="237.407" x2="477.55" y2="197.14" xlink:href="#n"><stop stop-color="#febbba"/><stop offset="1" stop-color="#ff928e"/></linearGradient><linearGradient id="g" x1="564.149" y1="340.405" x2="592.783" y2="468.811" xlink:href="#n"><stop stop-color="#4f52ff"/><stop offset="1" stop-color="#4042e2"/></linearGradient><linearGradient id="h" x1="479.148" y1="256.053" x2="665.717" y2="355.378" xlink:href="#n"><stop stop-color="#09005d"/><stop offset="1" stop-color="#1a0f91"/></linearGradient><linearGradient id="i" x1="511.802" y1="296.824" x2="569.123" y2="327.34" xlink:href="#n"><stop stop-color="#4f52ff"/><stop offset="1" stop-color="#4042e2"/></linearGradient><linearGradient id="j" x1="572.465" y1="354.699" x2="528.843" y2="438.588" xlink:href="#n"><stop stop-color="#febbba"/><stop offset="1" stop-color="#ff928e"/></linearGradient><linearGradient id="k" x1="480.41" y1="179.567" x2="467.006" y2="258.438" xlink:href="#n"><stop stop-color="#febbba"/><stop offset="1" stop-color="#ff928e"/></linearGradient><linearGradient id="l" x1="494.504" y1="216.899" x2="455.005" y2="174.939" xlink:href="#n"><stop stop-color="#090056"/><stop offset="1" stop-color="#020039"/></linearGradient><linearGradient id="m" x1="492.039" y1="265.656" x2="494.423" y2="210.27" xlink:href="#n"><stop stop-color="#febbba"/><stop offset="1" stop-color="#ff928e"/></linearGradient><linearGradient id="n" gradientUnits="userSpaceOnUse"/></defs></svg>