<svg width="50" height="49" viewBox="0 0 50 49" fill="none" xmlns="http://www.w3.org/2000/svg">
<path fill-rule="evenodd" clip-rule="evenodd" d="M6.96094 29.7198V20.1751C6.96094 16.9642 8.66864 13.9958 11.4426 12.3803L20.4622 7.13088C23.2663 5.49934 26.7318 5.49934 29.5359 7.13088L38.5554 12.3803C41.3314 13.9958 43.0391 16.9642 43.0391 20.1751V29.7198C43.0391 32.9308 41.3314 35.8992 38.5574 37.5147L29.5379 42.7641C26.7338 44.3956 23.2683 44.3956 20.4642 42.7641L11.4447 37.5147C8.66864 35.8992 6.96094 32.9308 6.96094 29.7198Z" stroke="white" stroke-width="3.13048" stroke-linecap="round" stroke-linejoin="round"/>
<path d="M25.0025 16.9302C27.4618 16.9302 29.4561 18.9245 29.4561 21.3838C29.4561 23.8432 27.4618 25.8375 25.0025 25.8375C22.5432 25.8375 20.5488 23.8432 20.5488 21.3838C20.5488 18.9245 22.5432 16.9302 25.0025 16.9302" stroke="white" stroke-width="3.13048" stroke-linecap="round" stroke-linejoin="round"/>
<path d="M33.0191 32.9652C32.7866 32.378 32.4238 31.8528 31.9608 31.4239V31.4239C31.1771 30.6983 30.1549 30.2935 29.0866 30.2935C27.3047 30.2935 22.7008 30.2935 20.9189 30.2935C19.8506 30.2935 18.8264 30.6983 18.0427 31.4239V31.4239C17.5797 31.8508 17.2189 32.378 16.9844 32.9652" stroke="white" stroke-width="3.13048" stroke-linecap="round" stroke-linejoin="round"/>
</svg>
