<svg xmlns="http://www.w3.org/2000/svg" viewBox="0 0 66.11 66.11"><defs><style>.cls-1{fill:#fff;opacity:0.2;isolation:isolate;}.cls-2{fill:none;stroke:#fff;stroke-linecap:round;stroke-linejoin:round;stroke-width:5px;}</style></defs><g id="Layer_2" data-name="Layer 2"><g id="Layer_1-2" data-name="Layer 1"><path class="cls-1" d="M9.22,43.05l2.66,10.67,10,4,6.67,4.66,6.67,2c1.77-1.77,5.46-5.33,6-5.33s3.77-.89,5.33-1.33l8.67-.67.66-8.67c.67-2,2.14-6.13,2.67-6.66a75.91,75.91,0,0,0,4-7.34l-1.33-4c-.54-1.6-1.11-4.22-1.34-5.33-.89-2.67-2.8-8.27-3.33-9.33s-3.33-4-4.67-5.34L43.22,7.72,32.55,2.38,27.22,5.72l-7.34,2-9.33,2.66-.67,8-4,6.67-2,6.67v5.33Z"/><path class="cls-2" d="M22,56.75H16.5a7.14,7.14,0,0,1-7.14-7.14V44.13A3.08,3.08,0,0,0,8.46,42L4.59,38.1a7.14,7.14,0,0,1,0-10.1l3.87-3.87A3,3,0,0,0,9.36,22V16.5A7.14,7.14,0,0,1,16.5,9.36H22a3.08,3.08,0,0,0,2.16-.9L28,4.59a7.14,7.14,0,0,1,10.1,0L42,8.46a3,3,0,0,0,2.16.9h5.48a7.14,7.14,0,0,1,7.14,7.14V22a3.06,3.06,0,0,0,.89,2.16L61.52,28a7.13,7.13,0,0,1,0,10.09L57.65,42a3.06,3.06,0,0,0-.89,2.16v5.47a7.14,7.14,0,0,1-7.14,7.14H44.14a3.07,3.07,0,0,0-2.16.9l-3.87,3.87a7.14,7.14,0,0,1-10.1,0l-3.87-3.87a3,3,0,0,0-2.17-.9Z"/></g></g></svg>