<svg width="48" height="48" viewBox="0 0 48 48" fill="none" xmlns="http://www.w3.org/2000/svg">
<path opacity="0.2" d="M9.59941 29.9999L11.1994 36.3999L17.1994 38.7999L21.1994 41.5999L25.1994 42.7999C26.2661 41.7332 28.4794 39.5999 28.7994 39.5999C29.1194 39.5999 31.0661 39.0665 31.9994 38.7999L37.1994 38.3999L37.5994 33.1999C37.9994 31.9999 38.8794 29.5199 39.1994 29.1999C39.5194 28.8799 40.9327 26.1332 41.5994 24.7999L40.7994 22.3999C40.4794 21.4399 40.1327 19.8665 39.9994 19.1999C39.4661 17.5999 38.3194 14.2399 37.9994 13.5999C37.6794 12.9599 35.9994 11.1999 35.1994 10.3999L29.9994 8.79985L23.5994 5.59985L20.3994 7.59985L15.9994 8.79985L10.3994 10.3999L9.99941 15.1999L7.59941 19.1999L6.39941 23.1999V26.3999L9.59941 29.9999Z" fill="white"/>
<path fill-rule="evenodd" clip-rule="evenodd" d="M17.2533 38.2199H13.9673C11.6013 38.2199 9.68334 36.3019 9.68334 33.9359V30.6499C9.68334 30.1639 9.48934 29.6979 9.14734 29.3539L6.82334 27.0299C5.15134 25.3579 5.15134 22.6459 6.82334 20.9719L9.14734 18.6479C9.49134 18.3059 9.68534 17.8399 9.68534 17.3539V14.0679C9.68534 11.7019 11.6033 9.78392 13.9693 9.78392H17.2553C17.7413 9.78392 18.2073 9.58992 18.5513 9.24792L20.8753 6.92392C22.5473 5.25192 25.2593 5.25192 26.9333 6.92392L29.2573 9.24792C29.6013 9.59192 30.0673 9.78392 30.5533 9.78392H33.8393C36.2053 9.78392 38.1233 11.7019 38.1233 14.0679V17.3539C38.1233 17.8399 38.3173 18.3059 38.6593 18.6499L40.9833 20.9739C42.6553 22.6459 42.6553 25.3579 40.9833 27.0319L38.6593 29.3559C38.3153 29.6999 38.1233 30.1659 38.1233 30.6519V33.9379C38.1233 36.3039 36.2053 38.2219 33.8393 38.2219H30.5533C30.0673 38.2219 29.6013 38.4159 29.2573 38.7579L26.9333 41.0819C25.2613 42.7539 22.5493 42.7539 20.8753 41.0819L18.5513 38.7579C18.2073 38.4139 17.7413 38.2199 17.2533 38.2199V38.2199Z" stroke="white" stroke-width="3" stroke-linecap="round" stroke-linejoin="round"/>
<path d="M28.0874 21.4473L22.9786 26.5561L19.916 23.4908" stroke="white" stroke-width="3" stroke-linecap="round" stroke-linejoin="round"/>
</svg>
