<svg width="394" height="98" viewBox="0 0 394 98" fill="none" xmlns="http://www.w3.org/2000/svg">
<path d="M13.1799 71.2199C14.5099 79.8599 19.1299 84.2899 27.0399 84.5399V97.4H25.4999C15.4099 97.46 7.4699 91.66 1.6799 80.01C0.649901 77.41 0.139893 74.8199 0.139893 72.2199V23.22C0.319893 16.1 4.6699 10.93 13.1799 7.72998V71.2199Z" fill="#0058A0"/>
<path d="M23.5898 84.5301H28.8398V7.17004H41.9698V45.21C46.4998 43.58 49.1898 42.67 50.0298 42.49L53.6498 42.04H73.3098C82.9698 42.04 90.6399 47.69 96.3199 58.98C97.3499 61.7 97.8598 64.2 97.8598 66.5V84.5301H103.39L103.3 97.39H23.5898V84.5301ZM85.1898 84.5301V67.6C83.6199 59.33 79.6599 55.19 73.3199 55.19H53.8499C47.5699 55.19 43.6399 59.33 42.0699 67.6V84.54H85.1898V84.5301Z" fill="#0058A0"/>
<path d="M201.5 88.79C197.39 91.99 193.83 94.35 190.81 95.85C188.21 96.88 185.62 97.39 183.02 97.39H178.85C173.96 97.39 168.19 94.88 161.55 89.87H160.01C153.25 94.88 147.45 97.39 142.62 97.39H138.45C132.35 97.39 126.19 94.49 119.97 88.69C113.57 94.49 107.56 97.39 101.94 97.39H99.5898V84.53H100.59C109.04 84.47 113.27 78.7 113.27 67.23V41.5H126.49V71.3C126.49 77.88 130.9 82.2 139.71 84.25C149.01 82.56 153.66 77.94 153.66 70.39V41.49H167.34V68.03C167.34 77.09 171.2 82.31 178.93 83.7H182.37C190.76 82.43 194.96 77.51 194.96 68.94V41.49H208.18V70.2C208.96 79.68 212.35 84.45 218.33 84.51V97.37C213.45 97.4 207.84 94.53 201.5 88.79Z" fill="#0058A0"/>
<path d="M221.42 71.58V50.93C221.42 41.51 227.13 34.02 238.54 28.47L244.97 27.29H248.68C258.22 27.29 265.77 32.85 271.32 43.96C272.29 46.44 272.77 48.91 272.77 51.39V77.84C272.77 85.09 266.64 91.34 254.38 96.59L249.31 97.41H215.43V84.55L248.22 84.46C256.61 84.52 260.81 81.56 260.81 75.58V71.5L221.42 71.58ZM232.61 22.96C229.52 22.96 226.88 21.87 224.7 19.68C222.51 17.5 221.42 14.86 221.42 11.77C221.42 8.78999 222.51 6.19999 224.7 4.01999C226.88 1.83999 229.52 0.73999 232.61 0.73999C235.7 0.73999 238.34 1.82999 240.52 4.01999C242.7 6.20999 243.8 8.78999 243.8 11.77C243.8 14.86 242.71 17.5 240.52 19.68C238.34 21.86 235.7 22.96 232.61 22.96ZM233.83 60.44H260.82V53.65C260.82 44.65 256.62 40.15 248.23 40.15H246.42C239.29 40.15 235.1 44.56 233.83 53.37V60.44ZM259.28 22.96C256.19 22.96 253.55 21.87 251.37 19.68C249.18 17.5 248.09 14.86 248.09 11.77C248.09 8.67999 249.18 6.07 251.37 3.94C253.55 1.81 256.19 0.73999 259.28 0.73999C262.37 0.73999 265.01 1.81 267.19 3.94C269.37 6.07 270.47 8.67999 270.47 11.77C270.47 14.86 269.38 17.5 267.19 19.68C265.01 21.86 262.37 22.96 259.28 22.96Z" fill="#0058A0"/>
<path d="M361.058 5.38606C357.282 4.08879 353.398 3.27903 349.449 2.96092C347.284 2.7874 345.47 4.56804 345.619 6.73704L346.28 16.3054C346.396 18.0075 347.709 19.3709 349.403 19.5816C352.708 19.9865 355.865 20.9202 358.786 22.296C360.314 23.0148 362.14 22.5314 363.136 21.1639L368.784 13.4051C370.056 11.6534 369.482 9.1787 367.561 8.1789C365.47 7.0882 363.301 6.15863 361.058 5.38606ZM388.916 44.9816L379.505 46.8324C377.836 47.1588 376.646 48.6296 376.646 50.3318C376.646 53.6286 376.117 56.942 375.134 59.9993C374.617 61.6023 375.328 63.3499 376.803 64.1637L385.202 68.7992C387.094 69.8444 389.482 68.9645 390.234 66.9359C392.296 61.3709 393.295 55.4919 393.176 49.4807C393.167 49.0923 393.155 48.704 393.138 48.3198C393.043 46.1466 391.048 44.5643 388.916 44.9816ZM386.991 26.9107C385.02 23.4362 382.645 20.2592 379.897 17.4085C378.389 15.8468 375.848 15.979 374.526 17.7018L368.685 25.3078C367.648 26.6587 367.726 28.5509 368.854 29.8275C371.06 32.3188 372.812 35.1116 374.088 38.0738C374.758 39.6273 376.448 40.4701 378.096 40.1065L387.466 38.0325C389.577 37.5657 390.788 35.3264 390.011 33.3062C389.168 31.1083 388.16 28.9765 386.991 26.9107Z" fill="#A5A7AA"/>
<path d="M373.481 70.0137C372.018 69.1668 370.155 69.4684 369.044 70.7491C363.966 76.5951 356.749 80.5323 348.618 81.3256C347.622 81.4247 346.61 81.4743 345.586 81.4743C344.561 81.4743 343.549 81.4247 342.553 81.3256C337.207 80.805 332.254 78.9252 328.044 76.0332C326.37 74.8847 324.817 73.5791 323.404 72.1331C319.793 68.4479 317.091 63.8703 315.666 58.768C315.129 56.8469 314.769 54.8473 314.617 52.7981C314.555 52.0132 314.526 51.2158 314.526 50.4143C314.526 45.8408 315.517 41.4987 317.302 37.5862C318.145 35.7312 319.165 33.9754 320.343 32.3393C323.586 27.8237 328.006 24.2087 333.154 21.953C334.299 21.4531 335.476 20.6268 336.046 19.6642C336.468 18.9536 338.752 13.8595 338.752 13.8595C339.851 11.6864 340.153 9.05054 337.158 8.08379L330.981 6.09657C330.13 5.73714 329.176 5.72062 328.312 6.05526C327.895 6.22052 327.474 6.3899 327.06 6.56342C321.392 8.95964 316.302 12.3929 311.935 16.7598C309.692 19.0031 307.696 21.4324 305.965 24.0352C304.846 25.7167 303.834 27.4684 302.933 29.2862C302.512 30.1373 302.115 31.0049 301.743 31.8849C299.26 37.7598 298 43.9941 298 50.4143C298 52.1825 298.095 53.9384 298.285 55.6777C298.504 57.6939 298.855 59.6852 299.33 61.6476C299.933 64.1306 300.735 66.564 301.739 68.9396C304.135 74.6079 307.568 79.6978 311.935 84.0647C312.2 84.3291 312.468 84.5894 312.737 84.8455C314.208 86.2502 315.757 87.5516 317.376 88.7456C320.367 90.9518 323.607 92.7985 327.06 94.2569C332.006 96.3474 337.207 97.5703 342.557 97.9049C343.561 97.9669 344.573 98 345.59 98C346.606 98 347.618 97.9669 348.622 97.9049C353.977 97.5703 359.174 96.3474 364.119 94.2569C369.788 91.8607 374.877 88.4275 379.244 84.0605C380.513 82.7922 381.703 81.4619 382.81 80.0779C384.157 78.3881 383.673 75.8927 381.802 74.8144L373.481 70.0137Z" fill="#0058A0"/>
</svg>
