<svg width="394" height="97" viewBox="0 0 394 97" fill="none" xmlns="http://www.w3.org/2000/svg">
<path d="M361.058 3.43684C357.282 2.13957 353.398 1.32982 349.449 1.0117C347.284 0.838177 345.47 2.61882 345.619 4.78782L346.28 14.3562C346.396 16.0583 347.709 17.4217 349.403 17.6324C352.708 18.0373 355.865 18.971 358.786 20.3467C360.314 21.0656 362.14 20.5822 363.136 19.2147L368.784 11.4559C370.056 9.7042 369.482 7.22948 367.561 6.22968C365.47 5.13898 363.301 4.20941 361.058 3.43684ZM388.916 43.0324L379.505 44.8832C377.836 45.2096 376.646 46.6804 376.646 48.3825C376.646 51.6794 376.117 54.9928 375.134 58.05C374.617 59.653 375.328 61.4006 376.803 62.2145L385.202 66.85C387.094 67.8952 389.482 67.0152 390.234 64.9867C392.296 59.4217 393.295 53.5427 393.176 47.5315C393.167 47.1431 393.155 46.7548 393.138 46.3706C393.043 44.1974 391.048 42.6151 388.916 43.0324ZM386.991 24.9615C385.02 21.487 382.645 18.3099 379.897 15.4593C378.389 13.8976 375.848 14.0298 374.526 15.7526L368.685 23.3585C367.648 24.7095 367.726 26.6017 368.854 27.8783C371.06 30.3696 372.812 33.1624 374.088 36.1246C374.758 37.678 376.448 38.5209 378.096 38.1573L387.466 36.0833C389.577 35.6165 390.788 33.3772 390.011 31.357C389.168 29.1591 388.16 27.0272 386.991 24.9615Z" fill="white"/>
<path d="M373.481 68.0645C372.018 67.2176 370.155 67.5192 369.044 68.7999C363.966 74.6459 356.749 78.5831 348.618 79.3763C347.622 79.4755 346.61 79.5251 345.586 79.5251C344.561 79.5251 343.549 79.4755 342.553 79.3763C337.207 78.8558 332.254 76.976 328.044 74.084C326.37 72.9355 324.817 71.6299 323.404 70.1839C319.793 66.4987 317.091 61.9211 315.666 56.8188C315.129 54.8977 314.769 52.8981 314.617 50.8489C314.555 50.0639 314.526 49.2666 314.526 48.4651C314.526 43.8916 315.517 39.5495 317.302 35.637C318.145 33.782 319.165 32.0262 320.343 30.3901C323.586 25.8745 328.006 22.2595 333.154 20.0037C334.299 19.5038 335.476 18.6776 336.046 17.7149C336.468 17.0043 338.752 11.9103 338.752 11.9103C339.851 9.73716 340.153 7.10133 337.158 6.13457L330.981 4.14735C330.13 3.78792 329.176 3.7714 328.312 4.10605C327.895 4.2713 327.474 4.44068 327.06 4.6142C321.392 7.01042 316.302 10.4436 311.935 14.8106C309.692 17.0539 307.696 19.4832 305.965 22.086C304.846 23.7675 303.834 25.5192 302.933 27.337C302.512 28.1881 302.115 29.0557 301.743 29.9357C299.26 35.8105 298 42.0448 298 48.4651C298 50.2333 298.095 51.9892 298.285 53.7285C298.504 55.7446 298.855 57.736 299.33 59.6984C299.933 62.1814 300.735 64.6148 301.739 66.9904C304.135 72.6587 307.568 77.7486 311.935 82.1155C312.2 82.3799 312.468 82.6402 312.737 82.8963C314.208 84.301 315.757 85.6024 317.376 86.7964C320.367 89.0025 323.607 90.8493 327.06 92.3077C332.006 94.3982 337.207 95.6211 342.557 95.9557C343.561 96.0177 344.573 96.0508 345.59 96.0508C346.606 96.0508 347.618 96.0177 348.622 95.9557C353.977 95.6211 359.174 94.3982 364.119 92.3077C369.788 89.9114 374.877 86.4782 379.244 82.1113C380.513 80.843 381.703 79.5127 382.81 78.1287C384.157 76.4389 383.673 73.9435 381.802 72.8652L373.481 68.0645Z" fill="white"/>
<path d="M13.1799 70.4799C14.5099 79.1199 19.1299 83.55 27.0399 83.8V96.66H25.4999C15.4099 96.72 7.4699 90.92 1.6799 79.27C0.649901 76.67 0.139893 74.0799 0.139893 71.4799V22.48C0.319893 15.36 4.6699 10.19 13.1799 6.98999V70.4799Z" fill="white"/>
<path d="M23.5898 83.7899H28.8398V6.42993H41.9698V44.4699C46.4998 42.8399 49.1898 41.9299 50.0298 41.7499L53.6498 41.2999H73.3098C82.9698 41.2999 90.6399 46.9499 96.3199 58.2399C97.3499 60.9599 97.8598 63.4599 97.8598 65.7599V83.7899H103.39L103.3 96.6499H23.5898V83.7899ZM85.1898 83.7899V66.8599C83.6199 58.5899 79.6599 54.4499 73.3199 54.4499H53.8499C47.5699 54.4499 43.6399 58.5899 42.0699 66.8599V83.7999H85.1898V83.7899Z" fill="white"/>
<path d="M201.5 88.05C197.39 91.25 193.83 93.61 190.81 95.11C188.21 96.14 185.62 96.65 183.02 96.65H178.85C173.96 96.65 168.19 94.14 161.55 89.13H160.01C153.25 94.14 147.45 96.65 142.62 96.65H138.45C132.35 96.65 126.19 93.75 119.97 87.95C113.57 93.75 107.56 96.65 101.94 96.65H99.5898V83.79H100.59C109.04 83.73 113.27 77.96 113.27 66.49V40.76H126.49V70.56C126.49 77.14 130.9 81.46 139.71 83.51C149.01 81.82 153.66 77.2 153.66 69.65V40.75H167.34V67.29C167.34 76.35 171.2 81.57 178.93 82.96H182.37C190.76 81.69 194.96 76.77 194.96 68.2V40.75H208.18V69.46C208.96 78.94 212.35 83.71 218.33 83.77V96.63C213.45 96.66 207.84 93.79 201.5 88.05Z" fill="white"/>
<path d="M221.42 70.84V50.19C221.42 40.77 227.13 33.28 238.54 27.73L244.97 26.55H248.68C258.22 26.55 265.77 32.11 271.32 43.22C272.29 45.7 272.77 48.17 272.77 50.65V77.1C272.77 84.35 266.64 90.6 254.38 95.85L249.31 96.67H215.43V83.81L248.22 83.72C256.61 83.78 260.81 80.82 260.81 74.84V70.76L221.42 70.84ZM232.61 22.22C229.52 22.22 226.88 21.13 224.7 18.94C222.51 16.76 221.42 14.12 221.42 11.03C221.42 8.05 222.51 5.46 224.7 3.28C226.88 1.1 229.52 0 232.61 0C235.7 0 238.34 1.09 240.52 3.28C242.7 5.47 243.8 8.05 243.8 11.03C243.8 14.12 242.71 16.76 240.52 18.94C238.34 21.12 235.7 22.22 232.61 22.22ZM233.83 59.7H260.82V52.91C260.82 43.91 256.62 39.41 248.23 39.41H246.42C239.29 39.41 235.1 43.82 233.83 52.63V59.7ZM259.28 22.22C256.19 22.22 253.55 21.13 251.37 18.94C249.18 16.76 248.09 14.12 248.09 11.03C248.09 7.94 249.18 5.33001 251.37 3.20001C253.55 1.07001 256.19 0 259.28 0C262.37 0 265.01 1.07001 267.19 3.20001C269.37 5.33001 270.47 7.94 270.47 11.03C270.47 14.12 269.38 16.76 267.19 18.94C265.01 21.12 262.37 22.22 259.28 22.22Z" fill="white"/>
</svg>
