<?xml version="1.0" encoding="UTF-8"?>
<svg xmlns="http://www.w3.org/2000/svg" xmlns:xlink="http://www.w3.org/1999/xlink" width="593.66pt" height="258.37pt" viewBox="0 0 593.66 258.37" version="1.1">
<defs>
<clipPath id="clip1">
  <path d="M 498 117 L 560 117 L 560 258.371094 L 498 258.371094 Z M 498 117 "/>
</clipPath>
<clipPath id="clip2">
  <path d="M 571 109 L 593.660156 109 L 593.660156 133 L 571 133 Z M 571 109 "/>
</clipPath>
</defs>
<g id="surface1">
<path style=" stroke:none;fill-rule:nonzero;fill:rgb(100%,100%,100%);fill-opacity:1;" d="M 38.746094 152.128906 C 24.253906 157.269531 21.914063 162.878906 22.851563 171.296875 C 23.785156 179.710938 33.601563 183.449219 43.421875 182.515625 "/>
<path style=" stroke:none;fill-rule:nonzero;fill:rgb(13.719177%,12.156677%,12.547302%);fill-opacity:1;" d="M 40.574219 185.121094 C 30.859375 185.121094 21.417969 180.746094 20.398438 171.566406 C 19.371094 162.332031 21.945313 155.472656 37.921875 149.800781 L 39.574219 154.453125 C 26.394531 159.132813 24.472656 163.523438 25.304688 171.023438 C 26.078125 178 34.886719 180.851563 43.1875 180.058594 L 43.65625 184.972656 C 42.632813 185.070313 41.597656 185.121094 40.574219 185.121094 "/>
<path style=" stroke:none;fill-rule:nonzero;fill:rgb(100%,100%,100%);fill-opacity:1;" d="M 19.113281 82.472656 C 49.03125 68.914063 86.429688 65.640625 112.144531 85.742188 C 137.855469 105.847656 146.738281 155.867188 146.738281 168.023438 C 146.738281 170.828125 126.167969 173.164063 120.089844 177.839844 C 112.609375 184.386719 133.179688 209.164063 133.179688 220.847656 C 133.179688 220.847656 135.515625 237.210938 120.089844 240.953125 C 102.792969 244.691406 90.636719 231.136719 76.613281 240.953125 C 74.277344 242.820313 67.261719 247.496094 59.316406 251.703125 L 19.113281 82.472656 "/>
<path style=" stroke:none;fill-rule:nonzero;fill:rgb(13.719177%,12.156677%,12.547302%);fill-opacity:1;" d="M 21.988281 83.894531 L 60.972656 247.996094 C 67.460938 244.375 73.054688 240.640625 75.070313 239.023438 L 75.199219 238.929688 C 79.128906 236.179688 83.304688 234.839844 87.964844 234.839844 C 92.136719 234.839844 96.117188 235.859375 100.328125 236.933594 C 104.605469 238.027344 109.027344 239.15625 113.730469 239.15625 C 115.742188 239.15625 117.652344 238.953125 119.570313 238.539063 C 124.988281 237.226563 128.535156 233.945313 130.054688 228.800781 C 131.214844 224.867188 130.742188 221.234375 130.738281 221.199219 L 130.710938 220.851563 C 130.710938 216.464844 127.070313 209.289063 123.550781 202.34375 C 117.980469 191.371094 112.726563 181.003906 118.464844 175.984375 L 118.585938 175.882813 C 122.105469 173.175781 129.238281 171.339844 135.535156 169.722656 C 138.621094 168.925781 142.71875 167.875 144.253906 167.125 C 143.851563 154.210938 135.242188 106.9375 110.621094 87.6875 C 99.128906 78.703125 84.117188 73.953125 67.203125 73.953125 C 52.558594 73.953125 36.964844 77.386719 21.988281 83.894531 M 57.652344 255.378906 L 16.238281 81.0625 L 18.09375 80.222656 C 34.273438 72.894531 51.253906 69.019531 67.203125 69.019531 C 85.226563 69.019531 101.292969 74.128906 113.664063 83.800781 C 140.316406 104.640625 149.203125 156.074219 149.203125 168.023438 C 149.203125 171.300781 145.046875 172.371094 136.765625 174.5 C 131.265625 175.917969 124.429688 177.675781 121.664063 179.746094 C 118.925781 182.320313 124.140625 192.59375 127.953125 200.113281 C 131.867188 207.832031 135.570313 215.128906 135.644531 220.671875 C 136.507813 227.15625 134.476563 240.003906 120.671875 243.351563 C 118.347656 243.855469 116.097656 244.089844 113.730469 244.089844 C 108.410156 244.089844 103.679688 242.882813 99.109375 241.714844 C 95.203125 240.71875 91.515625 239.777344 87.964844 239.777344 C 84.324219 239.777344 81.183594 240.78125 78.089844 242.933594 C 75.511719 244.976563 68.410156 249.683594 60.46875 253.886719 "/>
<path style=" stroke:none;fill-rule:nonzero;fill:rgb(95.701599%,50.584412%,12.547302%);fill-opacity:1;" d="M 72.875 48.34375 C 74.277344 52.085938 73.339844 55.355469 71.003906 57.695313 C 69.601563 58.628906 67.261719 58.628906 66.328125 60.5 C 65.859375 62.835938 67.261719 64.238281 69.601563 65.175781 C 74.742188 67.042969 79.417969 63.773438 81.289063 60.5 C 87.832031 49.28125 75.210938 38.996094 73.808594 27.773438 C 72.875 20.296875 79.417969 12.816406 79.417969 5.804688 C 79.417969 3.464844 71.9375 2.996094 69.601563 7.203125 C 65.859375 15.152344 59.78125 24.035156 63.988281 31.515625 C 66.796875 36.65625 70.535156 41.800781 72.875 48.34375 "/>
<path style=" stroke:none;fill-rule:nonzero;fill:rgb(95.701599%,50.584412%,12.547302%);fill-opacity:1;" d="M 95.78125 48.34375 C 96.714844 52.550781 95.78125 55.824219 94.378906 59.566406 C 92.507813 64.707031 98.585938 66.578125 101.390625 63.773438 C 113.078125 51.148438 107.46875 44.136719 102.792969 37.59375 C 98.117188 30.578125 97.183594 29.179688 94.84375 24.035156 C 93.910156 22.164063 90.636719 17.023438 96.246094 11.414063 C 98.585938 9.542969 98.117188 3.933594 95.78125 1.59375 C 87.832031 -4.015625 85.496094 6.269531 82.691406 15.152344 C 78.949219 26.839844 92.507813 36.191406 95.78125 48.34375 "/>
<path style=" stroke:none;fill-rule:nonzero;fill:rgb(95.701599%,50.584412%,12.547302%);fill-opacity:1;" d="M 17.242188 58.628906 C 20.046875 61.902344 20.046875 65.175781 18.644531 67.980469 C 17.710938 69.382813 15.839844 72.652344 15.371094 74.523438 C 15.839844 76.859375 17.242188 74.992188 19.578125 74.992188 C 24.722656 75.460938 28.460938 70.785156 29.398438 66.578125 C 31.734375 53.953125 16.773438 47.878906 12.097656 37.59375 C 8.828125 31.046875 13.035156 22.164063 10.695313 15.621094 C 9.761719 13.28125 2.75 15.621094 1.8125 20.296875 C 0.410156 29.175781 -2.394531 38.996094 4.152344 45.070313 C 7.890625 49.746094 13.035156 53.488281 17.242188 58.628906 "/>
<path style=" stroke:none;fill-rule:nonzero;fill:rgb(95.701599%,50.584412%,12.547302%);fill-opacity:1;" d="M 38.746094 45.539063 C 40.148438 49.28125 39.214844 53.019531 38.277344 56.757813 C 36.875 61.902344 44.355469 61.902344 47.160156 58.628906 C 53.238281 50.683594 49.496094 40.863281 45.757813 33.851563 C 41.550781 26.371094 35.472656 19.828125 35.007813 11.878906 C 35.007813 9.542969 39.679688 9.542969 42.019531 8.605469 C 44.824219 7.671875 50.433594 4.867188 47.628906 2.996094 C 38.746094 -2.144531 26.125 3.933594 23.785156 13.28125 C 20.980469 24.96875 35.007813 33.851563 38.746094 45.539063 "/>
<path style=" stroke:none;fill-rule:nonzero;fill:rgb(13.719177%,12.156677%,12.547302%);fill-opacity:1;" d="M 129.441406 221.914063 C 129.328125 221.914063 129.214844 221.90625 129.097656 221.890625 C 101.789063 218.058594 93.4375 206.121094 80.792969 188.050781 L 80.199219 187.203125 C 79.417969 186.085938 79.691406 184.546875 80.808594 183.765625 C 81.921875 182.984375 83.464844 183.253906 84.246094 184.371094 L 84.839844 185.21875 C 97.582031 203.433594 104.605469 213.46875 129.78125 217.003906 C 131.132813 217.191406 132.074219 218.441406 131.882813 219.789063 C 131.710938 221.023438 130.652344 221.914063 129.441406 221.914063 "/>
<path style=" stroke:none;fill-rule:nonzero;fill:rgb(100%,83.201599%,12.547302%);fill-opacity:1;" d="M 27.992188 89.484375 C 29.863281 88.082031 35.007813 71.71875 35.007813 70.785156 C 34.539063 69.382813 42.019531 86.679688 42.484375 87.613281 C 42.953125 88.082031 57.445313 89.015625 58.382813 90.421875 C 59.316406 91.820313 49.496094 94.625 48.097656 96.496094 C 46.695313 97.898438 62.589844 116.597656 61.652344 118 C 60.71875 119.402344 40.617188 105.378906 39.679688 106.316406 C 38.277344 107.25 24.253906 121.742188 23.785156 121.742188 C 23.320313 121.742188 27.992188 103.039063 27.058594 101.640625 C 26.589844 100.234375 16.304688 102.574219 15.371094 100.703125 C 14.902344 98.835938 27.992188 89.484375 27.992188 89.484375 "/>
<path style=" stroke:none;fill-rule:nonzero;fill:rgb(13.719177%,12.156677%,12.547302%);fill-opacity:1;" d="M 33.601563 113.324219 C 35.007813 111.457031 36.875 108.652344 38.746094 109.117188 C 44.355469 109.585938 49.03125 114.261719 53.707031 117.53125 C 56.511719 119.402344 58.847656 122.210938 62.121094 121.742188 C 63.054688 121.742188 63.054688 120.339844 63.988281 119.402344 C 64.457031 118.46875 63.523438 117.53125 63.523438 117.53125 C 60.71875 115.195313 60.25 111.457031 58.382813 109.117188 C 55.578125 105.378906 53.238281 102.105469 50.433594 98.367188 C 53.707031 95.5625 57.445313 95.09375 61.183594 93.691406 C 62.121094 93.222656 62.589844 91.820313 62.121094 90.886719 C 62.121094 89.949219 61.183594 89.484375 61.183594 89.484375 C 58.382813 89.015625 55.578125 88.550781 53.238281 87.613281 C 49.964844 87.144531 46.695313 88.082031 43.421875 86.210938 C 42.019531 85.742188 42.019531 83.40625 41.550781 82.003906 C 40.148438 76.394531 38.28125 70.785156 35.941406 66.109375 C 35.472656 65.175781 34.070313 64.707031 33.136719 65.640625 C 32.667969 64.707031 32.203125 66.109375 32.667969 67.980469 C 33.601563 73.589844 31.265625 79.199219 29.863281 84.34375 C 29.398438 85.277344 28.929688 85.742188 27.992188 86.210938 L 27.992188 87.144531 C 25.191406 89.484375 22.851563 90.886719 19.578125 92.757813 C 16.773438 94.160156 14.4375 96.964844 12.097656 99.300781 C 10.695313 99.769531 10.230469 103.039063 11.632813 103.039063 C 16.304688 104.445313 20.515625 103.976563 25.191406 103.507813 C 25.191406 109.117188 23.785156 114.261719 21.917969 118.9375 C 21.449219 119.871094 20.980469 120.804688 20.515625 121.742188 C 19.578125 123.609375 21.449219 125.480469 22.382813 125.011719 C 27.058594 122.210938 30.332031 118 33.601563 113.324219 M 33.601563 107.714844 C 30.800781 110.054688 29.398438 113.324219 26.589844 116.132813 C 26.125 116.597656 26.125 115.664063 26.125 115.195313 C 27.058594 111.457031 27.527344 108.183594 27.992188 104.445313 C 28.460938 103.039063 28.929688 102.105469 29.398438 100.703125 C 29.863281 99.769531 29.863281 98.835938 29.398438 97.898438 C 28.460938 96.964844 27.058594 97.898438 26.125 98.367188 C 23.320313 99.769531 20.515625 99.769531 17.710938 98.835938 C 18.644531 97.429688 20.046875 96.964844 21.449219 96.027344 C 22.851563 95.09375 24.722656 94.625 26.125 93.222656 C 27.058594 92.757813 27.992188 92.757813 27.992188 92.289063 C 28.929688 91.355469 29.863281 90.417969 30.800781 89.015625 C 33.601563 84.808594 33.601563 79.199219 35.472656 74.523438 C 37.8125 79.199219 38.746094 84.808594 41.082031 90.417969 C 41.082031 91.355469 42.484375 89.949219 42.953125 91.355469 C 44.824219 89.949219 47.160156 90.417969 49.03125 90.417969 C 49.964844 90.417969 51.835938 89.949219 52.773438 91.355469 C 50.433594 92.757813 48.097656 94.160156 45.292969 95.09375 C 44.355469 95.5625 43.421875 97.429688 44.355469 98.835938 C 44.824219 99.769531 45.757813 100.234375 46.226563 100.703125 C 49.964844 103.976563 52.773438 108.183594 55.578125 112.390625 C 54.640625 113.324219 53.707031 112.390625 53.238281 111.457031 C 49.03125 108.183594 44.824219 106.78125 40.617188 103.039063 C 38.746094 100.703125 36.40625 105.847656 33.601563 107.714844 "/>
<path style=" stroke:none;fill-rule:nonzero;fill:rgb(13.719177%,12.156677%,12.547302%);fill-opacity:1;" d="M 22.835938 168.574219 C 20.589844 168.125 18.820313 166.390625 17.855469 163.695313 C 16.296875 159.339844 16.847656 152.191406 20.472656 147.761719 C 25.34375 141.804688 34.722656 133.78125 59.835938 132.835938 L 60.023438 137.765625 C 36.902344 138.640625 28.558594 145.671875 24.292969 150.886719 C 21.925781 153.78125 21.449219 159.085938 22.503906 162.03125 C 22.851563 163.003906 23.339844 163.640625 23.800781 163.734375 "/>
<path style=" stroke:none;fill-rule:nonzero;fill:rgb(74.414063%,83.984375%,23.925781%);fill-opacity:1;" d="M 83.625 152.128906 C 95.78125 152.128906 106.066406 144.179688 106.066406 133.894531 C 106.066406 124.078125 96.246094 115.664063 83.625 115.664063 C 71.003906 115.664063 61.1875 123.609375 61.1875 133.894531 C 61.1875 144.179688 71.003906 152.128906 83.625 152.128906 "/>
<path style=" stroke:none;fill-rule:nonzero;fill:rgb(13.719177%,12.156677%,12.547302%);fill-opacity:1;" d="M 83.625 117.425781 C 72.03125 117.425781 62.949219 124.660156 62.949219 133.894531 C 62.949219 143.132813 72.03125 150.363281 83.625 150.363281 C 95.027344 150.363281 104.300781 142.976563 104.300781 133.894531 C 104.300781 124.816406 95.027344 117.425781 83.625 117.425781 M 83.625 153.890625 C 70.054688 153.890625 59.421875 145.109375 59.421875 133.894531 C 59.421875 122.683594 70.054688 113.902344 83.625 113.902344 C 96.96875 113.902344 107.828125 122.871094 107.828125 133.894531 C 107.828125 144.921875 96.96875 153.890625 83.625 153.890625 "/>
<path style=" stroke:none;fill-rule:nonzero;fill:rgb(13.719177%,12.156677%,12.547302%);fill-opacity:1;" d="M 83.625 118.132813 C 72.613281 118.132813 63.652344 125.203125 63.652344 133.894531 C 63.652344 142.589844 72.613281 149.660156 83.625 149.660156 C 94.636719 149.660156 103.597656 142.589844 103.597656 133.894531 C 103.597656 125.203125 94.636719 118.132813 83.625 118.132813 M 83.625 154.597656 C 69.890625 154.597656 58.71875 145.3125 58.71875 133.894531 C 58.71875 122.480469 69.890625 113.195313 83.625 113.195313 C 97.359375 113.195313 108.535156 122.480469 108.535156 133.894531 C 108.535156 145.3125 97.359375 154.597656 83.625 154.597656 "/>
<path style=" stroke:none;fill-rule:nonzero;fill:rgb(74.414063%,83.984375%,23.925781%);fill-opacity:1;" d="M 141.59375 147.921875 C 155.617188 147.921875 166.839844 142.3125 166.839844 134.832031 C 166.839844 127.816406 155.617188 121.742188 141.59375 121.742188 C 127.570313 121.742188 116.351563 126.882813 116.351563 134.832031 C 116.351563 143.246094 127.570313 147.921875 141.59375 147.921875 "/>
<path style=" stroke:none;fill-rule:nonzero;fill:rgb(13.719177%,12.156677%,12.547302%);fill-opacity:1;" d="M 141.59375 123.503906 C 128.207031 123.503906 118.113281 128.375 118.113281 134.832031 C 118.113281 140.46875 125.375 146.15625 141.59375 146.15625 C 154.542969 146.15625 165.074219 141.074219 165.074219 134.832031 C 165.074219 129.472656 155.433594 123.503906 141.59375 123.503906 M 141.59375 149.683594 C 125.1875 149.683594 114.585938 143.855469 114.585938 134.832031 C 114.585938 126.085938 125.691406 119.980469 141.59375 119.980469 C 156.488281 119.980469 168.601563 126.640625 168.601563 134.832031 C 168.601563 143.300781 156.992188 149.683594 141.59375 149.683594 "/>
<path style=" stroke:none;fill-rule:nonzero;fill:rgb(13.719177%,12.156677%,12.547302%);fill-opacity:1;" d="M 141.59375 124.210938 C 128.609375 124.210938 118.820313 128.773438 118.820313 134.832031 C 118.820313 142.128906 130.625 145.453125 141.59375 145.453125 C 154.152344 145.453125 164.371094 140.6875 164.371094 134.832031 C 164.371094 128.753906 152.347656 124.210938 141.59375 124.210938 M 141.59375 150.386719 C 124.761719 150.386719 113.882813 144.28125 113.882813 134.832031 C 113.882813 125.671875 125.277344 119.273438 141.59375 119.273438 C 157.136719 119.273438 169.308594 126.105469 169.308594 134.832031 C 169.308594 143.699219 157.394531 150.386719 141.59375 150.386719 "/>
<path style=" stroke:none;fill-rule:nonzero;fill:rgb(74.414063%,83.984375%,23.925781%);fill-opacity:1;" d="M 106.066406 133.894531 C 106.066406 133.894531 116.351563 130.625 116.351563 134.832031 "/>
<path style=" stroke:none;fill-rule:nonzero;fill:rgb(13.719177%,12.156677%,12.547302%);fill-opacity:1;" d="M 106.8125 136.246094 L 105.316406 131.542969 C 107.839844 130.738281 114.042969 129.109375 117.074219 131.328125 C 118.199219 132.152344 118.820313 133.394531 118.820313 134.832031 L 113.882813 134.832031 C 113.886719 134.988281 114.042969 135.25 114.183594 135.328125 C 113.351563 134.859375 109.773438 135.308594 106.8125 136.246094 "/>
<path style=" stroke:none;fill-rule:nonzero;fill:rgb(13.719177%,12.156677%,12.547302%);fill-opacity:1;" d="M 196.289063 114.726563 C 206.574219 104.910156 219.664063 105.847656 229.484375 114.726563 C 232.757813 117.53125 230.886719 121.742188 228.078125 124.078125 C 221.066406 128.753906 214.523438 121.742188 207.511719 124.078125 C 200.964844 125.949219 198.160156 135.765625 196.289063 142.777344 C 191.617188 160.542969 188.34375 186.253906 203.304688 195.136719 C 206.574219 197.007813 210.78125 196.070313 212.1875 192.332031 C 214.523438 186.722656 217.796875 179.242188 213.589844 175.503906 C 212.1875 174.566406 209.382813 172.699219 209.382813 171.761719 C 206.109375 164.285156 212.652344 160.542969 216.859375 159.140625 C 224.339844 155.867188 235.558594 161.945313 231.351563 173.632813 C 231.351563 174.566406 228.546875 175.503906 228.546875 176.4375 C 228.546875 182.980469 226.679688 188.125 225.742188 194.671875 C 225.277344 199.34375 221.535156 201.214844 219.664063 204.957031 C 216.859375 207.761719 213.589844 206.824219 210.78125 208.695313 C 197.691406 216.175781 182.265625 204.957031 179.929688 185.789063 C 175.722656 159.609375 178.527344 131.089844 196.289063 114.726563 "/>
<path style=" stroke:none;fill-rule:nonzero;fill:rgb(13.719177%,12.156677%,12.547302%);fill-opacity:1;" d="M 247.246094 186.253906 C 250.988281 189.058594 258.46875 189.058594 261.738281 184.386719 C 269.21875 173.632813 274.828125 161.011719 271.558594 146.050781 C 270.15625 139.507813 268.285156 132.960938 264.546875 127.351563 C 258.933594 119.402344 249.117188 116.132813 245.84375 126.414063 C 243.976563 131.558594 238.832031 137.167969 236.496094 147.921875 C 233.222656 162.414063 237.429688 178.308594 247.246094 186.253906 M 251.921875 167.089844 C 236.964844 162.414063 252.390625 136.234375 255.664063 140.90625 C 263.144531 152.128906 262.207031 170.359375 251.921875 167.089844 "/>
<path style=" stroke:none;fill-rule:nonzero;fill:rgb(13.719177%,12.156677%,12.547302%);fill-opacity:1;" d="M 309.890625 201.683594 C 316.4375 204.953125 323.449219 202.617188 329.058594 198.410156 C 347.289063 186.253906 361.316406 153.996094 347.289063 128.285156 C 341.679688 118.46875 336.070313 111.457031 329.058594 104.910156 C 323.449219 100.238281 316.90625 98.367188 311.761719 98.367188 C 308.488281 97.433594 303.347656 98.367188 301.945313 104.910156 C 301.945313 105.847656 301.476563 108.183594 301.945313 109.117188 C 302.878906 111.457031 305.683594 114.261719 305.683594 116.597656 C 307.554688 139.507813 309.425781 161.476563 308.957031 183.449219 C 308.957031 186.722656 305.21875 188.125 304.28125 190.460938 C 302.878906 194.203125 306.621094 199.8125 309.890625 201.683594 M 321.578125 185.785156 C 320.175781 185.785156 318.773438 125.015625 318.773438 118.9375 C 329.996094 120.804688 337.941406 133.894531 341.214844 146.050781 C 344.019531 156.335938 339.34375 167.085938 335.136719 175.96875 C 332.800781 180.644531 327.1875 187.191406 321.578125 185.785156 "/>
<path style=" stroke:none;fill-rule:nonzero;fill:rgb(13.719177%,12.156677%,12.547302%);fill-opacity:1;" d="M 390.769531 215.238281 C 398.714844 222.253906 399.648438 197.007813 400.117188 185.320313 C 401.054688 167.554688 408.066406 151.191406 402.457031 135.296875 C 395.910156 117.53125 374.40625 122.675781 364.121094 132.027344 C 362.71875 133.894531 364.121094 149.324219 369.730469 146.519531 C 377.210938 143.246094 382.820313 138.101563 391.234375 140.441406 C 394.507813 141.375 393.574219 149.789063 392.171875 152.59375 C 391.703125 153.0625 371.601563 146.519531 359.914063 167.554688 C 356.175781 173.632813 354.769531 187.65625 358.511719 194.203125 C 364.121094 206.824219 375.808594 206.359375 386.09375 208.695313 C 387.964844 208.226563 387.964844 213.371094 390.769531 215.238281 M 387.964844 192.332031 C 387.027344 196.074219 366.457031 191.867188 366.457031 183.449219 C 366.925781 167.089844 381.417969 170.359375 389.832031 166.152344 C 393.105469 175.96875 389.367188 182.515625 387.964844 192.332031 "/>
<path style=" stroke:none;fill-rule:nonzero;fill:rgb(13.719177%,12.156677%,12.547302%);fill-opacity:1;" d="M 406.195313 168.492188 C 406.195313 182.515625 415.078125 189.058594 422.089844 195.136719 C 427.230469 199.8125 432.84375 197.941406 438.453125 197.941406 C 441.726563 198.878906 441.726563 211.03125 447.800781 210.097656 C 450.140625 210.097656 453.414063 207.292969 453.414063 205.421875 C 449.203125 173.164063 448.738281 139.972656 456.683594 110.054688 C 457.152344 106.3125 453.878906 103.507813 452.476563 102.574219 C 449.203125 100.703125 444.996094 104.445313 443.128906 109.117188 C 440.789063 115.664063 442.191406 125.480469 438.921875 129.222656 C 428.167969 140.90625 406.195313 144.648438 406.195313 168.492188 M 420.6875 165.683594 C 419.285156 153.996094 430.972656 148.386719 438.453125 148.386719 C 438.453125 159.140625 435.648438 169.425781 437.050781 180.644531 C 429.570313 183.917969 421.621094 175.035156 420.6875 165.683594 "/>
<path style=" stroke:none;fill-rule:nonzero;fill:rgb(13.719177%,12.156677%,12.547302%);fill-opacity:1;" d="M 459.488281 168.492188 C 459.488281 182.515625 468.371094 189.058594 475.386719 195.136719 C 480.527344 199.8125 486.136719 197.941406 491.746094 197.941406 C 495.019531 198.878906 495.019531 211.03125 501.097656 210.097656 C 503.433594 210.097656 506.707031 207.292969 506.707031 205.421875 C 502.5 173.164063 502.03125 139.972656 509.980469 110.054688 C 510.445313 106.3125 507.175781 103.507813 505.769531 102.574219 C 502.5 100.703125 498.289063 104.445313 496.421875 109.117188 C 494.085938 115.664063 495.484375 125.480469 492.214844 129.222656 C 481.460938 140.90625 459.488281 144.648438 459.488281 168.492188 M 473.980469 165.683594 C 472.578125 153.996094 484.265625 148.386719 491.746094 148.386719 C 491.746094 159.140625 488.941406 169.425781 490.34375 180.644531 C 482.863281 183.917969 474.917969 175.035156 473.980469 165.683594 "/>
<g clip-path="url(#clip1)" clip-rule="nonzero">
<path style=" stroke:none;fill-rule:nonzero;fill:rgb(13.719177%,12.156677%,12.547302%);fill-opacity:1;" d="M 516.523438 122.210938 C 519.328125 116.597656 526.808594 115.664063 529.144531 122.210938 C 532.417969 131.558594 530.082031 143.246094 531.484375 154.464844 C 532.417969 157.269531 533.820313 154.464844 534.289063 153.53125 C 538.496094 141.375 541.300781 127.351563 549.714844 120.339844 C 553.457031 117.53125 562.339844 119.402344 559.066406 127.816406 C 551.585938 146.519531 541.300781 164.75 539.898438 187.191406 C 538.964844 200.746094 529.144531 239.550781 522.132813 251.703125 C 516.992188 260.117188 504.367188 261.054688 500.628906 251.703125 C 498.292969 246.09375 496.421875 237.679688 501.5625 233.9375 C 505.304688 231.136719 509.980469 235.808594 510.914063 241.421875 C 520.730469 231.136719 522.132813 210.5625 524.472656 194.203125 C 525.875 183.917969 519.328125 175.503906 518.859375 166.152344 C 517.925781 155.867188 516.523438 146.050781 516.054688 135.765625 C 515.589844 130.621094 514.652344 125.011719 516.523438 122.210938 "/>
</g>
<g clip-path="url(#clip2)" clip-rule="nonzero">
<path style=" stroke:none;fill-rule:nonzero;fill:rgb(13.719177%,12.156677%,12.547302%);fill-opacity:1;" d="M 580.101563 119.871094 L 581.503906 119.871094 C 582.441406 119.871094 582.90625 119.871094 583.375 119.402344 C 583.84375 118.9375 583.84375 118.9375 583.84375 118.46875 C 583.84375 118 583.84375 117.535156 583.375 117.535156 C 582.90625 117.066406 582.441406 117.066406 581.503906 117.066406 L 580.101563 117.066406 Z M 576.832031 114.261719 L 582.441406 114.261719 C 583.84375 114.261719 585.246094 114.726563 585.710938 115.195313 C 586.648438 115.664063 586.648438 116.597656 586.648438 117.535156 C 586.648438 118.46875 586.179688 118.9375 585.710938 119.871094 C 585.246094 120.339844 584.308594 120.804688 583.375 121.273438 C 583.84375 121.273438 584.308594 121.742188 584.308594 121.742188 C 584.777344 122.210938 584.777344 122.675781 585.246094 123.144531 C 585.246094 123.144531 585.710938 124.546875 587.113281 126.882813 L 583.375 126.882813 C 581.972656 124.546875 581.503906 123.144531 581.039063 122.675781 C 580.570313 122.210938 580.101563 121.742188 579.636719 121.742188 L 579.167969 121.742188 L 579.167969 126.882813 L 575.894531 126.882813 L 575.894531 114.261719 Z M 591.320313 120.804688 C 591.320313 118.46875 590.386719 116.132813 588.519531 114.261719 C 586.648438 112.390625 584.308594 111.457031 581.972656 111.457031 C 579.636719 111.457031 577.296875 112.390625 575.429688 114.261719 C 573.558594 116.132813 572.621094 118.46875 572.621094 120.804688 C 572.621094 123.144531 573.558594 125.480469 575.429688 127.351563 C 577.296875 129.222656 579.636719 130.15625 581.972656 130.15625 C 584.308594 130.15625 586.648438 129.222656 588.519531 127.351563 C 590.386719 125.480469 591.320313 123.144531 591.320313 120.804688 M 593.660156 120.804688 C 593.660156 122.675781 593.191406 125.015625 592.257813 126.414063 C 591.320313 128.285156 589.921875 129.6875 588.050781 130.621094 C 586.179688 131.558594 584.308594 132.027344 582.441406 132.027344 C 580.570313 132.027344 578.234375 131.558594 576.832031 130.621094 C 574.960938 129.6875 573.558594 128.285156 572.621094 126.414063 C 571.6875 124.546875 571.21875 122.675781 571.21875 120.804688 C 571.21875 118.9375 571.6875 116.597656 572.621094 115.195313 C 573.558594 113.328125 574.960938 111.925781 576.832031 110.988281 C 578.699219 110.054688 580.570313 109.585938 582.441406 109.585938 C 584.308594 109.585938 586.648438 110.054688 588.050781 110.988281 C 589.921875 111.925781 591.320313 113.328125 592.257813 115.195313 C 593.191406 116.597656 593.660156 118.46875 593.660156 120.804688 "/>
</g>
</g>
</svg>
